<svg width="18" height="17" viewBox="0 0 18 17" fill="none" xmlns="http://www.w3.org/2000/svg">
<path d="M5.31641 1.40016L4.12474 0.208496C2.12474 1.7335 0.808073 4.0835 0.691406 6.75016H2.35807C2.48307 4.54183 3.61641 2.6085 5.31641 1.40016ZM15.6414 6.75016H17.3081C17.1831 4.0835 15.8664 1.7335 13.8747 0.208496L12.6914 1.40016C14.3747 2.6085 15.5164 4.54183 15.6414 6.75016ZM13.9997 7.16683C13.9997 4.6085 12.6331 2.46683 10.2497 1.90016V1.3335C10.2497 0.641829 9.69141 0.0834961 8.99974 0.0834961C8.30807 0.0834961 7.74974 0.641829 7.74974 1.3335V1.90016C5.35807 2.46683 3.99974 4.60016 3.99974 7.16683V11.3335L2.33307 13.0002V13.8335H15.6664V13.0002L13.9997 11.3335V7.16683ZM8.99974 16.3335C9.11641 16.3335 9.22474 16.3252 9.33307 16.3002C9.87474 16.1835 10.3164 15.8168 10.5331 15.3168C10.6164 15.1168 10.6581 14.9002 10.6581 14.6668H7.32474C7.33307 15.5835 8.07474 16.3335 8.99974 16.3335Z" fill="#5B5B5B"/>
</svg>
