<svg width="20" height="12" viewBox="0 0 20 12" fill="none" xmlns="http://www.w3.org/2000/svg">
<path d="M13.3333 5.16663C14.7167 5.16663 15.825 4.04996 15.825 2.66663C15.825 1.28329 14.7167 0.166626 13.3333 0.166626C11.95 0.166626 10.8333 1.28329 10.8333 2.66663C10.8333 4.04996 11.95 5.16663 13.3333 5.16663ZM6.66668 5.16663C8.05001 5.16663 9.15834 4.04996 9.15834 2.66663C9.15834 1.28329 8.05001 0.166626 6.66668 0.166626C5.28334 0.166626 4.16668 1.28329 4.16668 2.66663C4.16668 4.04996 5.28334 5.16663 6.66668 5.16663ZM6.66668 6.83329C4.72501 6.83329 0.833344 7.80829 0.833344 9.74996V11.8333H12.5V9.74996C12.5 7.80829 8.60834 6.83329 6.66668 6.83329ZM13.3333 6.83329C13.0917 6.83329 12.8167 6.84996 12.525 6.87496C13.4917 7.57496 14.1667 8.51663 14.1667 9.74996V11.8333H19.1667V9.74996C19.1667 7.80829 15.275 6.83329 13.3333 6.83329Z" fill="#4586E8"/>
</svg>
