<svg width="36" height="36" viewBox="0 0 36 36" fill="none" xmlns="http://www.w3.org/2000/svg">
<circle cx="18" cy="18" r="18" fill="#848485"/>
<path d="M18.5 18C20.8672 18 22.7857 16.2094 22.7857 14C22.7857 11.7906 20.8672 10 18.5 10C16.1328 10 14.2143 11.7906 14.2143 14C14.2143 16.2094 16.1328 18 18.5 18ZM21.5 19H20.9408C20.1975 19.3188 19.3705 19.5 18.5 19.5C17.6295 19.5 16.8058 19.3188 16.0592 19H15.5C13.0156 19 11 20.8813 11 23.2V24.5C11 25.3281 11.7199 26 12.6071 26H24.3929C25.2801 26 26 25.3281 26 24.5V23.2C26 20.8813 23.9844 19 21.5 19Z" fill="white"/>
</svg>
