<svg width="14" height="14" viewBox="0 0 14 14" fill="none" xmlns="http://www.w3.org/2000/svg">
<path d="M6.99998 1.91683C7.96665 1.91683 8.74998 2.70016 8.74998 3.66683C8.74998 4.6335 7.96665 5.41683 6.99998 5.41683C6.03331 5.41683 5.24998 4.6335 5.24998 3.66683C5.24998 2.70016 6.03331 1.91683 6.99998 1.91683ZM6.99998 9.41683C9.47498 9.41683 12.0833 10.6335 12.0833 11.1668V12.0835H1.91665V11.1668C1.91665 10.6335 4.52498 9.41683 6.99998 9.41683ZM6.99998 0.333496C5.15831 0.333496 3.66665 1.82516 3.66665 3.66683C3.66665 5.5085 5.15831 7.00016 6.99998 7.00016C8.84165 7.00016 10.3333 5.5085 10.3333 3.66683C10.3333 1.82516 8.84165 0.333496 6.99998 0.333496ZM6.99998 7.83349C4.77498 7.83349 0.333313 8.95016 0.333313 11.1668V13.6668H13.6666V11.1668C13.6666 8.95016 9.22498 7.83349 6.99998 7.83349Z" fill="#5B5B5B"/>
</svg>
