<svg width="20" height="14" viewBox="0 0 20 14" fill="none" xmlns="http://www.w3.org/2000/svg">
<path d="M15.833 3.66683L12.4997 7.00016H14.9997C14.9997 9.7585 12.758 12.0002 9.99967 12.0002C9.15801 12.0002 8.35801 11.7918 7.66634 11.4168L6.44967 12.6335C7.47467 13.2835 8.69134 13.6668 9.99967 13.6668C13.683 13.6668 16.6663 10.6835 16.6663 7.00016H19.1663L15.833 3.66683ZM4.99967 7.00016C4.99967 4.24183 7.24134 2.00016 9.99967 2.00016C10.8413 2.00016 11.6413 2.2085 12.333 2.5835L13.5497 1.36683C12.5247 0.716829 11.308 0.333496 9.99967 0.333496C6.31634 0.333496 3.33301 3.31683 3.33301 7.00016H0.833008L4.16634 10.3335L7.49967 7.00016H4.99967Z" fill="#5B5B5B"/>
</svg>
