<svg width="16" height="19" viewBox="0 0 16 19" fill="none" xmlns="http://www.w3.org/2000/svg">
<path d="M10.5 0.833496H5.5V2.50016H10.5V0.833496ZM7.16667 11.6668H8.83333V6.66683H7.16667V11.6668ZM13.8583 6.1585L15.0417 4.97516C14.6833 4.55016 14.2917 4.15016 13.8667 3.80016L12.6833 4.9835C11.3917 3.95016 9.76667 3.3335 8 3.3335C3.85833 3.3335 0.5 6.69183 0.5 10.8335C0.5 14.9752 3.85 18.3335 8 18.3335C12.15 18.3335 15.5 14.9752 15.5 10.8335C15.5 9.06683 14.8833 7.44183 13.8583 6.1585ZM8 16.6668C4.775 16.6668 2.16667 14.0585 2.16667 10.8335C2.16667 7.6085 4.775 5.00016 8 5.00016C11.225 5.00016 13.8333 7.6085 13.8333 10.8335C13.8333 14.0585 11.225 16.6668 8 16.6668Z" fill="#5B5B5B"/>
</svg>
