<svg width="299" height="261" viewBox="0 0 299 261" fill="none" xmlns="http://www.w3.org/2000/svg">
<path d="M231.388 155.621V155.576C225.318 153.561 216.006 154.245 214.622 155.071C213.151 156.055 211.888 157.319 210.903 158.79C207.634 163.428 205.29 168.653 204 174.179L137.986 180.316C135.554 175.065 131.887 170.356 128.205 167.515C127.153 166.634 125.94 165.965 124.634 165.544C124.059 165.475 123.477 165.495 122.909 165.603C120.514 158.663 117.122 151.969 112.882 151.545C103.956 150.652 88.3803 153.642 84.1331 162.301C79.8858 170.959 78.5544 192.574 78.5544 192.574L75.5791 195.55C73.409 191.322 70.3907 187.587 66.7127 184.578C65.6641 183.692 64.4507 183.022 63.1423 182.607C62.3985 182.399 59.4232 182.86 56.3066 183.879C56.1801 183.76 56.0611 183.641 55.9272 183.529C52.9519 181.038 46.8525 179.676 43.4458 186.029C40.0391 192.381 44.1301 204.409 46.1682 207.131C47.158 208.522 48.3992 209.715 49.8278 210.649C52.2304 216.6 56.5223 224.187 63.1274 224.536C65.3898 224.658 67.652 224.292 69.7606 223.463C71.8691 222.634 73.7748 221.361 75.3485 219.731C79.6329 215.268 80.0941 208.998 78.48 202.861L79.1717 201.85C79.1717 201.85 80.7115 204.044 86.61 203.159C88.3199 202.983 89.941 202.311 91.2738 201.225C94.0408 208.284 98.5112 215.358 105.615 216.414C108.663 216.88 111.777 216.685 114.743 215.84C117.709 214.995 120.459 213.522 122.805 211.519C124.168 210.342 125.357 208.977 126.338 207.466C130.315 207.246 134.062 205.529 136.826 202.661C139.298 200.023 140.712 196.568 140.798 192.954L149.582 191.927C155.097 194.387 161.113 195.513 167.144 195.215C172.919 194.844 178.385 192.477 182.608 188.52L202.624 186.81C202.959 194.568 205.748 201.686 212.294 205.606C214.8 207.102 217.601 208.037 220.503 208.346C223.405 208.656 226.339 208.332 229.105 207.399C238.335 204.304 240.522 190.588 241.117 182.25C242.04 168.861 237.77 157.518 231.388 155.621Z" fill="#263238" stroke="#263238" stroke-width="0.75" stroke-linecap="round" stroke-linejoin="round"/>
<path d="M109.175 212.107C108.408 213.089 107.429 213.884 106.312 214.436" stroke="white" stroke-width="0.5" stroke-linecap="round" stroke-linejoin="round"/>
<path d="M112.784 194.478C112.784 194.478 113.669 204.148 110.374 210.284" stroke="white" stroke-width="0.5" stroke-linecap="round" stroke-linejoin="round"/>
<path d="M115.395 205.159C114.554 208.878 112.881 212.486 109.638 214.085" stroke="white" stroke-width="0.5" stroke-linecap="round" stroke-linejoin="round"/>
<path d="M119.434 193.742C119.434 193.742 120.921 209.816 112.97 213.699" stroke="white" stroke-width="0.5" stroke-linecap="round" stroke-linejoin="round"/>
<path d="M122.766 193.37C122.766 193.37 124.254 209.451 116.295 213.326" stroke="white" stroke-width="0.5" stroke-linecap="round" stroke-linejoin="round"/>
<path d="M223.116 204.639C222.261 205.718 221.199 206.616 219.992 207.279" stroke="white" stroke-width="0.5" stroke-linecap="round" stroke-linejoin="round"/>
<path d="M229.097 184.563C229.097 184.563 228.621 195.564 224.537 202.564" stroke="white" stroke-width="0.5" stroke-linecap="round" stroke-linejoin="round"/>
<path d="M230.159 196.747C228.821 200.979 226.678 205.085 223.294 206.871" stroke="white" stroke-width="0.5" stroke-linecap="round" stroke-linejoin="round"/>
<path d="M235.701 183.745C235.701 183.745 234.905 202.072 226.597 206.461" stroke="white" stroke-width="0.5" stroke-linecap="round" stroke-linejoin="round"/>
<path d="M239.018 183.343C239.018 183.343 238.223 201.664 229.914 206.06" stroke="white" stroke-width="0.5" stroke-linecap="round" stroke-linejoin="round"/>
<path d="M65.2226 222.052C64.5896 223.022 63.7549 223.844 62.7754 224.462" stroke="white" stroke-width="0.5" stroke-linecap="round" stroke-linejoin="round"/>
<path d="M66.3986 206.41C66.3986 206.41 68.4962 214.592 66.1309 220.312" stroke="white" stroke-width="0.5" stroke-linecap="round" stroke-linejoin="round"/>
<path d="M70.2891 215.194C69.9544 218.504 68.8015 221.836 65.9229 223.666" stroke="white" stroke-width="0.5" stroke-linecap="round" stroke-linejoin="round"/>
<path d="M72.6765 204.817C72.6765 204.817 76.1725 218.392 69.0615 222.863" stroke="white" stroke-width="0.5" stroke-linecap="round" stroke-linejoin="round"/>
<path d="M75.8152 204.014C75.8152 204.014 79.3186 217.588 72.2002 222.066" stroke="white" stroke-width="0.5" stroke-linecap="round" stroke-linejoin="round"/>
<path d="M101.456 188.967C103.226 199.09 102.118 207.748 98.9935 208.306C95.8694 208.864 91.89 201.083 90.1197 190.96C88.3493 180.837 89.4576 172.178 92.5891 171.621C95.7207 171.063 99.6852 178.836 101.456 188.967Z" fill="#A24713" stroke="#263238" stroke-linecap="round" stroke-linejoin="round"/>
<path d="M99.8789 189.183C100.37 193.065 99.9161 196.316 98.8524 196.45C97.7887 196.584 96.5391 193.549 96.0482 189.666C95.5573 185.783 96.0482 182.525 97.0747 182.391C98.1011 182.258 99.388 185.3 99.8789 189.183Z" fill="#A24713" stroke="#263238" stroke-linecap="round" stroke-linejoin="round"/>
<path d="M92.418 179.899C92.5235 178.596 92.7299 177.303 93.0353 176.031" stroke="#263238" stroke-width="0.75" stroke-linecap="round" stroke-linejoin="round"/>
<path d="M97.35 204.654C95.2917 200.533 93.8196 196.144 92.9763 191.615C92.4162 188.411 92.1894 185.158 92.2995 181.908" stroke="#263238" stroke-width="0.75" stroke-linecap="round" stroke-linejoin="round"/>
<path d="M57.6787 219.053C59.9273 218.43 60.1146 212.023 58.0969 204.742C56.0793 197.462 52.6209 192.065 50.3722 192.689C48.1236 193.312 47.9364 199.719 49.954 206.999C51.9716 214.279 55.4301 219.676 57.6787 219.053Z" fill="#A24713" stroke="#263238" stroke-linecap="round" stroke-linejoin="round"/>
<path d="M57.3607 205.033C58.0674 207.8 58.0302 210.195 57.2715 210.388C56.5128 210.582 55.3375 208.491 54.6309 205.732C53.9243 202.972 53.9615 200.562 54.7202 200.376C55.4789 200.19 56.6541 202.266 57.3607 205.033Z" stroke="#263238" stroke-width="0.75" stroke-linecap="round" stroke-linejoin="round"/>
<path d="M51.1269 198.985C51.0854 198.032 51.1177 197.077 51.2236 196.129" stroke="#263238" stroke-width="0.75" stroke-linecap="round" stroke-linejoin="round"/>
<path d="M56.9229 216.458C55.0629 213.66 53.6033 210.616 52.5864 207.413C51.8914 205.146 51.4327 202.813 51.2178 200.451" stroke="#263238" stroke-width="0.75" stroke-linecap="round" stroke-linejoin="round"/>
<path d="M217.127 80.4945C209.287 64.3163 205.903 62.9105 200.688 62.6427C195.474 62.3749 183.164 60.8426 169.448 63.0369C169.448 63.0369 131.185 62.3675 101.581 80.3011C70.6752 99.0232 55.635 115.469 53.53 123.993C51.425 132.518 44.2396 154.728 40.8329 167.463C37.4262 180.197 35.1055 191.414 39.4494 201.723C42.0751 207.956 44.8719 209.831 48.4646 209.801C47.9149 208.815 47.4304 207.794 47.0141 206.744C43.4437 197.9 43.8752 185.247 47.9513 184.429C52.0275 183.611 54.4598 192.083 56.9219 201.321C57.4106 203.358 58.0725 205.349 58.9004 207.272C64.9924 204.974 74.7513 199.834 87.7237 194.493C86.4922 186.379 86.4646 178.128 87.6418 170.006C89.5609 157.309 97.676 154.505 101.209 162.233C104.132 168.601 105.218 182.852 105.509 187.657C110.715 185.865 115.074 184.682 117.759 184.518C117.759 184.518 162.151 174.492 194.872 173.688C227.593 172.885 243.964 172.104 243.964 172.104C243.964 172.104 224.967 96.6429 217.127 80.4945Z" fill="white"/>
<path d="M112.518 158.552C112.518 158.552 108.018 164.711 102.543 166.027C104.477 173.123 105.273 183.626 105.518 187.598C110.167 185.999 114.117 184.876 116.824 184.548C117.219 182.228 117.457 180.747 117.457 180.747L112.518 158.552Z" fill="#A24713"/>
<path opacity="0.2" d="M57.1172 201.991C59.1851 202.199 60.5611 203.092 64.7637 202.043C72.202 200.191 66.8539 185.835 79.194 179.974C81.5894 178.766 84.1962 178.033 86.8702 177.817C86.9812 175.19 87.2295 172.571 87.6141 169.969C87.9417 167.415 88.696 164.933 89.8455 162.628C86.476 161.594 85.8661 160.605 80.1237 163.335C67.7762 169.196 69.6284 184.318 62.2273 186.17C56.3213 187.658 55.9941 185.285 51.5088 186.386C53.6064 189.361 55.2279 195.155 56.8643 201.262C56.9908 201.537 57.0503 201.738 57.1172 201.991Z" fill="#A24713"/>
<g style="mix-blend-mode:multiply">
<g style="mix-blend-mode:multiply" opacity="0.2">
<path d="M44.9708 189.279C41.512 191.66 39.4516 195.23 38.2764 198.242C38.5952 199.431 38.9877 200.599 39.4516 201.738C42.0773 207.972 44.8741 209.846 48.4668 209.816C47.9171 208.83 47.4326 207.809 47.0163 206.759C44.7476 201.128 44.1377 193.965 44.9708 189.279Z" fill="#A24713"/>
</g>
</g>
<g style="mix-blend-mode:multiply" opacity="0.2">
<path d="M200.691 62.6429L199.345 62.561C145.097 76.4408 123.028 141.823 115.434 173.331C115.843 176.463 116.289 179.535 116.772 182.525C117.695 182.347 117.055 184.519 117.762 184.481C117.762 184.481 162.153 174.455 194.874 173.651C227.595 172.848 243.967 172.067 243.967 172.067C243.967 172.067 224.969 96.6431 217.129 80.4947C209.289 64.3462 205.905 62.8809 200.691 62.6429Z" fill="#A24713"/>
</g>
<path d="M217.127 80.4945C209.287 64.3163 205.903 62.9105 200.688 62.6427C195.474 62.3749 183.164 60.8426 169.448 63.0369C169.448 63.0369 131.185 62.3675 101.581 80.3011C70.6752 99.0232 55.635 115.469 53.53 123.993C51.425 132.518 44.2396 154.728 40.8329 167.463C37.4262 180.197 35.1055 191.414 39.4494 201.723C42.0751 207.956 44.8719 209.831 48.4646 209.801C47.9149 208.815 47.4304 207.794 47.0141 206.744C43.4437 197.9 43.8752 185.247 47.9513 184.429C52.0275 183.611 54.4598 192.083 56.9219 201.321C57.4106 203.358 58.0725 205.349 58.9004 207.272C64.9924 204.974 74.7513 199.834 87.7237 194.493C86.4922 186.379 86.4646 178.128 87.6418 170.006C89.5609 157.309 97.676 154.505 101.209 162.233C104.132 168.601 105.218 182.852 105.509 187.657C110.715 185.865 115.074 184.682 117.759 184.518C117.759 184.518 162.151 174.492 194.872 173.688C227.593 172.885 243.964 172.104 243.964 172.104C243.964 172.104 224.967 96.6429 217.127 80.4945Z" stroke="#263238" stroke-linecap="round" stroke-linejoin="round"/>
<path opacity="0.2" d="M54.751 162.137C55.2616 162.562 55.8831 162.832 56.5421 162.915C57.2011 162.998 57.8701 162.89 58.4701 162.606C60.8132 161.668 61.0512 158.143 61.0512 158.143L64.562 157.912L65.2687 146.896L57.5329 149.938C57.5329 149.938 55.4576 160.731 54.751 162.137Z" fill="#A24713"/>
<path d="M44.6054 194.352C42.3843 195.532 40.2841 196.927 38.335 198.517C38.6434 199.607 39.0159 200.677 39.4507 201.723C42.0764 207.956 44.8732 209.831 48.4659 209.801C47.9162 208.814 47.4317 207.793 47.0154 206.744C45.4905 202.787 44.6747 198.592 44.6054 194.352Z" fill="#263238" stroke="#263238" stroke-width="0.75" stroke-linecap="round" stroke-linejoin="round"/>
<path d="M56.4553 188.208C56.254 188.207 56.0567 188.152 55.884 188.049C55.7112 187.945 55.5695 187.797 55.4735 187.62C55.3381 187.363 55.309 187.063 55.3924 186.785C55.4759 186.507 55.6653 186.273 55.9198 186.133C56.0983 186.036 70.5731 177.065 82.5636 170.691C82.693 170.622 82.8347 170.579 82.9807 170.565C83.1266 170.551 83.2739 170.566 83.4141 170.609C83.5543 170.652 83.6847 170.722 83.7979 170.815C83.911 170.908 84.0047 171.023 84.0736 171.152C84.1424 171.281 84.1851 171.423 84.1992 171.569C84.2133 171.715 84.1985 171.862 84.1557 172.003C84.1129 172.143 84.0428 172.273 83.9496 172.386C83.8564 172.499 83.7418 172.593 83.6124 172.662C71.6294 179.029 57.162 187.992 56.9834 188.089C56.8206 188.174 56.6387 188.215 56.4553 188.208Z" fill="#263238" stroke="#263238" stroke-miterlimit="10"/>
<path d="M75.3761 113.647L74.8629 126.419C74.7513 128.159 75.7629 129 77.0944 128.248L97.6612 114.86C98.4172 114.332 99.0269 113.622 99.4329 112.794C99.8388 111.967 100.028 111.049 99.9819 110.129L99.8554 95.8846C99.7067 94.5903 98.829 94.0622 97.7504 94.6201C93.8825 96.621 86.4145 103.39 77.4886 109.69C76.8838 110.169 76.3841 110.768 76.0207 111.449C75.6573 112.13 75.4379 112.878 75.3761 113.647Z" fill="#A24713" stroke="#263238" stroke-linecap="round" stroke-linejoin="round"/>
<path d="M89.2725 110.046L99.3215 112.501" stroke="#263238" stroke-linecap="round" stroke-linejoin="round"/>
<path d="M75.5254 128.308L81.7289 114.606" stroke="#263238" stroke-linecap="round" stroke-linejoin="round"/>
<path d="M75.4951 113.223L84.6144 114.361C85.5591 114.502 86.7343 113.721 87.5897 112.367L99.4909 95.3262" stroke="#263238" stroke-linecap="round" stroke-linejoin="round"/>
<path d="M126.411 89.9191L128.523 121.904C128.578 122.827 128.82 123.729 129.236 124.556C129.651 125.382 130.23 126.115 130.938 126.711C131.646 127.306 132.468 127.75 133.353 128.017C134.239 128.284 135.169 128.368 136.088 128.263L207.138 119.04C208.117 118.927 209.06 118.603 209.901 118.09C210.743 117.577 211.463 116.888 212.012 116.07C212.561 115.251 212.925 114.324 213.08 113.35C213.236 112.377 213.178 111.382 212.91 110.434L203.94 78.7171C203.515 77.2098 202.583 75.8956 201.301 74.9969C200.018 74.0982 198.465 73.6703 196.903 73.7855C185.389 74.6335 157.771 77.1104 131.7 82.9197C130.134 83.2753 128.745 84.1728 127.777 85.4536C126.809 86.7344 126.326 88.3161 126.411 89.9191Z" fill="#A24713" stroke="#263238" stroke-linecap="round" stroke-linejoin="round"/>
<path d="M179.223 99.834L211.661 115.201" stroke="#263238" stroke-linecap="round" stroke-linejoin="round"/>
<path d="M131.216 126.857L158.611 102.34" stroke="#263238" stroke-linecap="round" stroke-linejoin="round"/>
<path d="M126.648 89.0777L165.96 105.241C167.436 105.844 169.055 106.005 170.621 105.706C172.187 105.406 173.632 104.658 174.781 103.553L202.801 77.0947" stroke="#263238" stroke-linecap="round" stroke-linejoin="round"/>
<path d="M205.157 123.567C211.835 123.403 217.117 117.949 216.956 111.387C216.794 104.824 211.25 99.6371 204.572 99.8015C197.895 99.9659 192.612 105.419 192.774 111.982C192.935 118.545 198.48 123.731 205.157 123.567Z" fill="#263238" stroke="#263238" stroke-width="0.75" stroke-linecap="round" stroke-linejoin="round"/>
<path d="M203.561 117.358H203.524C203.289 117.359 203.058 117.304 202.848 117.198C202.639 117.092 202.457 116.938 202.319 116.748L197.566 110.188C197.334 109.868 197.239 109.47 197.301 109.08C197.363 108.69 197.577 108.341 197.897 108.109C198.216 107.877 198.615 107.782 199.005 107.844C199.395 107.906 199.744 108.12 199.976 108.44L203.524 113.334L212.003 101.619C212.235 101.299 212.585 101.085 212.974 101.023C213.364 100.961 213.763 101.056 214.082 101.288C214.402 101.52 214.616 101.869 214.679 102.259C214.741 102.649 214.645 103.047 214.413 103.367L204.744 116.756C204.607 116.941 204.429 117.092 204.223 117.196C204.018 117.301 203.791 117.356 203.561 117.358Z" fill="white" stroke="#263238" stroke-linecap="round" stroke-linejoin="round"/>
<path d="M158.634 149.417C158.634 149.417 183.924 144.567 201.255 144.909L202.296 149.075C202.296 149.075 165.908 150.8 158.976 154.282L158.634 149.417Z" fill="#263238" stroke="#263238" stroke-width="0.75" stroke-linecap="round" stroke-linejoin="round"/>
<path d="M158.976 154.267L159.719 158.433C159.796 158.897 160.052 159.313 160.431 159.591C160.811 159.869 161.284 159.987 161.75 159.92C168.095 159.013 190.365 155.956 201.917 156.238C202.201 156.247 202.484 156.189 202.741 156.067C202.999 155.946 203.224 155.766 203.399 155.541C203.574 155.316 203.693 155.054 203.747 154.774C203.801 154.495 203.788 154.206 203.709 153.933L202.326 149.09" stroke="#263238" stroke-linecap="round" stroke-linejoin="round"/>
<path d="M66.6881 146.91L66.5468 129.728L67.4022 112.062C67.4086 111.893 67.3638 111.726 67.2738 111.583C67.1838 111.44 67.0527 111.327 66.8977 111.26C66.7426 111.192 66.5708 111.173 66.4047 111.205C66.2386 111.237 66.0859 111.318 65.9666 111.437C62.7681 114.71 57.2936 119.664 55.672 123.725C53.567 128.984 51.0752 154.869 51.0752 154.869L66.6881 146.91Z" fill="#263238" stroke="#263238" stroke-width="0.75" stroke-linecap="round" stroke-linejoin="round"/>
<path d="M46.8811 143.459H44.3892C43.1199 143.459 42.0908 144.489 42.0908 145.758V158.596C42.0908 159.866 43.1199 160.895 44.3892 160.895H46.8811C48.1504 160.895 49.1795 159.866 49.1795 158.596V145.758C49.1795 144.489 48.1504 143.459 46.8811 143.459Z" fill="#263238" stroke="#263238" stroke-width="0.75" stroke-linecap="round" stroke-linejoin="round"/>
<path d="M48.4502 131.469C49.6298 131.695 50.7818 132.046 51.8867 132.517C52.8028 132.968 53.6354 133.572 54.3487 134.303L58.0679 129.386C58.0679 129.386 52.6156 127.102 51.5817 125.711L50.5552 124.313L48.4502 131.469Z" fill="white"/>
<g style="mix-blend-mode:multiply" opacity="0.5">
<path d="M51.5743 125.712L50.6147 124.38L50.5031 124.455L48.4502 131.447C48.4502 131.447 48.8444 131.521 49.4023 131.655L54.7206 127.802C53.5583 127.293 52.4936 126.586 51.5743 125.712Z" fill="#A24713"/>
</g>
<path d="M48.4502 131.469C49.6298 131.695 50.7818 132.046 51.8867 132.517C52.8028 132.968 53.6354 133.572 54.3487 134.303L58.0679 129.386C58.0679 129.386 52.6156 127.102 51.5817 125.711L50.5552 124.313L48.4502 131.469Z" stroke="#263238" stroke-width="0.75" stroke-linecap="round" stroke-linejoin="round"/>
<path d="M56.3065 127.296L51.7617 133.09L52.3791 135.061L59.3041 127.869L56.3065 127.296Z" fill="#A24713" stroke="#263238" stroke-linecap="round" stroke-linejoin="round"/>
<path d="M49.03 110.925C45.958 108.544 37.9545 110.062 36.385 115.7C35.418 119.174 35.9536 124.381 35.9536 124.381L45.0729 122.447L45.8167 123.57C47.3044 125.801 50.5251 124.314 51.3582 123.57C51.8119 123.176 51.7822 122.015 51.6632 121.056L52.0276 120.974C52.0276 120.974 52.0946 113.312 49.03 110.925Z" fill="#263238" stroke="#263238" stroke-width="0.75" stroke-linecap="round" stroke-linejoin="round"/>
<path d="M45.6237 121.762C41.6211 121.316 37.5696 121.701 33.7225 122.893C27.7719 124.886 26.857 126.612 31.1192 126.508C35.3813 126.403 45.6237 121.762 45.6237 121.762Z" fill="#263238" stroke="#263238" stroke-width="0.75" stroke-linecap="round" stroke-linejoin="round"/>
<path d="M38.2746 119.598C38.9689 119.598 39.5317 118.828 39.5317 117.879C39.5317 116.93 38.9689 116.161 38.2746 116.161C37.5804 116.161 37.0176 116.93 37.0176 117.879C37.0176 118.828 37.5804 119.598 38.2746 119.598Z" fill="#A24713"/>
<path d="M66.548 129.728C66.548 129.728 58.4031 127.66 55.8964 129.564C53.3897 131.468 52.75 134.615 53.5534 138.431C54.3567 142.246 56.3129 152.281 56.3129 152.281L66.6893 146.91L66.548 129.728Z" fill="#263238" stroke="#263238" stroke-width="0.75" stroke-linecap="round" stroke-linejoin="round"/>
<path d="M53.6189 150.682C53.6189 150.682 53.1801 154.535 52.6669 155.078C52.1536 155.621 38.616 144.248 37.7904 143.176C36.9647 142.105 37.53 138.282 37.7904 137.084C38.0507 135.887 37.6118 135.232 36.3027 136.058C34.9936 136.884 35.3432 140.32 35.3432 140.32C35.3432 140.32 31.3488 139.361 30.5529 139.249C29.757 139.137 29.0653 140.127 29.1843 140.915C29.3033 141.704 30.3521 141.771 30.3521 141.771C30.0838 142.912 30.1588 144.108 30.5678 145.207C31.267 146.65 32.0555 147.558 33.5431 147.915C35.078 148.154 36.632 148.249 38.1846 148.197C38.1846 148.197 45.1022 154.788 47.1105 157.25C49.1188 159.712 53.3512 163.059 55.4562 162.456C57.5612 161.854 59.5696 151.344 59.5696 151.344L53.6189 150.682Z" fill="white"/>
<g style="mix-blend-mode:multiply" opacity="0.5">
<path d="M52.6682 155.077L56.6253 156.394C56.7508 157.224 56.5754 158.072 56.1307 158.784C55.686 159.496 55.0014 160.025 54.2004 160.277C52.4524 160.857 49.3135 158.871 47.082 157.197L47.149 157.279C49.1945 159.749 53.3897 163.088 55.4947 162.486C57.5997 161.883 59.6081 151.373 59.6081 151.373L53.6203 150.629C53.6203 150.629 53.1814 154.534 52.6682 155.077Z" fill="#A24713"/>
</g>
<path d="M53.619 150.682C53.619 150.682 53.1801 154.535 52.6669 155.078C52.1536 155.621 38.616 144.248 37.7904 143.176C36.9647 142.105 37.53 138.282 37.7904 137.084C38.0507 135.887 37.6118 135.232 36.3027 136.058C34.9936 136.884 35.3432 140.32 35.3432 140.32C35.3432 140.32 31.3488 139.361 30.5529 139.249C29.757 139.137 29.0653 140.127 29.1843 140.915C29.3033 141.704 30.3521 141.771 30.3521 141.771C30.0838 142.912 30.1588 144.108 30.5678 145.207C31.267 146.65 32.0555 147.558 33.5431 147.915C35.078 148.154 36.632 148.249 38.1846 148.197C38.1846 148.197 45.1022 154.788 47.1105 157.25C49.1188 159.712 53.3512 163.059 55.4562 162.456C57.5612 161.854 59.5696 151.344 59.5696 151.344L53.619 150.682Z" stroke="#263238" stroke-width="0.75" stroke-linecap="round" stroke-linejoin="round"/>
<path d="M40.0897 145.267L38.1855 148.227L39.16 148.889L41.1088 146.1L40.0897 145.267Z" fill="#263238" stroke="#263238" stroke-miterlimit="10"/>
<path d="M39.4352 148.056C39.846 148.056 40.1791 147.723 40.1791 147.312C40.1791 146.901 39.846 146.568 39.4352 146.568C39.0244 146.568 38.6914 146.901 38.6914 147.312C38.6914 147.723 39.0244 148.056 39.4352 148.056Z" fill="white" stroke="#263238" stroke-width="0.75" stroke-linecap="round" stroke-linejoin="round"/>
<path d="M37.6133 125.332C37.6133 125.332 38.067 126.455 38.8257 128.426C39.5844 130.397 43.6606 134.555 45.654 134.793C47.6475 135.031 50.0352 127.787 50.4145 126.291C50.541 125.801 50.6674 125.012 50.6674 125.012C50.6674 125.012 53.1741 123.829 52.5939 122.401C52.0137 120.973 50.8385 120.319 50.2806 120.757C49.7228 121.196 49.6261 123.048 48.793 123.063C47.9599 123.078 47.5062 122.818 46.7698 121.836C46.0334 120.854 38.4017 122.892 37.6133 125.332Z" fill="white"/>
<path opacity="0.5" d="M46.7539 121.836C46.0101 120.862 38.4008 122.9 37.6123 125.332L38.0437 126.433C40.9524 124.679 44.1134 123.382 47.4159 122.587C47.1692 122.361 46.9472 122.109 46.7539 121.836Z" fill="#A24713"/>
<g style="mix-blend-mode:multiply">
<g style="mix-blend-mode:multiply" opacity="0.5">
<path d="M52.4958 122.201C51.8859 120.922 50.8073 120.341 50.2643 120.758C49.924 121.202 49.6715 121.707 49.5205 122.246C50.5085 122.135 51.5049 122.12 52.4958 122.201Z" fill="#A24713"/>
</g>
</g>
<path d="M37.6133 125.332C37.6133 125.332 38.067 126.455 38.8257 128.426C39.5844 130.397 43.6606 134.555 45.654 134.793C47.6475 135.031 50.0352 127.787 50.4145 126.291C50.541 125.801 50.6674 125.012 50.6674 125.012C50.6674 125.012 53.1741 123.829 52.5939 122.401C52.0137 120.973 50.8385 120.319 50.2806 120.757C49.7228 121.196 49.6261 123.048 48.793 123.063C47.9599 123.078 47.5062 122.818 46.7698 121.836C46.0334 120.854 38.4017 122.892 37.6133 125.332Z" stroke="#263238" stroke-width="0.75" stroke-linecap="round" stroke-linejoin="round"/>
<path d="M40.3131 125.868C40.447 126.321 40.4024 126.738 40.2238 126.79C40.0453 126.842 39.785 126.515 39.6511 126.046C39.5172 125.577 39.5618 125.176 39.7403 125.124C39.9189 125.072 40.1792 125.429 40.3131 125.868Z" fill="#263238" stroke="#263238" stroke-miterlimit="10"/>
<path d="M38.9287 124.604C39.9701 124.306 40.4164 125.087 40.5428 125.808L40.7362 126.664L41.3833 129.974L42.3652 129.557" stroke="#263238" stroke-width="0.5" stroke-linecap="round" stroke-linejoin="round"/>
<path d="M43.1689 124.856C43.3952 124.608 43.6768 124.417 43.9908 124.298C44.3049 124.179 44.6426 124.136 44.9764 124.172" stroke="#263238" stroke-width="0.5" stroke-linecap="round" stroke-linejoin="round"/>
<path d="M44.0313 122.796C43.6082 122.884 43.2198 123.094 42.9135 123.399C42.6071 123.704 42.3959 124.091 42.3057 124.514" stroke="#263238" stroke-width="0.5" stroke-linecap="round" stroke-linejoin="round"/>
<path d="M43.252 130.628C43.252 130.628 45.409 130.197 45.5801 128.649" stroke="#263238" stroke-width="0.5" stroke-linecap="round" stroke-linejoin="round"/>
<path d="M61.5644 156.261L50.6748 153.226C50.6748 153.226 51.6343 134.631 53.3154 131.484C55.9336 126.597 61.9363 128.799 63.0669 134.943C64.1232 140.745 61.5644 156.261 61.5644 156.261Z" fill="#A24713" stroke="#263238" stroke-linecap="round" stroke-linejoin="round"/>
<path d="M50.9346 151.158C50.9346 151.158 56.8852 152.527 60.5076 153.717" stroke="#263238" stroke-width="0.5" stroke-linecap="round" stroke-linejoin="round"/>
<path d="M60.3594 128.233C60.3594 128.233 63.9 128.508 66.2133 130.412" stroke="#A24713" stroke-width="0.5" stroke-linecap="round" stroke-linejoin="round"/>
<path d="M122.752 175.801C122.752 175.801 106.894 181.394 105.443 182.919C103.993 184.444 104.141 190.395 107.563 193.288C110.985 196.182 135.375 189.621 152.81 187.709C170.245 185.798 208.522 182.986 224.143 182.227C239.763 181.469 246.867 183.529 248.235 178.657C249.604 173.785 249.433 168.578 246.458 167.522C243.482 166.466 189.272 157.785 122.752 175.801Z" fill="#263238" stroke="#263238" stroke-width="0.75" stroke-linecap="round" stroke-linejoin="round"/>
<path d="M104.312 186.17C104.312 186.17 105.055 192.619 109.02 193.608C112.985 194.598 160.098 185.672 187.865 184.682C215.632 183.693 239.933 182.949 239.933 182.949" stroke="white" stroke-width="0.5" stroke-linecap="round" stroke-linejoin="round"/>
<path d="M127.326 189.443C145.743 184.98 183.626 178.672 247.372 180.465" stroke="white" stroke-width="0.5" stroke-linecap="round" stroke-linejoin="round"/>
<path d="M112.226 193.37C112.226 193.37 116.458 192.343 122.892 190.588" stroke="white" stroke-width="0.5" stroke-linecap="round" stroke-linejoin="round"/>
<path d="M116.109 194.106C116.309 196.872 116.234 199.65 115.886 202.4" stroke="white" stroke-width="0.5" stroke-linecap="round" stroke-linejoin="round"/>
<path d="M115.433 75.1616C115.433 75.1616 111.885 79.3196 111.609 83.0462" stroke="#263238" stroke-width="0.75" stroke-linecap="round" stroke-linejoin="round"/>
<path d="M111.237 86.0503C111.237 86.0503 108.567 128.53 115.633 173.74" stroke="#263238" stroke-width="0.75" stroke-linecap="round" stroke-linejoin="round"/>
<path d="M112.076 135.135C112.076 135.135 106.312 137.144 106.237 139.747C106.044 146.746 106.78 161.682 108.305 163.133C109.83 164.583 114.568 160.745 114.568 160.745C114.568 160.745 121.263 161.325 122.006 159.823C122.75 158.32 119.961 137.173 119.544 135.329C119.128 133.484 112.076 135.135 112.076 135.135Z" fill="#A24713" stroke="#263238" stroke-linecap="round" stroke-linejoin="round"/>
<path d="M232.487 145.207C233.988 145.94 235.618 146.37 237.285 146.471C235.44 139.539 233.35 131.818 231.193 124.112C229.244 123.978 226.73 123.978 226.782 124.856C226.819 126.358 230.605 144.121 232.487 145.207Z" fill="#A24713" stroke="#263238" stroke-linecap="round" stroke-linejoin="round"/>
<path d="M111.251 137.323C111.251 137.323 111.504 150.712 112.493 155.918" stroke="#263238" stroke-width="0.75" stroke-linecap="round" stroke-linejoin="round"/>
<path d="M180.784 140.417C180.784 140.417 213.974 135.069 252.645 141.905" stroke="#263238" stroke-linecap="round" stroke-linejoin="round"/>
<path d="M281.826 161.385C284.11 162.07 286.356 162.791 288.521 163.565" stroke="#263238" stroke-linecap="round" stroke-linejoin="round"/>
<path d="M222.237 151.285C222.237 151.285 248.554 152.884 273.755 159.184" stroke="#263238" stroke-linecap="round" stroke-linejoin="round"/>
<path d="M142.143 212.568C163.811 209.257 185.826 208.864 207.599 211.4" stroke="#263238" stroke-linecap="round" stroke-linejoin="round"/>
<path d="M139.421 209.064C139.421 209.064 154.997 207.115 160.062 206.729" stroke="#263238" stroke-linecap="round" stroke-linejoin="round"/>
<path d="M243.734 64.5986C245.966 64.9185 248.197 65.3425 250.221 65.8259" stroke="#263238" stroke-linecap="round" stroke-linejoin="round"/>
<path d="M211.668 63.8625C220.833 63.2151 230.034 63.2773 239.19 64.0484" stroke="#263238" stroke-linecap="round" stroke-linejoin="round"/>
<path d="M91.6582 153.969C91.6582 153.969 113.884 143.444 146.039 140.521" stroke="#263238" stroke-linecap="round" stroke-linejoin="round"/>
<path d="M129.089 134.667C129.089 134.667 142.545 131.164 163.015 129.989" stroke="#263238" stroke-linecap="round" stroke-linejoin="round"/>
<path d="M91.2949 208.982C93.996 213.82 98.3549 217.519 103.568 219.396" stroke="#263238" stroke-linecap="round" stroke-linejoin="round"/>
<path d="M90.5508 212.33C90.5508 212.33 93.898 217.537 98.3609 219.768" stroke="#263238" stroke-linecap="round" stroke-linejoin="round"/>
<path d="M200.265 193.734C200.265 193.734 202.496 204.148 211.422 208.611" stroke="#263238" stroke-linecap="round" stroke-linejoin="round"/>
<path d="M201.381 203.032C203.15 205.623 205.593 207.681 208.447 208.983" stroke="#263238" stroke-linecap="round" stroke-linejoin="round"/>
<path d="M54.2227 223.085C54.2227 223.085 56.4541 226.805 64.2643 226.805" stroke="#263238" stroke-linecap="round" stroke-linejoin="round"/>
<path d="M52.7334 225.317C55.5788 227.684 59.0861 229.113 62.775 229.408" stroke="#263238" stroke-linecap="round" stroke-linejoin="round"/>
<path d="M153.285 216.139C133.53 217.213 113.92 220.147 94.7158 224.901L95.177 225.593C95.177 225.593 111.541 222.119 141.785 229.557C172.029 236.995 174.022 242.946 207.242 242.946C240.461 242.946 272.698 235.017 272.698 235.017L268.667 232.785C238.839 220.163 197.959 213.639 153.285 216.139Z" fill="#A24713"/>
<path opacity="0.5" d="M153.285 216.139C133.53 217.213 113.92 220.147 94.7158 224.901L95.177 225.593C95.177 225.593 111.541 222.119 141.785 229.557C172.029 236.995 174.022 242.946 207.242 242.946C240.461 242.946 272.698 235.017 272.698 235.017L268.667 232.785C238.839 220.163 197.959 213.639 153.285 216.139Z" fill="white"/>
<path d="M80.5088 233.158C80.5088 233.158 119.56 227.207 153.404 249.894" stroke="#263238" stroke-linecap="round" stroke-linejoin="round"/>
<path d="M121.419 241.711C121.419 241.711 137.411 246.546 147.081 256.96" stroke="#263238" stroke-linecap="round" stroke-linejoin="round"/>
<path d="M215.885 222.744C215.885 222.744 238.571 224.975 259.027 237.248" stroke="#263238" stroke-linecap="round" stroke-linejoin="round"/>
<path d="M286.623 241.964C290.708 244.464 294.597 247.272 298.256 250.362" stroke="#263238" stroke-linecap="round" stroke-linejoin="round"/>
<path d="M20.4902 259.512C47.6027 236.453 96.591 219.345 153.285 216.139C205.033 213.201 251.708 222.469 281.967 239.198" stroke="#263238" stroke-linecap="round" stroke-linejoin="round"/>
<path d="M185.761 222.372C185.761 222.372 209.191 223.488 224.812 228.695" stroke="#263238" stroke-linecap="round" stroke-linejoin="round"/>
<path d="M79.5261 45.7886C79.5261 45.7886 78.7823 35.5015 63.7198 35.1296C48.6573 34.7577 52.6889 45.4241 48.6499 47.9978C44.6109 50.5714 43.5026 46.5101 39.4562 49.0986C35.4098 51.6872 37.2248 56.8196 33.9445 57.5559C30.6642 58.2923 26.2236 54.2459 22.1846 56.8121C18.1456 59.3783 18.1382 61.5875 16.301 61.5875C14.4637 61.5875 10.7892 60.0998 8.58748 61.5875C6.38576 63.0751 3.80469 64.8752 3.80469 64.8752H96.7828C96.7828 64.8752 97.8837 61.5652 93.8075 59.3634C89.7314 57.1617 87.9239 58.9915 86.4585 57.132C84.9932 55.2724 90.5496 50.5714 79.5261 45.7886Z" fill="#A24713"/>
<path d="M134.77 6.41745C134.77 6.41745 134.324 0.228826 125.264 0.00567822C116.204 -0.217469 118.629 6.20174 116.197 7.7489C113.764 9.29605 113.102 6.86374 110.67 8.4109C108.238 9.95806 109.346 13.0524 107.353 13.4912C105.359 13.9301 102.711 11.5052 100.279 13.0524C97.8465 14.5995 97.8465 15.9235 96.7382 15.9235C95.6299 15.9235 93.4208 15.0458 92.0968 15.9235C90.7727 16.8013 89.2256 17.917 89.2256 17.917H145.161C145.161 17.917 145.823 15.9235 143.391 14.5995C140.959 13.2755 139.858 14.3764 138.973 13.2755C138.087 12.1747 141.405 9.29606 134.77 6.41745Z" fill="#A24713"/>
<path opacity="0.7" d="M79.5261 45.7886C79.5261 45.7886 78.7823 35.5015 63.7198 35.1296C48.6573 34.7577 52.6889 45.4241 48.6499 47.9978C44.6109 50.5714 43.5026 46.5101 39.4562 49.0986C35.4098 51.6872 37.2248 56.8196 33.9445 57.5559C30.6642 58.2923 26.2236 54.2459 22.1846 56.8121C18.1456 59.3783 18.1382 61.5875 16.301 61.5875C14.4637 61.5875 10.7892 60.0998 8.58748 61.5875C6.38576 63.0751 3.80469 64.8752 3.80469 64.8752H96.7828C96.7828 64.8752 97.8837 61.5652 93.8075 59.3634C89.7314 57.1617 87.9239 58.9915 86.4585 57.132C84.9932 55.2724 90.5496 50.5714 79.5261 45.7886Z" fill="white"/>
<path opacity="0.8" d="M134.77 6.41745C134.77 6.41745 134.324 0.228826 125.264 0.00567822C116.204 -0.217469 118.629 6.20174 116.197 7.7489C113.764 9.29605 113.102 6.86374 110.67 8.4109C108.238 9.95806 109.346 13.0524 107.353 13.4912C105.359 13.9301 102.711 11.5052 100.279 13.0524C97.8465 14.5995 97.8465 15.9235 96.7382 15.9235C95.6299 15.9235 93.4208 15.0458 92.0968 15.9235C90.7727 16.8013 89.2256 17.917 89.2256 17.917H145.161C145.161 17.917 145.823 15.9235 143.391 14.5995C140.959 13.2755 139.858 14.3764 138.973 13.2755C138.087 12.1747 141.405 9.29606 134.77 6.41745Z" fill="white"/>
</svg>
