<svg width="100%" height="100%" viewBox="0 0 551 468" fill="none" xmlns="http://www.w3.org/2000/svg">
<path d="M507.958 388.033C507.842 388.033 509.669 380.062 509.837 379.57C511.833 373.906 519.039 364.121 525.765 364.303C526.884 364.362 527.977 364.657 528.973 365.168C529.97 365.679 530.847 366.395 531.548 367.268C532.249 368.142 532.758 369.153 533.041 370.237C533.324 371.32 533.376 372.451 533.192 373.556C532.582 378.261 528.241 382.188 524.34 384.417C519.752 387.035 507.971 388.033 507.958 388.033Z" fill="#263238"/>
<path d="M508.71 355.606C508.593 355.606 511.6 347.986 511.846 347.532C514.685 342.219 523.277 333.639 529.9 334.844C530.995 335.073 532.03 335.531 532.937 336.186C533.844 336.842 534.603 337.681 535.164 338.649C535.725 339.618 536.076 340.693 536.194 341.806C536.312 342.919 536.194 344.044 535.848 345.109C534.552 349.684 529.641 352.885 525.48 354.505C520.517 356.41 508.723 355.606 508.71 355.606Z" fill="#263238"/>
<path d="M517.16 319.564C517.03 319.564 520.037 311.944 520.283 311.49C523.122 306.19 531.727 297.61 538.35 298.802C539.445 299.033 540.48 299.491 541.387 300.148C542.294 300.805 543.052 301.646 543.612 302.616C544.172 303.586 544.521 304.662 544.637 305.776C544.753 306.89 544.633 308.015 544.285 309.08C542.989 313.642 538.077 316.856 533.917 318.476C528.967 320.368 517.16 319.564 517.16 319.564Z" fill="#263238"/>
<path d="M523.472 285.194C523.342 285.194 526.349 277.574 526.595 277.107C529.433 271.806 538.039 263.227 544.661 264.432C545.757 264.661 546.792 265.118 547.699 265.774C548.606 266.43 549.365 267.269 549.926 268.237C550.487 269.205 550.838 270.281 550.956 271.394C551.074 272.507 550.956 273.632 550.61 274.696C549.314 279.271 544.389 282.473 540.242 284.093C535.278 285.985 523.472 285.194 523.472 285.194Z" fill="#263238"/>
<path d="M520.789 255.321C520.659 255.321 521.553 247.208 521.67 246.703C522.966 240.832 529.031 230.282 535.745 229.699C536.861 229.632 537.979 229.801 539.026 230.195C540.073 230.589 541.025 231.199 541.821 231.985C542.617 232.771 543.238 233.715 543.645 234.757C544.052 235.799 544.235 236.915 544.182 238.032C544.182 242.789 540.294 247.182 536.639 249.839C532.388 252.923 520.789 255.321 520.789 255.321Z" fill="#263238"/>
<path d="M504.692 387.151C504.809 387.151 503.513 379.09 503.396 378.598C501.776 372.804 495.232 362.566 488.505 362.307C487.385 362.294 486.275 362.518 485.248 362.963C484.22 363.408 483.298 364.064 482.541 364.89C481.784 365.715 481.21 366.691 480.855 367.753C480.5 368.815 480.374 369.94 480.483 371.055C480.781 375.798 484.863 379.997 488.609 382.473C492.989 385.389 504.679 387.151 504.692 387.151Z" fill="#263238"/>
<path d="M508.243 351.096C508.373 351.096 505.859 343.32 505.651 342.828C503.163 337.346 495.141 328.222 488.453 328.986C487.345 329.144 486.283 329.534 485.335 330.13C484.388 330.726 483.576 331.515 482.954 332.446C482.332 333.376 481.912 334.427 481.723 335.53C481.534 336.634 481.58 337.764 481.857 338.849C482.867 343.489 487.546 347.027 491.616 348.906C496.411 351.122 508.23 351.096 508.243 351.096Z" fill="#263238"/>
<path d="M516.279 317.115C516.395 317.115 513.894 309.339 513.687 308.859C511.211 303.377 503.189 294.253 496.502 295.018C495.394 295.175 494.331 295.563 493.383 296.157C492.435 296.752 491.623 297.539 491 298.468C490.376 299.398 489.955 300.448 489.765 301.55C489.574 302.653 489.617 303.783 489.892 304.868C490.916 309.52 495.581 313.045 499.664 314.938C504.446 317.141 516.266 317.115 516.279 317.115Z" fill="#263238"/>
<path d="M522.15 285.492C522.279 285.492 519.765 277.716 519.558 277.224C517.069 271.755 509.06 262.631 502.359 263.395C501.252 263.552 500.19 263.94 499.242 264.535C498.295 265.129 497.483 265.917 496.861 266.846C496.238 267.776 495.819 268.826 495.63 269.929C495.44 271.031 495.486 272.161 495.763 273.245C496.774 277.898 501.452 281.423 505.535 283.302C510.317 285.518 522.15 285.492 522.15 285.492Z" fill="#263238"/>
<path d="M520.543 256.293C520.672 256.293 517.328 248.815 517.056 248.362C513.985 243.177 505.016 235 498.446 236.503C497.361 236.781 496.348 237.284 495.471 237.98C494.595 238.676 493.875 239.549 493.359 240.542C492.842 241.535 492.542 242.626 492.476 243.744C492.41 244.861 492.581 245.98 492.976 247.027C494.493 251.524 499.521 254.531 503.785 255.943C508.788 257.615 520.543 256.293 520.543 256.293Z" fill="#263238"/>
<path d="M513.466 230.451C513.57 230.451 514.05 222.325 514.024 221.806C513.674 215.793 509.488 204.388 502.969 202.69C501.878 202.438 500.747 202.419 499.649 202.633C498.551 202.847 497.51 203.29 496.595 203.934C495.679 204.577 494.909 205.405 494.335 206.365C493.76 207.326 493.395 208.396 493.262 209.507C492.536 214.212 495.62 219.188 498.744 222.467C502.411 226.2 513.453 230.438 513.466 230.451Z" fill="#263238"/>
<path d="M506.896 431.579C506.896 431.579 506.468 428.144 505.95 422.182C505.431 416.221 504.835 407.693 504.563 397.442C504.42 392.258 504.368 386.762 504.472 380.879C504.472 377.924 504.628 374.969 504.744 371.807C504.848 370.277 504.965 368.735 505.068 367.167C505.172 365.599 505.431 363.992 505.6 362.385C506.487 355.842 507.729 349.352 509.319 342.944C510.913 336.399 512.728 329.829 514.503 323.271C516.279 316.713 518.028 310.155 519.402 303.636C520.8 297.271 521.739 290.813 522.214 284.313C522.548 278.228 522.34 272.126 521.592 266.078C520.979 260.597 520.039 255.157 518.78 249.787C517.64 244.823 516.305 240.339 515.086 236.386C513.868 232.434 512.611 229.038 511.574 226.252C509.462 220.679 508.023 217.594 508.023 217.594C508.023 217.594 509.526 220.653 511.756 226.174C512.87 228.934 514.153 232.317 515.501 236.244C516.849 240.171 518.249 244.642 519.493 249.606C520.892 254.938 521.978 260.347 522.746 265.806C523.638 271.915 523.985 278.091 523.783 284.261C523.436 290.85 522.626 297.407 521.359 303.883C520.063 310.492 518.508 317.128 516.862 323.738C515.216 330.347 513.492 336.97 512.054 343.45C510.625 349.788 509.543 356.2 508.814 362.657C508.684 364.225 508.451 365.715 508.399 367.296C508.347 368.878 508.243 370.42 508.166 371.949C508.166 374.904 508.075 377.963 508.101 380.853C508.101 386.672 508.295 392.167 508.554 397.234C509.034 407.382 509.85 415.819 510.46 421.703C511.069 427.587 511.587 430.905 511.587 430.905C511.632 431.212 511.616 431.525 511.54 431.826C511.465 432.127 511.33 432.41 511.145 432.659C510.959 432.908 510.727 433.119 510.46 433.278C510.194 433.437 509.898 433.542 509.591 433.587C509.284 433.632 508.971 433.617 508.67 433.541C508.369 433.465 508.086 433.33 507.837 433.145C507.587 432.96 507.377 432.727 507.218 432.461C507.059 432.194 506.954 431.899 506.909 431.591V431.579H506.896Z" fill="#263238"/>
<path d="M492.484 418.191H524.793V424.878H521.981L516.149 461.374H501.141L495.296 424.878H492.484V418.191Z" fill="#263238" stroke="#263238" stroke-linecap="round" stroke-linejoin="round"/>
<path d="M279.588 442.595C279.588 442.595 278.474 449.165 279.29 450.643C280.107 452.12 281.416 454.064 281.416 454.064H291.706L292.263 450.889C293.682 452.464 295.424 453.715 297.37 454.557C300.104 455.529 302.748 454.557 305.949 454.803C308.658 455.01 315.021 454.803 315.021 454.803L314.84 451.369L296.268 443.048L289.619 437.864C289.619 437.864 283.787 443.126 279.588 442.595Z" fill="#263238" stroke="#263238" stroke-linecap="round" stroke-linejoin="round"/>
<path d="M202.942 442.595C202.942 442.595 204.705 447.947 204.057 449.412C203.409 450.876 202.346 454.064 202.346 454.064H192.069L191.162 450.889C189.91 452.471 188.297 453.729 186.457 454.557C183.865 455.529 181.066 454.557 177.903 454.803C175.221 455.01 168.831 454.803 168.831 454.803L168.65 451.369L186.314 443.048L193.326 439.16C193.326 439.16 198.795 443.126 202.942 442.595Z" fill="#263238" stroke="#263238" stroke-linecap="round" stroke-linejoin="round"/>
<path d="M285.135 189.924C285.135 189.924 289.386 244.953 290.864 271.262C292.341 297.571 293.028 309.507 293.196 328.027C293.365 346.547 294.181 383.147 294.181 396.897C294.196 410.935 293.282 424.958 291.447 438.875L279.018 445.498C279.018 445.498 275 410.194 273.38 397.545C271.916 386.102 266.563 339.536 264.14 325.137C261.716 310.739 250.674 260.674 250.674 260.674C250.674 260.674 235.939 313.201 232.128 334.183C228.318 355.166 213.984 402.483 210.913 413.992C207.841 425.5 202.942 442.569 202.942 442.569C201.215 443.075 199.401 443.217 197.616 442.983C196.815 442.92 196.041 442.662 195.363 442.23C194.685 441.799 194.124 441.207 193.728 440.508C193.728 440.508 197.344 406.06 198.834 389.316C200.687 368.58 201.27 341.052 203.525 329.531C205.781 318.009 205.703 295.938 208.321 281.125C209.811 272.714 217.393 192.244 217.393 192.244C217.393 192.244 259.435 209.261 285.135 189.924Z" fill="#263238" stroke="#263238" stroke-linecap="round" stroke-linejoin="round"/>
<path d="M291.447 438.875L281.766 446.729" stroke="white" stroke-width="0.5" stroke-linecap="round" stroke-linejoin="round"/>
<path d="M193.339 439.134L201.024 445.031" stroke="white" stroke-width="0.5" stroke-linecap="round" stroke-linejoin="round"/>
<path d="M257.025 208.444L256.247 240.534L261.69 235.103" stroke="white" stroke-width="0.5" stroke-linecap="round" stroke-linejoin="round"/>
<path d="M253.629 259.741L269.091 240.508" stroke="white" stroke-width="0.5" stroke-linecap="round" stroke-linejoin="round"/>
<path d="M273.38 241.907L260.485 254.556" stroke="white" stroke-width="0.5" stroke-linecap="round" stroke-linejoin="round"/>
<path d="M244.428 243.32C240.439 234.489 233.621 227.238 225.052 222.713" stroke="white" stroke-width="0.5" stroke-linecap="round" stroke-linejoin="round"/>
<path d="M264.088 199.761L263.349 203.52L257.336 204.919L258.023 200.241" stroke="white" stroke-width="0.5" stroke-linecap="round" stroke-linejoin="round"/>
<path d="M257.336 204.919C257.336 204.919 246.073 204.453 240.358 202.574L241.563 198.828" stroke="white" stroke-width="0.5" stroke-linecap="round" stroke-linejoin="round"/>
<path d="M236.353 197.895L235.213 202.573C235.213 202.573 226.283 202.107 224.845 200.707" stroke="white" stroke-width="0.5" stroke-linecap="round" stroke-linejoin="round"/>
<path d="M263.349 203.481C266.415 203.39 269.418 202.592 272.123 201.148L276.206 198.802L274.625 195.523" stroke="white" stroke-width="0.5" stroke-linecap="round" stroke-linejoin="round"/>
<path d="M290.682 82.239C290.682 82.239 298.821 89.3022 301.258 93.9678C303.694 98.6335 335.68 163.849 335.55 168.307C335.42 172.765 330.69 181.267 322.344 181.267C313.997 181.267 282.362 130.438 282.362 130.438L290.682 82.239Z" fill="white"/>
<g style="mix-blend-mode:multiply" opacity="0.5">
<path d="M291.68 90.0668L292.224 90.3649C293.183 90.9222 295.335 92.1793 297.694 93.7475C300.359 95.792 302.788 98.1261 304.938 100.707C304.938 100.707 302.009 92.931 297.719 89.2115C295.334 87.1618 293.115 84.9256 291.084 82.524L291.68 90.0668Z" fill="#CA5818"/>
</g>
<path d="M290.682 82.239C290.682 82.239 298.821 89.3022 301.258 93.9678C303.694 98.6335 335.68 163.849 335.55 168.307C335.42 172.765 330.69 181.267 322.344 181.267C313.997 181.267 282.362 130.438 282.362 130.438L290.682 82.239Z" stroke="#263238" stroke-linecap="round" stroke-linejoin="round"/>
<path opacity="0.5" d="M311.068 150.435C309.993 149.139 301.996 136.27 301.18 131.461C300.363 126.653 302.476 120.497 302.476 117.283C302.476 114.069 297.395 122.895 297.123 121.832C296.851 120.769 293.65 109.261 293.65 109.261L283.839 121.949L282.375 130.463C282.375 130.463 294.765 150.357 306.092 165.248C314.153 162.656 326.322 158.704 328.94 157.122C332.997 154.725 312.144 151.783 311.068 150.435Z" fill="#CA5818"/>
<path d="M251.607 73.4261L290.734 82.2389C290.734 82.2389 293.456 102.288 293.145 113.123C292.834 123.957 284.772 190.961 284.772 190.961C284.772 190.961 264.036 212.112 217.484 192.257C217.484 192.257 215.864 189.134 215.254 165.78C214.671 142.75 197.356 99.9813 198.743 95.1083C201.594 85.1161 235.835 75.5126 240.332 75.2405C244.126 74.8798 247.892 74.2738 251.607 73.4261Z" fill="white" stroke="#263238" stroke-linecap="round" stroke-linejoin="round"/>
<g style="mix-blend-mode:multiply" opacity="0.5">
<path d="M255.146 190.845L219.311 176.796L225.506 108.729L266.265 127.807L290.695 116.816L273.225 187.851L255.146 190.845Z" fill="#CA5818"/>
</g>
<g style="mix-blend-mode:multiply" opacity="0.5">
<path d="M265.747 85.1809C267.419 85.1809 282.88 88.2783 291.667 90.0668C291.162 85.479 290.721 82.2908 290.721 82.2908L251.594 73.4779C247.879 74.33 244.113 74.9404 240.319 75.3053C235.822 75.5774 201.581 85.1809 198.73 95.1731C198.277 96.7931 199.858 102.547 202.203 110.362C205.625 101.537 208.684 94.2659 209.733 93.2421C212.092 90.8833 235.654 84.7661 235.654 84.7661L265.747 85.1809Z" fill="#CA5818"/>
</g>
<path d="M262.235 93.4365L256.856 105.463L268.65 188.797L260.006 200.461L251.802 190.948L254.096 106.526L243.235 93.8512L250.182 80.7097L262.235 93.4365Z" fill="#263238"/>
<path d="M303.901 120.368L272.551 137.76L232.232 116.661L225.843 176.213L265.773 195.458L296.009 177.262L303.901 120.368Z" fill="#CA5818" stroke="#263238" stroke-linecap="round" stroke-linejoin="round"/>
<path d="M271.359 151.135L272.551 141.57" stroke="#263238" stroke-width="0.5" stroke-linecap="round" stroke-linejoin="round"/>
<path d="M265.773 195.458L270.698 156.384" stroke="#263238" stroke-width="0.5" stroke-linecap="round" stroke-linejoin="round"/>
<path d="M255.249 70.0823C255.249 70.0823 262.312 70.0823 265.384 74.748C268.456 79.4136 274.352 97.8559 274.352 97.8559L253.098 91.8812L240.216 105.191C240.216 105.191 228.409 87.6951 233.217 76.5883C238.025 65.4815 255.249 70.0823 255.249 70.0823Z" fill="white" stroke="#263238" stroke-linecap="round" stroke-linejoin="round"/>
<g style="mix-blend-mode:multiply" opacity="0.5">
<path d="M267.535 79.0637C266.927 77.5735 266.208 76.1308 265.384 74.748C262.312 70.0176 255.249 70.0824 255.249 70.0824C255.249 70.0824 238.051 65.4816 233.217 76.5624C231.662 80.1524 231.921 84.4162 232.815 88.5376C233.658 86.3343 235.563 81.9149 237.999 79.4655C241.291 76.1736 241.68 79.0378 241.68 79.0378L260.109 77.5733C262.55 78.2282 265.031 78.726 267.535 79.0637Z" fill="#CA5818"/>
</g>
<path d="M258.282 59.3514C258.282 59.3514 259.474 83.8719 256.377 88.706C253.279 93.5402 249.754 91.6869 247.175 88.706C244.596 85.7252 241.68 79.0637 241.68 79.0637L238.531 60.9196C238.531 60.9196 256.882 64.3022 258.282 59.3514Z" fill="white" stroke="#263238" stroke-linecap="round" stroke-linejoin="round"/>
<g style="mix-blend-mode:multiply" opacity="0.5">
<path d="M251.633 79.0637C254.303 78.299 256.673 76.7338 258.424 74.5795C258.424 73.1928 258.424 71.819 258.424 70.4841C255.405 67.0238 248.471 60.4919 240.747 62.5914C240.086 62.7729 239.451 62.9802 238.868 63.1876L241.667 79.0637C241.667 79.0637 244.596 85.7771 247.162 88.706L244.57 77.1327C245.474 78.0461 246.603 78.7055 247.843 79.0445C249.083 79.3835 250.39 79.3901 251.633 79.0637Z" fill="#CA5818"/>
</g>
<path d="M269.091 37.0471C269.091 37.0471 272.642 36.7879 272.719 42.7106C272.797 48.6334 269.311 53.6101 266.913 51.5494C264.516 49.4888 268.43 34.3514 269.091 37.0471Z" fill="white" stroke="#263238" stroke-linecap="round" stroke-linejoin="round"/>
<path d="M244.713 6.38348C228.551 10.1937 224.223 20.6396 224.352 30.1005C224.352 33.7163 226.024 39.9761 228.24 46.5728L227.955 45.9766C227.955 45.9766 223.095 37.5007 222.382 42.594C221.67 47.6873 226.478 52.9621 228.072 54.6599C228.514 55.0674 229.085 55.3083 229.685 55.3414C230.286 55.3745 230.879 55.1977 231.364 54.8413C234.578 62.6174 238.168 69.577 240.514 71.4691C245.594 75.5775 252.735 77.69 258.412 72.7651C264.088 67.8403 269.7 39.7557 269.7 39.7557C271.048 11.3472 260.874 2.59913 244.713 6.38348Z" fill="white"/>
<g style="mix-blend-mode:multiply" opacity="0.5">
<path d="M236.107 36.2954C236.107 36.2954 241.745 31.5909 247.395 31.5909C253.046 31.5909 264.814 36.7749 266.213 40.9999C267.069 43.5919 266.058 51.9512 265.112 58.3016C267.834 49.3592 269.752 39.7946 269.752 39.7946C271.048 11.399 260.861 2.62502 244.713 6.43529C228.564 10.2456 224.223 20.6914 224.352 30.1523C224.352 33.7681 226.024 40.0279 228.24 46.6246L227.955 46.0284C227.955 46.0284 223.095 37.5525 222.382 42.6458C221.67 47.7391 226.478 53.0139 228.072 54.7117C228.514 55.1192 229.085 55.3601 229.685 55.3932C230.286 55.4263 230.879 55.2495 231.364 54.8931C234.578 62.6692 238.168 69.6287 240.514 71.5209C240.514 71.5209 235.109 59.3514 233.23 54.1803C231.351 49.0092 231.869 40.0149 236.107 36.2954Z" fill="#CA5818"/>
</g>
<path d="M244.713 6.38348C228.551 10.1937 224.223 20.6396 224.352 30.1005C224.352 33.7163 226.024 39.9761 228.24 46.5728L227.955 45.9766C227.955 45.9766 223.095 37.5007 222.382 42.594C221.67 47.6873 226.478 52.9621 228.072 54.6599C228.514 55.0674 229.085 55.3083 229.685 55.3414C230.286 55.3745 230.879 55.1977 231.364 54.8413C234.578 62.6174 238.168 69.5769 240.514 71.4691C245.594 75.5775 252.735 77.69 258.412 72.7651C264.088 67.8403 269.7 39.7557 269.7 39.7557C271.048 11.3472 260.874 2.59913 244.713 6.38348Z" stroke="#263238" stroke-linecap="round" stroke-linejoin="round"/>
<path d="M263.712 48.0243C262.903 49.2413 261.648 50.0917 260.218 50.3923C258.788 50.6929 257.296 50.4196 256.066 49.6313" stroke="#263238" stroke-linecap="round" stroke-linejoin="round"/>
<path d="M246.462 49.735C245.653 50.952 244.398 51.8025 242.968 52.1031C241.538 52.4037 240.047 52.1304 238.816 51.3421" stroke="#263238" stroke-linecap="round" stroke-linejoin="round"/>
<path d="M247.292 45.821C245.203 44.7728 242.942 44.1098 240.617 43.8641C237.533 43.7345 234.5 46.2487 234.5 46.2487" stroke="#263238" stroke-linecap="round" stroke-linejoin="round"/>
<path d="M254.731 58.9108C254.621 59.6983 254.206 60.4112 253.576 60.8961C252.946 61.3809 252.151 61.5987 251.361 61.5028C250.537 61.5278 249.722 61.3244 249.006 60.915C248.29 60.5056 247.701 59.9061 247.305 59.1829" stroke="#263238" stroke-linecap="round" stroke-linejoin="round"/>
<path d="M257.452 65.1705C257.452 65.1705 249.884 67.4255 245.024 65.4686C245.659 66.61 246.527 67.605 247.572 68.3888C248.617 69.1725 249.815 69.7275 251.089 70.0175C253.966 70.7822 257.452 65.1705 257.452 65.1705Z" fill="#263238"/>
<path d="M264.658 42.4125C264.658 42.4125 261.82 42.1663 259.137 42.1922C256.675 42.1922 254.225 45.3934 254.225 45.3934L253.357 49.2814" stroke="#263238" stroke-linecap="round" stroke-linejoin="round"/>
<path d="M241.304 28.4286C247.181 33.3505 253.604 37.5816 260.446 41.0388C271.592 46.6116 280.146 35.8547 274.923 30.567C269.7 25.2793 281.727 36.3731 283.619 29.7376C285.511 23.102 268.196 0.331086 250.804 0.00708306C233.411 -0.31692 229.199 10.5825 229.199 10.5825C229.199 10.5825 227.152 4.9708 225.609 8.06827C224.712 9.75404 224.199 11.6172 224.106 13.5245C224.106 13.5245 220.581 16.1165 219.026 17.6587C217.471 19.201 219.466 20.834 219.466 20.834C219.466 20.834 216.356 28.61 218.015 34.6106L226.944 47.5707C228.022 47.5358 229.076 47.2534 230.027 46.7455C230.978 46.2376 231.799 45.5178 232.426 44.6417C234.759 41.5831 233.049 32.0445 233.049 32.0445C233.049 32.0445 233.191 42.3089 235.926 40.0538C238.66 37.7987 234.63 27.7676 234.63 27.7676L241.304 28.4286Z" fill="#263238"/>
<path d="M233.541 17.8272C233.541 17.8272 241.499 23.8148 247.253 29.284C253.007 34.7531 261.781 36.8527 264.386 35.6474" stroke="white" stroke-width="0.5" stroke-miterlimit="10" stroke-linecap="round"/>
<path d="M258.126 25.357C258.126 25.357 246.721 22.765 244.039 17.8142C241.356 12.8635 233.049 13.4467 233.049 13.4467C235.124 11.533 237.656 10.1847 240.402 9.53113C243.148 8.87752 246.016 8.94056 248.73 9.71418" stroke="white" stroke-width="0.5" stroke-miterlimit="10" stroke-linecap="round"/>
<path d="M229.212 20.2767C229.212 20.2767 238.129 33.7163 232.504 37.8506" stroke="white" stroke-width="0.5" stroke-miterlimit="10" stroke-linecap="round"/>
<path d="M198.743 95.1213C198.743 95.1213 174.547 161.088 175.661 168.45C176.776 175.811 189.477 172.882 193.481 171.884C197.486 170.886 212.922 146.391 213.025 141.117C214.022 140.493 214.876 139.664 215.528 138.686C216.18 137.707 216.617 136.601 216.81 135.44C217.756 131.189 218.404 116 212.261 104.608" fill="white"/>
<g style="mix-blend-mode:multiply" opacity="0.5">
<path d="M198.743 95.1213C198.743 95.1213 174.547 161.088 175.661 168.45C176.283 172.48 180.379 173.413 184.604 173.284C187.559 164.95 188.712 149.722 190.928 142.179C193.378 133.742 201.361 111.905 206.221 100.422L198.743 95.1213Z" fill="#CA5818"/>
</g>
<path d="M198.743 95.1213C198.743 95.1213 174.547 161.088 175.661 168.45C176.776 175.811 189.477 172.882 193.481 171.884C197.486 170.886 212.922 146.391 213.025 141.117C214.022 140.493 214.876 139.664 215.528 138.686C216.18 137.707 216.617 136.601 216.81 135.44C217.756 131.189 218.404 116 212.261 104.608" stroke="#263238" stroke-linecap="round" stroke-linejoin="round"/>
<path d="M217.03 162.423C217.03 162.423 185.926 160.531 181.934 160.207C177.942 159.883 173.16 165.391 176.918 173.011C180.677 180.632 186.651 181.073 193.987 179.686C201.322 178.299 217.522 168.411 217.522 168.411L217.03 162.423Z" fill="white"/>
<path opacity="0.5" d="M217.03 162.423C217.03 162.423 185.926 160.531 181.934 160.207C177.942 159.883 173.16 165.391 176.918 173.011C180.677 180.632 186.651 181.073 193.987 179.686C201.322 178.299 217.522 168.411 217.522 168.411L217.03 162.423Z" fill="#CA5818" stroke="#263238" stroke-linecap="round" stroke-linejoin="round"/>
<path d="M217.03 162.423C217.03 162.423 185.926 160.531 181.934 160.207C177.942 159.883 173.16 165.391 176.918 173.011C180.677 180.632 186.651 181.073 193.987 179.686C201.322 178.299 217.522 168.411 217.522 168.411L217.03 162.423Z" stroke="#263238" stroke-linecap="round" stroke-linejoin="round"/>
<path d="M221.994 154.841C221.994 154.841 226.011 150.578 227.074 150.668C228.137 150.759 235.939 150.331 236.6 152.159C237.261 153.986 236.211 153.183 235.135 153.792C234.059 154.401 228.72 155.088 228.72 155.088C228.72 155.088 233.321 155.464 234.707 156.28C236.094 157.097 241.965 162.514 241.939 163.577C241.913 164.639 241.2 164.873 239.775 164.873C238.349 164.873 239.399 165.896 239.01 166.92C238.621 167.944 235.809 167.724 235.809 167.724C235.809 167.724 236.055 171.275 233.93 171.093C231.804 170.912 227.994 168.139 227.994 168.139C227.994 168.139 220.127 171.016 217.302 170.795C215.446 170.712 213.602 171.128 211.962 172.001C214.338 165.768 217.728 159.97 221.994 154.841Z" fill="white"/>
<g style="mix-blend-mode:multiply" opacity="0.5">
<path d="M221.994 154.841C217.739 159.934 214.35 165.692 211.962 171.884C213.602 171.011 215.446 170.595 217.302 170.679C218.231 170.694 219.158 170.594 220.063 170.381C220.626 167.902 220.96 165.377 221.06 162.838C221.06 159.066 227.074 150.668 227.074 150.668C225.998 150.578 221.994 154.841 221.994 154.841Z" fill="#CA5818"/>
</g>
<path d="M221.994 154.841C221.994 154.841 226.011 150.578 227.074 150.668C228.137 150.759 235.939 150.331 236.6 152.159C237.261 153.986 236.211 153.183 235.135 153.792C234.059 154.401 228.72 155.088 228.72 155.088C228.72 155.088 233.321 155.464 234.707 156.28C236.094 157.097 241.965 162.514 241.939 163.577C241.913 164.639 241.2 164.873 239.775 164.873C238.349 164.873 239.399 165.896 239.01 166.92C238.621 167.944 235.809 167.724 235.809 167.724C235.809 167.724 236.055 171.275 233.93 171.093C231.804 170.912 227.994 168.139 227.994 168.139C227.994 168.139 220.127 171.016 217.302 170.795C215.446 170.712 213.602 171.128 211.962 172.001C214.338 165.768 217.728 159.97 221.994 154.841Z" stroke="#263238" stroke-linecap="round" stroke-linejoin="round"/>
<path d="M239.775 164.756L232.841 159.248L227.191 158.431" stroke="#263238" stroke-linecap="round" stroke-linejoin="round"/>
<path d="M235.796 167.607L228.111 163.447L224.586 162.812" stroke="#263238" stroke-linecap="round" stroke-linejoin="round"/>
<path d="M307.167 149.593C307.167 149.593 303.15 145.342 302.087 145.419C301.024 145.497 293.222 145.095 292.561 146.91C291.9 148.724 292.95 147.934 294.026 148.556C296.122 149.162 298.269 149.574 300.441 149.787C300.441 149.787 295.84 150.163 294.453 150.992C293.067 151.822 287.196 157.226 287.222 158.276C287.248 159.326 287.96 159.572 289.386 159.572C290.812 159.572 289.762 160.596 290.151 161.62C290.54 162.643 293.352 162.41 293.352 162.41C293.352 162.41 293.106 165.961 295.231 165.793C297.357 165.624 301.167 162.838 301.167 162.838C301.167 162.838 309.034 165.715 311.859 165.43C313.716 165.344 315.562 165.765 317.198 166.648C314.813 160.451 311.424 154.689 307.167 149.593Z" fill="white" stroke="#263238" stroke-linecap="round" stroke-linejoin="round"/>
<path d="M289.386 159.507L296.307 154.012L301.958 153.196" stroke="#263238" stroke-linecap="round" stroke-linejoin="round"/>
<path d="M293.352 162.358L301.037 158.211L304.562 157.563" stroke="#263238" stroke-linecap="round" stroke-linejoin="round"/>
<path d="M311.794 156.047C311.794 156.047 325.13 154.517 329.705 157.952C334.28 161.386 333.515 170.134 333.515 170.134" stroke="#263238" stroke-linecap="round" stroke-linejoin="round"/>
<path d="M206.441 438.059C206.441 438.059 207.867 435.22 212.416 435.79C216.965 436.361 219.816 441.765 216.68 443.463C213.544 445.161 206.441 438.059 206.441 438.059Z" fill="#CA5818" stroke="#263238" stroke-linecap="round" stroke-linejoin="round"/>
<path d="M213.168 306.073C213.168 306.073 223.873 308.224 229.018 311.646C234.163 315.067 235.006 315.923 236.289 322.778C237.572 329.634 232.867 348.038 232.867 357.46C232.867 366.882 226.011 424.256 226.011 428.986C226.011 433.717 230.729 443.541 230.301 446.962C230.119 449.422 230.41 451.895 231.156 454.246C231.156 454.246 234.15 456.384 230.301 456.838C226.452 457.291 226.011 457.693 222.59 455.982C219.168 454.272 217.406 445.705 214.451 443.139C211.496 440.573 209.746 437.579 209.746 435.428C209.746 433.276 216.589 425.163 216.589 425.163C216.589 425.163 215.734 413.175 215.293 402.898C214.853 392.62 210.109 369.927 210.109 360.129C210.109 350.332 216.589 327.159 216.589 327.159C216.589 327.159 199.961 329.194 193.481 324.917C187.001 320.64 194.337 301.796 213.168 306.073Z" fill="white" stroke="#263238" stroke-linecap="round" stroke-linejoin="round"/>
<path d="M214.451 443.087C214.451 443.087 206.675 436.413 206.441 438.11C206.208 439.808 206.156 453.196 206.727 454.609C207.297 456.021 222.655 457.46 230.625 458.885C238.595 460.311 235.459 455.179 233.748 454.038C232.038 452.898 214.451 443.087 214.451 443.087Z" fill="#CA5818" stroke="#263238" stroke-linecap="round" stroke-linejoin="round"/>
<path opacity="0.2" d="M214.451 443.087C214.451 443.087 206.675 436.413 206.441 438.11C206.208 439.808 206.156 453.196 206.727 454.609C207.297 456.021 222.655 457.46 230.625 458.885C238.595 460.311 235.459 455.179 233.748 454.038C232.038 452.898 214.451 443.087 214.451 443.087Z" fill="black"/>
<path d="M216.68 450.63C218.237 448.764 220.057 447.136 222.084 445.796C224.492 444.086 227.194 442.834 230.055 442.102L233.748 449.204C231.201 449.805 228.725 450.674 226.361 451.796C224.567 452.883 222.939 454.223 221.527 455.775C221.527 455.775 217.25 452.911 216.68 450.63Z" fill="#263238" stroke="#263238" stroke-linecap="round" stroke-linejoin="round"/>
<path d="M224.365 442.672C224.006 442.718 223.659 442.836 223.347 443.02C223.035 443.203 222.764 443.449 222.55 443.742C222.337 444.034 222.185 444.367 222.105 444.721C222.025 445.074 222.018 445.44 222.084 445.796C222.369 448.647 222.655 457.745 223.795 458.03C224.936 458.315 239.153 460.622 244.272 460.868C249.391 461.115 255.081 461.154 255.081 458.6C255.081 456.047 254.225 454.907 253.098 454.907C251.97 454.907 249.391 454.051 245.983 452.069C242.574 450.086 234.319 442.4 231.727 442.115C229.135 441.83 225.791 440.106 224.365 442.672Z" fill="#CA5818" stroke="#263238" stroke-linecap="round" stroke-linejoin="round"/>
<path opacity="0.2" d="M224.365 442.672C224.006 442.718 223.659 442.836 223.347 443.02C223.035 443.203 222.764 443.449 222.55 443.742C222.337 444.034 222.185 444.367 222.105 444.721C222.025 445.074 222.018 445.44 222.084 445.796C222.369 448.647 222.655 457.745 223.795 458.03C224.936 458.315 239.153 460.622 244.272 460.868C249.391 461.115 255.081 461.154 255.081 458.6C255.081 456.047 254.225 454.907 253.098 454.907C251.97 454.907 249.391 454.051 245.983 452.069C242.574 450.086 234.319 442.4 231.727 442.115C229.135 441.83 225.791 440.106 224.365 442.672Z" fill="black"/>
<path d="M105.106 454.907C105.106 453.625 104.726 452.372 104.014 451.307C103.302 450.241 102.29 449.41 101.106 448.92C99.9221 448.429 98.6192 448.301 97.3622 448.551C96.1052 448.801 94.9506 449.418 94.0443 450.325C93.1381 451.231 92.5209 452.385 92.2709 453.642C92.0208 454.899 92.1491 456.202 92.6396 457.387C93.1301 458.571 93.9606 459.583 95.0263 460.295C96.0919 461.007 97.3448 461.387 98.6264 461.387C100.345 461.387 101.993 460.704 103.208 459.489C104.424 458.274 105.106 456.625 105.106 454.907Z" fill="#263238" stroke="#263238" stroke-linecap="round" stroke-linejoin="round"/>
<path d="M98.6264 458.134C100.416 458.134 101.866 456.683 101.866 454.894C101.866 453.104 100.416 451.654 98.6264 451.654C96.837 451.654 95.3864 453.104 95.3864 454.894C95.3864 456.683 96.837 458.134 98.6264 458.134Z" fill="white" stroke="#263238" stroke-linecap="round" stroke-linejoin="round"/>
<path d="M174.547 454.907C174.547 453.625 174.167 452.372 173.455 451.307C172.743 450.241 171.731 449.41 170.546 448.92C169.362 448.429 168.059 448.301 166.802 448.551C165.545 448.801 164.391 449.418 163.485 450.325C162.578 451.231 161.961 452.385 161.711 453.642C161.461 454.899 161.589 456.202 162.08 457.387C162.57 458.571 163.401 459.583 164.467 460.295C165.532 461.007 166.785 461.387 168.067 461.387C169.785 461.387 171.433 460.704 172.649 459.489C173.864 458.274 174.547 456.625 174.547 454.907Z" fill="#263238" stroke="#263238" stroke-linecap="round" stroke-linejoin="round"/>
<path d="M171.307 454.907C171.307 454.266 171.117 453.639 170.761 453.107C170.405 452.574 169.899 452.158 169.307 451.913C168.714 451.668 168.063 451.604 167.435 451.729C166.806 451.854 166.229 452.162 165.776 452.616C165.322 453.069 165.014 453.646 164.889 454.275C164.764 454.903 164.828 455.554 165.073 456.147C165.318 456.739 165.734 457.245 166.267 457.601C166.799 457.957 167.426 458.147 168.067 458.147C168.926 458.147 169.75 457.805 170.358 457.198C170.965 456.59 171.307 455.766 171.307 454.907Z" fill="white" stroke="#263238" stroke-linecap="round" stroke-linejoin="round"/>
<path d="M197.24 454.907C197.24 453.625 196.86 452.372 196.148 451.307C195.436 450.241 194.424 449.41 193.24 448.92C192.056 448.429 190.753 448.301 189.496 448.551C188.239 448.801 187.084 449.418 186.178 450.325C185.271 451.231 184.654 452.385 184.404 453.642C184.154 454.899 184.283 456.202 184.773 457.387C185.263 458.571 186.094 459.583 187.16 460.295C188.225 461.007 189.478 461.387 190.76 461.387C192.478 461.387 194.127 460.704 195.342 459.489C196.557 458.274 197.24 456.625 197.24 454.907Z" fill="#263238" stroke="#263238" stroke-linecap="round" stroke-linejoin="round"/>
<path d="M194 454.907C194.002 454.262 193.813 453.632 193.457 453.095C193.1 452.558 192.593 452.139 191.998 451.891C191.403 451.643 190.748 451.578 190.115 451.703C189.483 451.828 188.902 452.138 188.447 452.594C187.991 453.049 187.681 453.63 187.556 454.262C187.431 454.895 187.496 455.55 187.744 456.145C187.992 456.74 188.411 457.247 188.948 457.604C189.485 457.96 190.115 458.149 190.76 458.147C191.619 458.147 192.443 457.805 193.051 457.198C193.658 456.59 194 455.766 194 454.907Z" fill="white" stroke="#263238" stroke-linecap="round" stroke-linejoin="round"/>
<path d="M158.01 343.657H144.298V447.481H158.01V343.657Z" fill="#263238" stroke="#263238" stroke-linecap="round" stroke-linejoin="round"/>
<path d="M161.677 397.908H140.656V447.481H161.677V397.908Z" fill="#263238" stroke="#263238" stroke-linecap="round" stroke-linejoin="round"/>
<path d="M97.2915 445.524H194.142C195.517 445.524 196.836 446.07 197.808 447.042C198.78 448.014 199.326 449.333 199.326 450.708V451.395H92.1075V450.708C92.1075 449.333 92.6536 448.014 93.6258 447.042C94.598 446.07 95.9166 445.524 97.2915 445.524Z" fill="#263238" stroke="#263238" stroke-linecap="round" stroke-linejoin="round"/>
<path d="M137.157 303.507H119.531V331.915H137.157V303.507Z" fill="#263238" stroke="#263238" stroke-linecap="round" stroke-linejoin="round"/>
<path d="M208.256 327.988H94.0515C88.8049 327.988 84.5517 332.242 84.5517 337.488V340.041C84.5517 345.288 88.8049 349.541 94.0515 349.541H208.256C213.502 349.541 217.756 345.288 217.756 340.041V337.488C217.756 332.242 213.502 327.988 208.256 327.988Z" fill="#CA5818" stroke="#263238" stroke-linecap="round" stroke-linejoin="round"/>
<path opacity="0.1" d="M208.256 327.988H94.0515C88.8049 327.988 84.5517 332.242 84.5517 337.488V340.041C84.5517 345.288 88.8049 349.541 94.0515 349.541H208.256C213.502 349.541 217.756 345.288 217.756 340.041V337.488C217.756 332.242 213.502 327.988 208.256 327.988Z" fill="black"/>
<path d="M217.756 338.758C217.756 335.902 216.621 333.163 214.601 331.143C212.581 329.123 209.842 327.988 206.986 327.988H148.225C146.778 327.938 145.336 328.18 143.985 328.699C142.634 329.218 141.401 330.004 140.36 331.009C139.319 332.015 138.491 333.22 137.925 334.552C137.36 335.885 137.068 337.317 137.068 338.765C137.068 340.212 137.36 341.645 137.925 342.977C138.491 344.31 139.319 345.515 140.36 346.52C141.401 347.526 142.634 348.312 143.985 348.831C145.336 349.35 146.778 349.591 148.225 349.541H206.986C209.843 349.538 212.583 348.4 214.602 346.378C216.621 344.356 217.756 341.616 217.756 338.758Z" fill="#CA5818" stroke="#263238" stroke-miterlimit="10"/>
<path opacity="0.1" d="M217.756 339.095C217.756 337.681 217.477 336.28 216.936 334.974C216.395 333.667 215.601 332.48 214.601 331.48C213.601 330.48 212.414 329.686 211.107 329.145C209.801 328.604 208.4 328.325 206.986 328.325H148.225C146.778 328.275 145.336 328.517 143.985 329.036C142.634 329.555 141.401 330.34 140.36 331.346C139.319 332.352 138.491 333.557 137.925 334.889C137.36 336.222 137.068 337.654 137.068 339.102C137.068 340.549 137.36 341.982 137.925 343.314C138.491 344.647 139.319 345.852 140.36 346.857C141.401 347.863 142.634 348.649 143.985 349.168C145.336 349.687 146.778 349.928 148.225 349.878H206.986C208.401 349.878 209.803 349.599 211.11 349.057C212.418 348.515 213.606 347.72 214.606 346.719C215.606 345.718 216.399 344.529 216.94 343.221C217.48 341.912 217.757 340.511 217.756 339.095Z" fill="black"/>
<path d="M163.064 303.52H94.3755C92.7696 303.52 91.1798 303.199 89.7 302.575C88.2201 301.952 86.8802 301.038 85.7592 299.888C84.6383 298.738 83.759 297.375 83.1732 295.88C82.5874 294.385 82.307 292.787 82.3485 291.182L84.0463 224.217C84.1208 221.078 85.4211 218.093 87.669 215.901C89.9168 213.709 92.9335 212.484 96.0732 212.488H152.748C155.623 212.483 158.405 213.509 160.588 215.381C162.771 217.253 164.211 219.845 164.645 222.688L174.948 289.704C175.206 291.415 175.091 293.161 174.612 294.823C174.133 296.485 173.301 298.025 172.173 299.336C171.045 300.647 169.647 301.7 168.075 302.422C166.503 303.144 164.794 303.518 163.064 303.52Z" fill="#CA5818" stroke="#263238" stroke-linecap="round" stroke-linejoin="round"/>
<path opacity="0.1" d="M163.064 303.52H94.3755C92.7696 303.52 91.1798 303.199 89.7 302.575C88.2201 301.952 86.8802 301.038 85.7592 299.888C84.6383 298.738 83.759 297.375 83.1732 295.88C82.5874 294.385 82.307 292.787 82.3485 291.182L84.0463 224.217C84.1208 221.078 85.4211 218.093 87.669 215.901C89.9168 213.709 92.9335 212.484 96.0732 212.488H152.748C155.623 212.483 158.405 213.509 160.588 215.381C162.771 217.253 164.211 219.845 164.645 222.688L174.948 289.704C175.206 291.415 175.091 293.161 174.612 294.823C174.133 296.485 173.301 298.025 172.173 299.336C171.045 300.647 169.647 301.7 168.075 302.422C166.503 303.144 164.794 303.518 163.064 303.52Z" fill="black"/>
<path d="M140.63 346.107L110.511 365.936" stroke="#263238" stroke-linecap="round" stroke-linejoin="round"/>
<path d="M109.37 362.89L104.186 366.376C103.78 366.653 103.441 367.016 103.192 367.44C102.943 367.863 102.79 368.337 102.746 368.826C102.701 369.315 102.765 369.808 102.934 370.27C103.102 370.731 103.37 371.15 103.72 371.496L104.16 371.91C104.743 372.483 105.517 372.82 106.333 372.856C107.149 372.892 107.949 372.624 108.58 372.105L113.323 368.217C113.675 367.925 113.963 367.564 114.169 367.156C114.375 366.748 114.495 366.302 114.521 365.846C114.546 365.39 114.477 364.933 114.318 364.505C114.159 364.076 113.913 363.685 113.595 363.357C113.058 362.794 112.341 362.439 111.568 362.354C110.795 362.269 110.017 362.458 109.37 362.89Z" fill="#263238" stroke="#263238" stroke-linecap="round" stroke-linejoin="round"/>
<path d="M145.335 445.524H175.052C176.427 445.524 177.746 446.07 178.718 447.042C179.69 448.014 180.236 449.333 180.236 450.708V451.395H145.335V445.524Z" fill="#263238" stroke="#263238" stroke-linecap="round" stroke-linejoin="round"/>
<path d="M169.129 269.007C174.991 269.007 179.744 266.303 179.744 262.968C179.744 259.632 174.991 256.928 169.129 256.928C163.267 256.928 158.515 259.632 158.515 262.968C158.515 266.303 163.267 269.007 169.129 269.007Z" fill="white" stroke="#263238" stroke-linecap="round" stroke-linejoin="round"/>
<path d="M198.665 312.501C198.665 312.501 215.786 313.356 219.648 322.351C220.443 325.431 220.878 328.593 220.944 331.773C220.944 336.477 236.781 427.25 237.209 428.974C237.636 430.697 247.058 443.955 248.341 446.949C249.625 449.943 250.934 452.522 250.934 452.522C250.934 452.522 254.822 454.233 254.368 455.516C253.914 456.799 244.946 457.227 241.097 457.227C237.248 457.227 232.958 447.818 230.392 446.949C227.826 446.081 224.819 443.061 224.819 441.389C224.819 439.718 226.115 427.263 226.115 427.263C224.473 417.103 221.6 407.18 217.561 397.714C211.833 384.663 204.705 365.599 203.849 356.617C202.994 347.636 202.994 339.056 202.994 339.056L192.185 337.333C192.185 337.333 190.889 315.067 198.665 312.501Z" fill="white" stroke="#263238" stroke-linecap="round" stroke-linejoin="round"/>
<path d="M233.463 451.2C233.463 451.2 236.885 437.268 245.698 442.672L249.391 448.919C249.391 448.919 241.149 448.919 238.583 456.89C237.329 456.432 236.207 455.674 235.315 454.682C234.423 453.69 233.787 452.495 233.463 451.2Z" fill="#263238" stroke="#263238" stroke-linecap="round" stroke-linejoin="round"/>
<path d="M163.233 286.503L162.818 286.568C158.93 270.731 153.681 254.543 153.681 254.543C153.681 254.543 127.929 261.348 113.077 256.734C113.077 256.734 105.521 293.942 105.521 303.662C105.521 311.438 103.914 319.344 109.798 323.906C110.367 324.744 111.098 325.459 111.949 326.008C112.799 326.558 113.751 326.932 114.749 327.107C130.806 330.127 158.476 329.077 163.09 329.997C167.704 330.917 192.185 337.333 192.185 337.333C192.185 337.333 193.65 323.828 197.797 315.067C201.944 306.306 220.879 307.797 220.879 307.797L163.233 286.503Z" fill="#263238" stroke="#263238" stroke-linecap="round" stroke-linejoin="round"/>
<path d="M157.284 182.745C157.284 182.745 153.733 178.286 149.897 183.198C146.06 188.11 149.106 205.166 150.998 211.983C152.89 218.8 184.85 247.079 187.857 249.178C190.863 251.278 230.042 260.129 233.463 258.509C236.885 256.889 237.87 248.686 235.926 244.253C233.982 239.821 197.369 230.412 197.369 230.412L157.284 182.745Z" fill="white"/>
<g style="mix-blend-mode:multiply" opacity="0.5">
<path d="M187.857 249.204C190.863 251.291 230.042 260.155 233.463 258.535C235.433 257.602 236.587 254.466 236.846 251.135C230.794 248.698 223.614 247.053 220.283 247.247C215.449 247.519 218.689 252.029 210.939 250.759C203.189 249.489 194.35 245.575 186.314 240.987C178.279 236.399 163.855 222.843 163.855 222.843L175.169 224.139L162.273 220.16L173.484 215.948L163.855 215.378C164.471 213.853 164.758 212.214 164.697 210.57C164.697 207.239 158.347 194.875 158.347 194.875L151.607 213.395C156.312 221.845 185.018 247.221 187.857 249.204Z" fill="#CA5818"/>
</g>
<path d="M157.284 182.745C157.284 182.745 153.733 178.286 149.897 183.198C146.06 188.11 149.106 205.166 150.998 211.983C152.89 218.8 184.85 247.079 187.857 249.178C190.863 251.278 230.042 260.129 233.463 258.509C236.885 256.889 237.87 248.686 235.926 244.253C233.982 239.821 197.369 230.412 197.369 230.412L157.284 182.745Z" stroke="#263238" stroke-linecap="round" stroke-linejoin="round"/>
<path d="M169.868 218.553L161.068 221.962L175.869 226.887" stroke="#263238" stroke-width="0.5" stroke-linecap="round" stroke-linejoin="round"/>
<path d="M233.554 244.214C232.423 244.446 231.388 245.015 230.586 245.845C229.783 246.675 229.25 247.729 229.057 248.867C228.292 252.923 232.284 256.384 232.284 256.384C232.284 256.384 240.695 259.274 243.209 252.496C245.724 245.718 237.623 243.955 233.554 244.214Z" fill="white"/>
<g style="mix-blend-mode:multiply" opacity="0.5">
<path d="M232.284 256.384C232.284 256.384 239.464 258.833 242.535 253.895C238.316 251.547 233.806 249.765 229.122 248.595C229.094 248.684 229.072 248.775 229.057 248.867C228.292 252.923 232.284 256.384 232.284 256.384Z" fill="#CA5818"/>
</g>
<path d="M233.554 244.214C232.423 244.446 231.388 245.015 230.586 245.845C229.783 246.675 229.25 247.729 229.057 248.867C228.292 252.923 232.284 256.384 232.284 256.384C232.284 256.384 240.695 259.274 243.209 252.496C245.724 245.718 237.623 243.955 233.554 244.214Z" stroke="#263238" stroke-linecap="round" stroke-linejoin="round"/>
<path d="M258.399 253.584C260.748 253.961 262.912 255.089 264.568 256.799C267.017 259.559 265.021 260.687 263.453 260.285C261.885 259.883 256.727 252.263 258.399 253.584Z" fill="white" stroke="#263238" stroke-linecap="round" stroke-linejoin="round"/>
<path d="M256.766 253.079C259.042 253.778 261.029 255.197 262.429 257.123C264.477 260.181 262.338 261.011 260.848 260.414C259.358 259.818 255.288 251.537 256.766 253.079Z" fill="white" stroke="#263238" stroke-linecap="round" stroke-linejoin="round"/>
<path d="M242.095 247.04C242.095 247.04 238.207 248.465 237.779 250.928C237.708 251.696 237.799 252.471 238.044 253.203C238.29 253.935 238.685 254.608 239.205 255.179C239.205 255.179 243.093 258.289 244.57 258.613C246.047 258.937 249.365 260.829 249.754 259.028C250.143 257.226 246.203 255.632 246.203 255.632C246.203 255.632 253.733 256.086 253.979 257.602C254.225 259.118 256.947 260.687 259.358 260.725C261.768 260.764 258.852 255.891 258.269 254.673C257.686 253.455 246.916 247.13 242.095 247.04Z" fill="white" stroke="#263238" stroke-linecap="round" stroke-linejoin="round"/>
<path d="M118.676 170.653C118.676 170.653 94.9846 184.429 93.1313 185.337C91.278 186.244 89.4377 200.5 89.4377 201.848C89.4377 203.196 113.129 256.734 113.129 256.734C113.129 256.734 118.961 261.672 136.029 261.672C153.098 261.672 154.42 259.08 154.42 259.08L155.78 236.49C155.78 236.49 161.612 221.223 162.066 218.527C162.52 215.832 157.284 182.745 157.284 182.745L133.048 166.583C133.048 166.583 123.173 160.777 118.676 170.653Z" fill="white"/>
<g style="mix-blend-mode:multiply" opacity="0.5">
<path d="M95.5419 195.134C97.3952 192.167 114.451 181.047 114.451 181.047L120.749 177.34L128.823 165.093C125.583 164.497 121.255 164.989 118.676 170.653C118.676 170.653 94.9327 184.429 93.1313 185.324C91.3298 186.218 89.4377 200.487 89.4377 201.835C89.4377 202.133 90.5522 204.88 92.2889 209.015C92.9628 202.885 94.2459 197.208 95.5419 195.134Z" fill="#CA5818"/>
</g>
<path d="M118.676 170.653C118.676 170.653 94.9846 184.429 93.1313 185.337C91.278 186.244 89.4377 200.5 89.4377 201.848C89.4377 203.196 113.129 256.734 113.129 256.734C113.129 256.734 118.961 261.672 136.029 261.672C153.098 261.672 154.42 259.08 154.42 259.08L155.78 236.49C155.78 236.49 161.612 221.223 162.066 218.527C162.52 215.832 157.284 182.745 157.284 182.745L133.048 166.583C133.048 166.583 123.173 160.777 118.676 170.653Z" stroke="#263238" stroke-linecap="round" stroke-linejoin="round"/>
<path d="M126.62 192.024L133.528 199.476L132.089 231.164L142.198 233.833L143.261 219.992L146.98 234.365L154.433 226.913L138.323 198.945L140.449 190.43L131.402 180.321L125.557 194.162" fill="#263238"/>
<path d="M126.62 192.024L133.528 199.476L132.089 231.164L142.198 233.833L143.261 219.992L146.98 234.365L154.433 226.913L138.323 198.945L140.449 190.43L131.402 180.321L125.557 194.162" stroke="#263238" stroke-linecap="round" stroke-linejoin="round"/>
<path d="M114.049 170.731C114.049 170.731 115.526 180.593 117.496 184.987C119.466 189.38 123.912 196.832 123.912 196.832L133.282 187.449L142.665 193.929C142.665 193.929 141.68 177.651 138.22 170.251C134.759 162.851 117.989 155.438 114.049 170.731Z" fill="white" stroke="#263238" stroke-linecap="round" stroke-linejoin="round"/>
<g style="mix-blend-mode:multiply" opacity="0.5">
<path d="M120.749 177.34L130.119 163.084C128.409 162.335 126.579 161.896 124.715 161.788C123.108 162.112 121.294 162.514 119.376 162.942C117.03 164.238 115.086 166.674 114.049 170.718C114.049 170.718 114.788 175.694 115.928 180.165L120.749 177.34Z" fill="#CA5818"/>
</g>
<path d="M137.235 167.763C135.966 170.557 135.295 173.585 135.265 176.653C135.265 181.578 136.25 187.021 136.25 189.484V196.884C136.25 196.884 130.327 189.484 125.881 184.054C121.436 178.623 117.989 173.685 118.481 169.253C118.974 164.821 123.419 147.532 123.419 147.532C125.767 147.511 128.074 148.146 130.081 149.367C132.087 150.588 133.712 152.345 134.772 154.44C138.712 161.84 137.235 167.763 137.235 167.763Z" fill="white" stroke="#263238" stroke-linecap="round" stroke-linejoin="round"/>
<g style="mix-blend-mode:multiply" opacity="0.5">
<path d="M121.864 159.183L120.386 159.896C119.479 163.784 118.676 167.503 118.481 169.253C118.002 173.53 121.203 178.325 125.415 183.509L125.946 173.31L137.235 167.802L128.162 158.846L121.864 159.183Z" fill="#CA5818"/>
</g>
<path d="M146.825 162.462C146.825 162.462 143.559 168.514 147.084 168.761C150.609 169.007 149.845 165.987 150.35 164.989C150.856 163.991 153.124 166.285 151.866 171.029C150.609 175.772 144.311 179.09 140.526 175.305C136.742 171.521 137.766 167.529 139.023 164.484C140.28 161.438 145.348 159.948 146.825 162.462Z" fill="#263238" stroke="#263238" stroke-linecap="round" stroke-linejoin="round"/>
<path d="M139.749 108.963C138.647 108.807 137.494 108.69 136.301 108.626C131.96 108.405 127.229 108.69 123.847 111.399C116.822 117.024 118.002 128.325 118.507 136.192C119.077 145.121 118.961 158.146 125.661 164.613C136.975 175.526 154.666 163.849 154.666 150.915C154.666 145.445 154.873 137.112 155.236 135.246C155.709 132.94 156.033 130.607 156.208 128.26C156.986 116.35 150.234 110.453 139.749 108.963Z" fill="white" stroke="#263238" stroke-linecap="round" stroke-linejoin="round"/>
<g style="mix-blend-mode:multiply" opacity="0.5">
<path d="M143.922 166.946C140.756 166.902 137.596 166.66 134.461 166.22C129.653 165.482 122.978 157.693 126.309 146.949C129.64 136.205 129.653 130.632 129.653 130.632L118.313 123.543C118.053 127.758 118.122 131.987 118.52 136.192C119.09 145.121 118.974 158.146 125.674 164.613C131.169 169.927 138.168 169.875 143.922 166.946Z" fill="#CA5818"/>
</g>
<path d="M137.494 143.437C138.202 143.437 138.777 142.45 138.777 141.233C138.777 140.017 138.202 139.03 137.494 139.03C136.785 139.03 136.211 140.017 136.211 141.233C136.211 142.45 136.785 143.437 137.494 143.437Z" fill="#263238"/>
<path d="M150.156 141.778C150.078 142.996 149.43 143.942 148.73 143.89C148.03 143.838 147.512 142.827 147.59 141.609C147.667 140.391 148.302 139.445 149.015 139.497C149.728 139.549 150.233 140.559 150.156 141.778Z" fill="#263238"/>
<path d="M133.515 135.959C133.515 135.959 136.107 130.489 140.267 133.068L133.515 135.959Z" fill="white"/>
<path d="M133.515 135.959C133.515 135.959 136.107 130.489 140.267 133.068" stroke="#263238" stroke-linecap="round" stroke-linejoin="round"/>
<path d="M147.019 134.028C147.019 134.028 150.091 130.502 151.841 136.283L147.019 134.028Z" fill="white"/>
<path d="M147.019 134.028C147.019 134.028 150.091 130.502 151.841 136.283" stroke="#263238" stroke-linecap="round" stroke-linejoin="round"/>
<path d="M145.024 145.614C145.024 145.834 145.024 146.054 145.024 146.249C145.348 148.504 146.955 150.137 146.32 151.07C145.685 152.003 142.432 152.366 142.432 152.366" fill="white"/>
<path d="M145.024 145.614C145.024 145.834 145.024 146.054 145.024 146.249C145.348 148.504 146.955 150.137 146.32 151.07C145.685 152.003 142.432 152.366 142.432 152.366" stroke="#263238" stroke-linecap="round" stroke-linejoin="round"/>
<path d="M141.226 157.511C141.226 157.511 135.563 159.261 133.45 154.686L141.226 157.511Z" fill="white"/>
<path d="M141.226 157.511C141.226 157.511 135.563 159.261 133.45 154.686" stroke="#263238" stroke-linecap="round" stroke-linejoin="round"/>
<path d="M136.392 146.625C140.071 146.625 143.054 143.642 143.054 139.963C143.054 136.284 140.071 133.302 136.392 133.302C132.713 133.302 129.731 136.284 129.731 139.963C129.731 143.642 132.713 146.625 136.392 146.625Z" stroke="#263238" stroke-width="0.5" stroke-linecap="round" stroke-linejoin="round"/>
<path d="M151.465 146.625C154.764 146.625 157.439 143.642 157.439 139.963C157.439 136.284 154.764 133.302 151.465 133.302C148.165 133.302 145.49 136.284 145.49 139.963C145.49 143.642 148.165 146.625 151.465 146.625Z" stroke="#263238" stroke-width="0.5" stroke-linecap="round" stroke-linejoin="round"/>
<path d="M129.731 139.963L120.218 140.365" stroke="#263238" stroke-width="0.5" stroke-linecap="round" stroke-linejoin="round"/>
<path d="M157.439 139.963H155.003" stroke="#263238" stroke-width="0.5" stroke-linecap="round" stroke-linejoin="round"/>
<path d="M143.041 137.928H145.801" stroke="#263238" stroke-width="0.5" stroke-linecap="round" stroke-linejoin="round"/>
<path d="M151.504 101.096C146.53 100.227 141.503 99.7077 136.457 99.5407C136.457 99.5407 127.631 95.3805 115.721 100.059C98.6782 106.721 99.0541 129.478 103.279 143.981C104.575 148.361 107.621 155.01 104.821 159.403C103.059 162.177 98.0173 160.699 98.7819 156.889C99.5466 153.079 100.791 154.375 101.802 153.869C102.813 153.364 101.296 152.859 99.0282 152.107C96.7601 151.355 94.7772 153.403 94.4921 158.392C93.7404 172.001 113.79 181.008 121.436 169.11C124.547 163.926 121.786 154.919 120.438 148.374C120.01 146.109 119.72 143.819 119.57 141.518C121.989 141.287 124.233 140.153 125.856 138.343C127.057 136.697 128.082 134.929 128.914 133.068C129.821 133.068 130.767 133.133 131.804 133.237C142.172 134.274 145.309 116.622 145.309 116.622C145.309 116.622 150.493 126.485 152.048 130.126L153.603 133.755C153.603 133.755 157.763 134.274 161.911 125.448C166.058 116.622 161.366 102.69 151.504 101.096Z" fill="#263238" stroke="#263238" stroke-linecap="round" stroke-linejoin="round"/>
<path d="M144.713 112.475C144.713 112.475 157.465 116.855 157.854 124.424C158.243 131.993 156.26 132.382 156.26 132.382" stroke="white" stroke-width="0.5" stroke-miterlimit="10" stroke-linecap="round"/>
<path d="M143.131 109.688C143.131 109.688 155.068 106.902 159.059 114.872" stroke="white" stroke-width="0.5" stroke-miterlimit="10" stroke-linecap="round"/>
<path d="M128.396 101.718C128.396 101.718 140.332 107.693 142.328 113.278C144.324 118.864 133.969 129.595 127.19 131.591C120.412 133.587 115.254 131.189 110.472 134.779C105.69 138.369 107.686 148.31 107.686 148.31" stroke="white" stroke-width="0.5" stroke-miterlimit="10" stroke-linecap="round"/>
<path d="M104.057 137.164C104.057 137.164 100.868 129.595 107.647 125.616C114.425 121.638 120.386 125.616 127.955 120.834C135.524 116.052 136.716 110.09 136.716 110.09" stroke="white" stroke-width="0.5" stroke-miterlimit="10" stroke-linecap="round"/>
<path d="M121.592 144.033C121.592 144.033 117.406 133.859 113.207 137.449C109.007 141.039 116.2 150.616 120.983 149.424" fill="white"/>
<path d="M121.592 144.033C121.592 144.033 117.406 133.859 113.207 137.449C109.007 141.039 116.2 150.616 120.983 149.424" stroke="#263238" stroke-linecap="round" stroke-linejoin="round"/>
<g opacity="0.37">
<path d="M121.592 144.033C121.592 144.033 117.406 133.859 113.207 137.449C109.007 141.039 116.2 150.616 120.983 149.424" fill="#CA5818"/>
<path d="M121.592 144.033C121.592 144.033 117.406 133.859 113.207 137.449C109.007 141.039 116.2 150.616 120.983 149.424" stroke="#263238" stroke-linecap="round" stroke-linejoin="round"/>
</g>
<path d="M96.0214 186.36C96.0214 186.36 93.9867 184.831 89.4636 188.24C84.9405 191.648 80.7285 207.148 83.5538 213.719C86.3791 220.29 93.9219 254.453 97.4341 256.319C100.946 258.185 138.712 258.03 143.17 256.98C147.629 255.93 150.739 250.098 149.987 245.057C149.236 240.015 144.259 238.706 142.794 238.667C141.33 238.629 111.25 236.918 111.25 236.918L101.905 197.441" fill="white"/>
<g style="mix-blend-mode:multiply" opacity="0.5">
<path d="M144.363 248.517C142.211 245.86 107.971 250.487 104.316 248.517C100.661 246.547 98.8985 242.802 101.568 240.274C104.238 237.747 96.4621 237.177 96.5269 234.948C96.5917 232.719 101.05 232.11 100.765 229.129C100.48 226.148 90.8503 225.526 91.0836 216.998C91.3169 208.47 93.4553 198.154 95.3864 195.238C96.4557 194.008 97.6849 192.927 99.0411 192.024L96.0214 186.347C96.0214 186.347 93.9867 184.818 89.4636 188.227C84.9405 191.635 80.7285 207.148 83.5538 213.719C86.3791 220.29 93.9219 254.453 97.4341 256.319C100.946 258.185 138.712 258.03 143.17 256.98C144.611 256.519 145.921 255.72 146.99 254.649C148.059 253.578 148.855 252.266 149.313 250.824C146.916 250.137 144.998 249.295 144.363 248.517Z" fill="#CA5818"/>
</g>
<path d="M96.0214 186.36C96.0214 186.36 93.9867 184.831 89.4636 188.24C84.9405 191.648 80.7285 207.148 83.5538 213.719C86.3791 220.29 93.9219 254.453 97.4341 256.319C100.946 258.185 138.712 258.03 143.17 256.98C147.629 255.93 150.739 250.098 149.987 245.057C149.236 240.015 144.259 238.706 142.794 238.667C141.33 238.629 111.25 236.918 111.25 236.918L101.905 197.441" stroke="#263238" stroke-linecap="round" stroke-linejoin="round"/>
<path d="M99.8058 244.201C102.035 237.644 111.237 237.514 111.237 237.514C107.567 236.553 103.729 236.416 100 237.112" stroke="#263238" stroke-width="0.5" stroke-linecap="round" stroke-linejoin="round"/>
<path d="M148.354 240.3C146.992 240.883 145.83 241.851 145.011 243.085C144.191 244.319 143.75 245.766 143.74 247.247C143.585 252.561 147.11 253.546 147.978 254.155C148.847 254.764 154.083 257.576 156.195 255.852C158.308 254.129 160.796 249.489 158.787 245.601C156.778 241.713 150.415 240.352 148.354 240.3Z" fill="white"/>
<g style="mix-blend-mode:multiply" opacity="0.5">
<path d="M156.195 255.852C156.733 255.396 157.212 254.873 157.621 254.297L153.214 251.951C149.171 250.837 145.322 249.696 144.363 248.517C144.196 248.341 143.986 248.212 143.753 248.141C144 252.677 147.149 253.584 147.978 254.155C148.808 254.725 154.083 257.576 156.195 255.852Z" fill="#CA5818"/>
</g>
<path d="M148.354 240.3C146.992 240.883 145.83 241.851 145.011 243.085C144.191 244.319 143.75 245.766 143.74 247.247C143.585 252.561 147.11 253.546 147.978 254.155C148.847 254.764 154.083 257.576 156.195 255.852C158.308 254.129 160.796 249.489 158.787 245.601C156.778 241.713 150.415 240.352 148.354 240.3Z" stroke="#263238" stroke-linecap="round" stroke-linejoin="round"/>
<path d="M155.651 245.057C155.651 245.057 152.437 246.288 151.996 248.711C151.555 251.135 151.711 252.444 152.268 252.599C152.826 252.755 154.679 253.597 154.679 253.597L160.394 256.565C160.394 256.565 164.93 261.749 166.421 262.164C167.911 262.579 166.628 261.607 166.421 260.479C165.772 258.864 164.932 257.333 163.919 255.917L170.685 261.905C170.685 261.905 172.914 262.708 172.395 261.011C171.877 259.313 168.417 255.827 168.417 255.827L174.806 261.62C174.806 261.62 176.102 262.216 176.102 261.464C176.175 261.088 176.148 260.698 176.026 260.335C175.903 259.971 175.688 259.646 175.402 259.391C174.676 258.807 170.322 253.818 170.322 253.818L176.387 257.537C176.387 257.537 177.683 259.261 178.59 259.287C179.497 259.313 178.979 258.73 178.292 256.695C177.605 254.66 172.991 251.679 171.346 250.513C169.7 249.347 160.705 245.199 155.651 245.057Z" fill="white" stroke="#263238" stroke-linecap="round" stroke-linejoin="round"/>
<path d="M445.62 243.502H394.998L404.109 213.952H454.731L445.62 243.502Z" fill="#263238" stroke="#263238" stroke-linecap="round" stroke-linejoin="round"/>
<path d="M441.641 246.288H391.032L400.143 216.726H450.752L441.641 246.288Z" fill="white" stroke="#263238" stroke-linecap="round" stroke-linejoin="round"/>
<path d="M368.909 234.585H452.321C454.383 234.585 456.361 235.404 457.819 236.863C459.277 238.321 460.097 240.299 460.097 242.361V264.108H368.909V234.585Z" fill="#263238" stroke="#263238" stroke-linecap="round" stroke-linejoin="round"/>
<path d="M445.167 234.585H353.94V264.147H445.167V234.585Z" fill="white" stroke="#263238" stroke-linecap="round" stroke-linejoin="round"/>
<path d="M424.638 256.215H351.763V260.116H424.638V256.215Z" fill="white" stroke="#263238" stroke-linecap="round" stroke-linejoin="round"/>
<path d="M424.638 252.314H367.315V256.215H424.638V252.314Z" fill="#263238" stroke="#263238" stroke-linecap="round" stroke-linejoin="round"/>
<path d="M352.061 261.27H294.557V263.953H352.061V261.27Z" fill="white" stroke="#263238" stroke-linecap="round" stroke-linejoin="round"/>
<path d="M396.281 166.311H272.331V246.249H396.281V166.311Z" fill="white" stroke="#263238" stroke-linecap="round" stroke-linejoin="round"/>
<path d="M396.281 166.311H279.096V246.249H396.281V166.311Z" fill="#263238" stroke="#263238" stroke-linecap="round" stroke-linejoin="round"/>
<path d="M353.396 203.455H326.271V265.171H353.396V203.455Z" fill="white" stroke="#263238" stroke-linecap="round" stroke-linejoin="round"/>
<path d="M355.897 203.455H328.772V265.171H355.897V203.455Z" fill="#263238" stroke="#263238" stroke-linecap="round" stroke-linejoin="round"/>
<path d="M326.97 204.181H356.532V246.443" stroke="white" stroke-linejoin="round"/>
<path d="M271.475 259.831H188.44V264.173H271.475V259.831Z" fill="white" stroke="#263238" stroke-linecap="round" stroke-linejoin="round"/>
<path d="M292.937 259.831H209.902V264.173H292.937V259.831Z" fill="white" stroke="#263238" stroke-linecap="round" stroke-linejoin="round"/>
<path d="M185.239 271.327H58.0094L51.97 457.253C51.9368 457.768 52.0063 458.284 52.1747 458.772C52.343 459.259 52.6068 459.709 52.9505 460.094C53.2943 460.479 53.7113 460.791 54.1771 461.013C54.6429 461.235 55.1482 461.362 55.6637 461.387C56.6169 461.359 57.5251 460.975 58.2089 460.311C58.8928 459.646 59.3026 458.749 59.3573 457.797L71.5009 305.866C71.655 303.156 72.818 300.602 74.761 298.707C76.7039 296.812 79.2859 295.713 81.9986 295.627H161.25C163.961 295.714 166.541 296.813 168.482 298.708C170.423 300.603 171.583 303.157 171.734 305.866L183.891 457.771C183.945 458.721 184.353 459.616 185.034 460.28C185.716 460.945 186.621 461.33 187.572 461.361C188.087 461.338 188.593 461.212 189.059 460.992C189.525 460.771 189.943 460.46 190.288 460.077C190.633 459.693 190.898 459.245 191.068 458.758C191.238 458.271 191.31 457.755 191.278 457.24L185.239 271.327Z" fill="#CA5818" stroke="#263238" stroke-linecap="round" stroke-linejoin="round"/>
<path d="M185.524 279.881L185.239 271.327H143.624H99.6243H58.0094L57.7243 279.881H185.524Z" fill="#263238" stroke="#263238" stroke-linecap="round" stroke-linejoin="round"/>
<path d="M474.975 271.327H347.707L341.68 457.253C341.649 457.766 341.72 458.282 341.889 458.768C342.058 459.254 342.322 459.702 342.666 460.085C343.009 460.469 343.425 460.78 343.89 461.001C344.355 461.222 344.86 461.349 345.374 461.374C346.325 461.343 347.23 460.958 347.911 460.293C348.592 459.629 349 458.734 349.054 457.784L361.237 305.866C361.391 303.156 362.554 300.602 364.497 298.707C366.44 296.812 369.022 295.713 371.735 295.627H450.986C453.697 295.714 456.277 296.813 458.218 298.708C460.159 300.603 461.319 303.157 461.47 305.866L473.627 457.771C473.675 458.725 474.08 459.627 474.762 460.297C475.444 460.966 476.352 461.356 477.308 461.387C477.822 461.362 478.326 461.235 478.791 461.014C479.256 460.793 479.672 460.482 480.016 460.098C480.359 459.715 480.624 459.267 480.793 458.781C480.962 458.294 481.033 457.779 481.001 457.266L474.975 271.327Z" fill="#CA5818" stroke="#263238" stroke-linecap="round" stroke-linejoin="round"/>
<path d="M475.817 279.881L475.545 271.327H433.93H389.918H348.303L348.031 279.881H475.817Z" fill="#263238" stroke="#263238" stroke-linecap="round" stroke-linejoin="round"/>
<path d="M483.36 264.147H47.6932V273.945H483.36V264.147Z" fill="white" stroke="#263238" stroke-linecap="round" stroke-linejoin="round"/>
<path d="M483.373 264.147H171.112V273.945H483.373V264.147Z" fill="white" stroke="#263238" stroke-linecap="round" stroke-linejoin="round"/>
</svg>
