<svg width="199" height="190" viewBox="0 0 199 190" fill="none" xmlns="http://www.w3.org/2000/svg">
<path d="M129.415 15.629L46.0259 24.9089L58.9262 140.831L142.315 131.551L129.415 15.629Z" fill="white" stroke="#263238" stroke-linecap="round" stroke-linejoin="round"/>
<path d="M129.414 15.6295L46.0254 24.9094L47.8103 40.9485L131.199 31.6686L129.414 15.6295Z" fill="#BFBFBF" stroke="#263238" stroke-linecap="round" stroke-linejoin="round"/>
<path d="M106.245 23.0196L70.247 27.0242C70.0797 27.0326 69.9159 27.0749 69.7655 27.1487C69.6152 27.2225 69.4814 27.3262 69.3725 27.4534C69.2635 27.5806 69.1817 27.7286 69.1319 27.8886C69.0821 28.0485 69.0654 28.2169 69.0829 28.3834C69.1004 28.55 69.1516 28.7113 69.2335 28.8574C69.3154 29.0035 69.4262 29.1313 69.5592 29.2332C69.6922 29.335 69.8445 29.4086 70.0069 29.4496C70.1693 29.4906 70.3383 29.498 70.5037 29.4715L106.502 25.4669C106.817 25.4193 107.101 25.2515 107.295 24.9988C107.489 24.7461 107.578 24.4281 107.542 24.1116C107.507 23.795 107.35 23.5044 107.105 23.3009C106.86 23.0973 106.546 22.9965 106.228 23.0196H106.245Z" fill="white"/>
<path d="M97.8043 29.0437L79.8093 31.0459C79.7289 31.0539 79.651 31.0778 79.58 31.1163C79.509 31.1547 79.4463 31.207 79.3957 31.2699C79.3451 31.3328 79.3076 31.4052 79.2853 31.4828C79.263 31.5605 79.2564 31.6417 79.2659 31.7219C79.2832 31.8841 79.364 32.0328 79.4907 32.1355C79.6175 32.2381 79.7797 32.2863 79.9419 32.2696L97.9412 30.2673C98.0986 30.2435 98.2408 30.1596 98.3378 30.0332C98.4347 29.9069 98.479 29.7479 98.4613 29.5896C98.4436 29.4313 98.3653 29.286 98.2428 29.1843C98.1203 29.0825 97.9631 29.0321 97.8043 29.0437Z" fill="white"/>
<path opacity="0.3" d="M111.255 42.9142L64.0859 48.1596C63.9651 48.1732 63.8546 48.2342 63.7788 48.3293C63.7029 48.4244 63.668 48.5457 63.6816 48.6665C63.6952 48.7874 63.7563 48.8979 63.8514 48.9737C63.9464 49.0495 64.0677 49.0845 64.1886 49.0709L111.345 43.8255C111.466 43.8119 111.576 43.7508 111.652 43.6558C111.728 43.5607 111.763 43.4394 111.749 43.3185C111.736 43.1977 111.675 43.0872 111.58 43.0114C111.485 42.9356 111.363 42.9006 111.242 42.9142H111.255Z" fill="black"/>
<path opacity="0.3" d="M111.62 46.1872L57.3867 52.2198C57.2658 52.2334 57.1554 52.2944 57.0795 52.3895C57.0037 52.4846 56.9688 52.6059 56.9824 52.7268C56.996 52.8476 57.0571 52.9581 57.1521 53.0339C57.2472 53.1097 57.3685 53.1447 57.4894 53.1311L111.722 47.0985C111.784 47.0948 111.844 47.0786 111.9 47.051C111.955 47.0233 112.004 46.9847 112.044 46.9375C112.084 46.8903 112.114 46.8355 112.132 46.7764C112.151 46.7173 112.157 46.6552 112.15 46.5937C112.143 46.5316 112.124 46.4715 112.094 46.417C112.063 46.3626 112.021 46.315 111.972 46.277C111.922 46.239 111.866 46.2114 111.805 46.196C111.744 46.1806 111.681 46.1776 111.62 46.1872Z" fill="black"/>
<path opacity="0.3" d="M97.83 51.0347L57.75 55.4928C57.6291 55.5064 57.5186 55.5674 57.4428 55.6625C57.367 55.7576 57.332 55.8789 57.3457 55.9998C57.3593 56.1206 57.4203 56.2311 57.5154 56.3069C57.6105 56.3827 57.7318 56.4177 57.8526 56.4041L97.9285 51.946C97.9902 51.9423 98.0505 51.9261 98.1058 51.8984C98.1611 51.8707 98.2103 51.8322 98.2503 51.785C98.2902 51.7378 98.3203 51.683 98.3385 51.6239C98.3567 51.5648 98.3628 51.5026 98.3563 51.4411C98.3495 51.3794 98.3303 51.3198 98.2999 51.2656C98.2695 51.2115 98.2286 51.1641 98.1795 51.1262C98.1303 51.0882 98.0741 51.0606 98.0141 51.0449C97.954 51.0291 97.8914 51.0257 97.83 51.0347Z" fill="black"/>
<path opacity="0.3" d="M123.215 41.1758L118.431 41.7082C117.788 41.7798 117.324 42.3595 117.396 43.0029L117.928 47.7866C118 48.4301 118.579 48.8936 119.223 48.822L124.007 48.2897C124.65 48.2181 125.114 47.6384 125.042 46.9949L124.51 42.2113C124.438 41.5678 123.858 41.1042 123.215 41.1758Z" stroke="#263238" stroke-linecap="round" stroke-linejoin="round"/>
<path d="M119.281 44.8523L120.856 46.337L122.926 43.1667" stroke="#A24713" stroke-width="3" stroke-linecap="round" stroke-linejoin="round"/>
<path opacity="0.3" d="M112.979 58.4192L65.8227 63.6645C65.7019 63.6781 65.5914 63.7392 65.5156 63.8343C65.4397 63.9293 65.4048 64.0506 65.4184 64.1715C65.432 64.2923 65.4931 64.4028 65.5882 64.4786C65.6832 64.5545 65.8046 64.5894 65.9254 64.5758L113.082 59.3305C113.142 59.3237 113.2 59.3053 113.252 59.2761C113.305 59.247 113.352 59.2078 113.389 59.1607C113.427 59.1136 113.455 59.0596 113.471 59.0018C113.488 58.9439 113.493 58.8833 113.486 58.8235C113.48 58.7636 113.461 58.7057 113.432 58.653C113.403 58.6003 113.364 58.5539 113.316 58.5163C113.269 58.4788 113.215 58.4509 113.158 58.4342C113.1 58.4175 113.039 58.4124 112.979 58.4192Z" fill="black"/>
<path opacity="0.3" d="M113.343 61.6922L59.1103 67.7247C59.0505 67.7314 58.9926 67.7499 58.9399 67.779C58.8872 67.8082 58.8407 67.8474 58.8032 67.8945C58.7656 67.9415 58.7377 67.9956 58.721 68.0534C58.7044 68.1113 58.6993 68.1719 58.706 68.2317C58.7128 68.2915 58.7312 68.3495 58.7603 68.4022C58.7895 68.4549 58.8287 68.5013 58.8758 68.5389C58.9228 68.5764 58.9769 68.6043 59.0347 68.621C59.0926 68.6376 59.1532 68.6427 59.213 68.636L113.446 62.6035C113.567 62.5898 113.677 62.5288 113.753 62.4337C113.829 62.3386 113.864 62.2173 113.85 62.0965C113.837 61.9756 113.776 61.8651 113.681 61.7893C113.585 61.7135 113.464 61.6785 113.343 61.6922Z" fill="black"/>
<path opacity="0.3" d="M99.5542 66.5396L59.4741 70.9977C59.3532 71.0113 59.2428 71.0724 59.1669 71.1674C59.0911 71.2625 59.0562 71.3838 59.0698 71.5047C59.0834 71.6255 59.1445 71.736 59.2395 71.8118C59.3346 71.8876 59.4559 71.9226 59.5768 71.909L99.6526 67.4509C99.7143 67.4472 99.7746 67.431 99.83 67.4033C99.8853 67.3757 99.9344 67.3371 99.9744 67.2899C100.014 67.2427 100.044 67.1879 100.063 67.1288C100.081 67.0697 100.087 67.0075 100.08 66.946C100.074 66.8843 100.054 66.8247 100.024 66.7706C99.9937 66.7164 99.9527 66.669 99.9036 66.6311C99.8545 66.5931 99.7982 66.5655 99.7382 66.5498C99.6782 66.534 99.6156 66.5306 99.5542 66.5396Z" fill="black"/>
<path opacity="0.3" d="M124.941 56.6773L120.157 57.2096C119.514 57.2812 119.05 57.8609 119.122 58.5044L119.654 63.2881C119.726 63.9315 120.305 64.3951 120.949 64.3235L125.733 63.7911C126.376 63.7195 126.84 63.1399 126.768 62.4964L126.236 57.7127C126.164 57.0693 125.584 56.6057 124.941 56.6773Z" stroke="#263238" stroke-linecap="round" stroke-linejoin="round"/>
<path d="M121.01 60.3573L122.58 61.8419L124.651 58.6716" stroke="#A24713" stroke-width="3" stroke-linecap="round" stroke-linejoin="round"/>
<path opacity="0.3" d="M114.704 73.9241L67.5479 79.1694C67.4347 79.1912 67.3339 79.255 67.2657 79.3478C67.1974 79.4407 67.1667 79.5559 67.1797 79.6704C67.1926 79.785 67.2483 79.8904 67.3356 79.9657C67.4229 80.0409 67.5354 80.0805 67.6506 80.0764L114.807 74.8226C114.867 74.8158 114.925 74.7974 114.978 74.7682C115.03 74.7391 115.077 74.6999 115.114 74.6528C115.152 74.6057 115.18 74.5517 115.196 74.4939C115.213 74.436 115.218 74.3754 115.211 74.3156C115.205 74.2557 115.186 74.1978 115.157 74.1451C115.128 74.0924 115.089 74.046 115.042 74.0084C114.995 73.9709 114.941 73.943 114.883 73.9263C114.825 73.9096 114.764 73.9045 114.704 73.9113V73.9241Z" fill="black"/>
<path opacity="0.3" d="M115.072 77.1971L60.8346 83.2296C60.7747 83.2355 60.7165 83.2533 60.6636 83.282C60.6107 83.3107 60.5641 83.3498 60.5266 83.3969C60.489 83.444 60.4614 83.4981 60.4452 83.5561C60.429 83.6141 60.4247 83.6748 60.4324 83.7345C60.4388 83.7944 60.457 83.8524 60.4858 83.9052C60.5147 83.9581 60.5537 84.0047 60.6005 84.0424C60.6474 84.0802 60.7013 84.1083 60.7591 84.1252C60.8169 84.1421 60.8774 84.1475 60.9373 84.1409L115.17 78.1084C115.232 78.1041 115.293 78.0874 115.348 78.0593C115.403 78.0312 115.452 77.9922 115.492 77.9447C115.532 77.8972 115.562 77.8421 115.58 77.7827C115.599 77.7234 115.605 77.661 115.598 77.5993C115.591 77.5377 115.572 77.4782 115.542 77.4243C115.511 77.3704 115.47 77.3232 115.421 77.2856C115.372 77.248 115.316 77.2208 115.256 77.2056C115.196 77.1903 115.133 77.1875 115.072 77.1971Z" fill="black"/>
<path opacity="0.3" d="M101.278 82.0445L61.1982 86.5026C61.0774 86.5162 60.9669 86.5773 60.8911 86.6724C60.8152 86.7675 60.7803 86.8888 60.7939 87.0096C60.8075 87.1305 60.8686 87.241 60.9637 87.3168C61.0587 87.3926 61.1801 87.4275 61.3009 87.4139L101.377 82.9515C101.498 82.9385 101.608 82.878 101.684 82.7833C101.761 82.6886 101.796 82.5675 101.783 82.4467C101.77 82.3259 101.71 82.2151 101.615 82.1389C101.52 82.0627 101.399 82.0272 101.278 82.0402V82.0445Z" fill="black"/>
<path opacity="0.3" d="M126.666 72.1788L121.882 72.7112C121.239 72.7828 120.775 73.3624 120.847 74.0059L121.379 78.7896C121.451 79.433 122.031 79.8966 122.674 79.825L127.458 79.2927C128.101 79.2211 128.565 78.6414 128.493 77.9979L127.961 73.2142C127.889 72.5708 127.31 72.1072 126.666 72.1788Z" stroke="#263238" stroke-linecap="round" stroke-linejoin="round"/>
<path d="M122.734 75.8622L124.305 77.3468L126.38 74.1722" stroke="#A24713" stroke-width="3" stroke-linecap="round" stroke-linejoin="round"/>
<path opacity="0.3" d="M116.428 89.4291L69.2715 94.6744C69.1584 94.6962 69.0576 94.7599 68.9893 94.8528C68.921 94.9456 68.8903 95.0609 68.9033 95.1754C68.9163 95.2899 68.972 95.3953 69.0593 95.4706C69.1465 95.5459 69.259 95.5854 69.3742 95.5814L116.531 90.3361C116.594 90.3339 116.656 90.3186 116.713 90.2913C116.77 90.2641 116.82 90.2253 116.861 90.1775C116.903 90.1297 116.934 90.0739 116.952 90.0136C116.971 89.9533 116.977 89.8898 116.97 89.8271C116.963 89.7644 116.943 89.7038 116.911 89.6492C116.879 89.5946 116.837 89.5471 116.786 89.5097C116.735 89.4723 116.677 89.4459 116.615 89.432C116.554 89.4181 116.49 89.4171 116.428 89.4291Z" fill="black"/>
<path opacity="0.3" d="M116.796 92.702L62.5587 98.7346C62.4988 98.7404 62.4406 98.7582 62.3877 98.7869C62.3348 98.8156 62.2882 98.8547 62.2507 98.9018C62.2132 98.9489 62.1855 99.0031 62.1693 99.0611C62.1532 99.1191 62.1488 99.1797 62.1566 99.2394C62.163 99.2993 62.1811 99.3573 62.2099 99.4102C62.2388 99.463 62.2778 99.5096 62.3247 99.5474C62.3716 99.5851 62.4254 99.6133 62.4832 99.6302C62.541 99.6471 62.6016 99.6524 62.6614 99.6459L116.894 93.6133C117.016 93.5994 117.126 93.538 117.203 93.4426C117.279 93.3472 117.314 93.2255 117.301 93.1042C117.287 92.9841 117.226 92.8744 117.131 92.799C117.037 92.7237 116.916 92.6888 116.796 92.702Z" fill="black"/>
<path opacity="0.3" d="M103.02 97.5495L62.9396 102.008C62.8797 102.013 62.8215 102.031 62.7686 102.06C62.7157 102.089 62.6691 102.128 62.6316 102.175C62.594 102.222 62.5664 102.276 62.5502 102.334C62.534 102.392 62.5297 102.453 62.5374 102.512C62.5438 102.572 62.5619 102.63 62.5908 102.683C62.6196 102.736 62.6586 102.783 62.7055 102.82C62.7524 102.858 62.8063 102.886 62.8641 102.903C62.9219 102.92 62.9824 102.925 63.0423 102.919L103.118 98.4608C103.178 98.4544 103.236 98.4362 103.289 98.4074C103.342 98.3785 103.388 98.3395 103.426 98.2926C103.464 98.2457 103.492 98.1919 103.509 98.1341C103.526 98.0763 103.531 98.0158 103.525 97.9559C103.519 97.8958 103.501 97.8375 103.472 97.7844C103.444 97.7313 103.405 97.6844 103.358 97.6465C103.311 97.6087 103.256 97.5806 103.198 97.5639C103.14 97.5473 103.08 97.5423 103.02 97.5495Z" fill="black"/>
<path opacity="0.3" d="M128.392 87.6846L123.608 88.2169C122.964 88.2885 122.501 88.8682 122.573 89.5117L123.105 94.2953C123.176 94.9388 123.756 95.4024 124.4 95.3308L129.183 94.7984C129.827 94.7268 130.29 94.1471 130.219 93.5037L129.686 88.72C129.615 88.0765 129.035 87.6129 128.392 87.6846Z" stroke="#263238" stroke-linecap="round" stroke-linejoin="round"/>
<path d="M124.458 91.3629L126.028 92.8475L128.103 89.6772" stroke="#A24713" stroke-width="3" stroke-linecap="round" stroke-linejoin="round"/>
<path opacity="0.3" d="M118.156 104.93L70.9999 110.175C70.9401 110.181 70.8821 110.2 70.8293 110.229C70.7765 110.257 70.7299 110.296 70.6921 110.343C70.6544 110.39 70.6262 110.444 70.6093 110.502C70.5924 110.559 70.587 110.62 70.5935 110.68C70.5999 110.74 70.6181 110.798 70.647 110.85C70.6759 110.903 70.7148 110.95 70.7617 110.988C70.8086 111.025 70.8625 111.054 70.9202 111.07C70.978 111.087 71.0385 111.093 71.0983 111.086L118.255 105.841C118.315 105.835 118.373 105.816 118.426 105.788C118.478 105.759 118.525 105.72 118.563 105.673C118.601 105.626 118.629 105.572 118.646 105.514C118.663 105.457 118.668 105.396 118.661 105.336C118.647 105.216 118.587 105.106 118.492 105.03C118.398 104.954 118.277 104.918 118.156 104.93Z" fill="black"/>
<path opacity="0.3" d="M118.52 108.194L64.2831 114.227C64.22 114.229 64.1581 114.244 64.1012 114.271C64.0442 114.299 63.9936 114.337 63.9524 114.385C63.9112 114.433 63.8803 114.489 63.8617 114.549C63.8431 114.609 63.8371 114.673 63.8442 114.736C63.8513 114.798 63.8713 114.859 63.9029 114.914C63.9346 114.968 63.9771 115.016 64.028 115.053C64.0788 115.09 64.1369 115.117 64.1984 115.131C64.26 115.145 64.3238 115.146 64.3858 115.134L118.619 109.101C118.682 109.1 118.744 109.085 118.802 109.058C118.859 109.031 118.91 108.993 118.952 108.945C118.994 108.897 119.025 108.842 119.044 108.781C119.063 108.721 119.07 108.657 119.063 108.594C119.056 108.531 119.036 108.47 119.005 108.415C118.973 108.36 118.93 108.313 118.879 108.275C118.828 108.237 118.77 108.211 118.708 108.197C118.647 108.183 118.583 108.182 118.52 108.194Z" fill="black"/>
<path opacity="0.3" d="M104.731 113.054L64.6508 117.512C64.53 117.526 64.4195 117.587 64.3437 117.682C64.2679 117.777 64.2329 117.899 64.2465 118.019C64.2602 118.14 64.3212 118.251 64.4163 118.327C64.5114 118.402 64.6327 118.437 64.7535 118.424L104.834 113.966C104.954 113.951 105.064 113.889 105.139 113.794C105.214 113.698 105.249 113.577 105.236 113.457C105.229 113.397 105.211 113.339 105.182 113.286C105.153 113.234 105.114 113.187 105.067 113.15C105.02 113.113 104.966 113.085 104.909 113.068C104.851 113.052 104.791 113.047 104.731 113.054Z" fill="black"/>
<path opacity="0.3" d="M130.117 103.19L125.334 103.723C124.69 103.794 124.227 104.374 124.298 105.017L124.83 109.801C124.902 110.445 125.482 110.908 126.125 110.837L130.909 110.304C131.552 110.233 132.016 109.653 131.944 109.009L131.412 104.226C131.34 103.582 130.761 103.119 130.117 103.19Z" stroke="#263238" stroke-linecap="round" stroke-linejoin="round"/>
<path d="M126.183 106.868L127.753 108.352L129.828 105.182" stroke="#A24713" stroke-width="3" stroke-linecap="round" stroke-linejoin="round"/>
<path opacity="0.3" d="M119.47 116.751L72.3139 122.005C72.1931 122.018 72.0826 122.079 72.0068 122.175C71.931 122.27 71.896 122.391 71.9096 122.512C71.9232 122.633 71.9843 122.743 72.0794 122.819C72.1745 122.895 72.2958 122.93 72.4166 122.916L119.573 117.671C119.633 117.665 119.691 117.647 119.744 117.618C119.797 117.59 119.844 117.551 119.881 117.504C119.919 117.456 119.946 117.402 119.963 117.344C119.979 117.286 119.983 117.226 119.975 117.166C119.97 117.105 119.953 117.046 119.924 116.993C119.896 116.939 119.857 116.891 119.81 116.852C119.763 116.814 119.709 116.785 119.65 116.767C119.592 116.75 119.531 116.744 119.47 116.751Z" fill="black"/>
<path opacity="0.3" d="M119.834 120.037L65.6006 126.069C65.5373 126.071 65.4749 126.085 65.4176 126.112C65.3602 126.139 65.309 126.178 65.2672 126.225C65.2255 126.273 65.1941 126.329 65.175 126.389C65.156 126.45 65.1496 126.513 65.1565 126.576C65.1633 126.639 65.1831 126.7 65.2147 126.755C65.2463 126.81 65.2889 126.858 65.3399 126.895C65.3909 126.933 65.4492 126.96 65.511 126.974C65.5728 126.987 65.6368 126.988 65.699 126.976L119.936 120.944C120.05 120.922 120.15 120.858 120.219 120.765C120.287 120.672 120.318 120.557 120.305 120.443C120.292 120.328 120.236 120.223 120.149 120.148C120.061 120.072 119.949 120.033 119.834 120.037Z" fill="black"/>
<path opacity="0.3" d="M106.041 124.88L65.9648 129.338C65.9049 129.344 65.8469 129.362 65.7941 129.391C65.7413 129.42 65.6946 129.459 65.6569 129.506C65.6191 129.553 65.591 129.607 65.5741 129.665C65.5572 129.722 65.5518 129.783 65.5584 129.843C65.5723 129.964 65.6337 130.075 65.7291 130.151C65.8245 130.227 65.9462 130.262 66.0675 130.249L106.143 125.791C106.203 125.784 106.261 125.766 106.314 125.737C106.366 125.708 106.413 125.668 106.45 125.621C106.488 125.574 106.516 125.52 106.533 125.462C106.549 125.405 106.554 125.344 106.548 125.284C106.541 125.224 106.522 125.166 106.493 125.114C106.464 125.061 106.425 125.015 106.378 124.977C106.331 124.939 106.277 124.912 106.219 124.895C106.161 124.878 106.1 124.873 106.041 124.88Z" fill="black"/>
<path opacity="0.3" d="M131.435 115.016L126.651 115.548C126.007 115.62 125.544 116.199 125.615 116.843L126.148 121.626C126.219 122.27 126.799 122.734 127.443 122.662L132.226 122.13C132.87 122.058 133.333 121.478 133.262 120.835L132.729 116.051C132.658 115.408 132.078 114.944 131.435 115.016Z" stroke="#263238" stroke-linecap="round" stroke-linejoin="round"/>
<path d="M127.497 118.698L129.067 120.182L131.142 117.012" stroke="#A24713" stroke-width="3" stroke-linecap="round" stroke-linejoin="round"/>
<path d="M80.2627 86.4897C80.304 85.998 80.1822 85.5063 79.9162 85.0907L79.3899 84.158L78.346 84.7484L78.915 85.7496C79.1974 86.2502 79.0819 86.5582 78.731 86.755C78.3802 86.9518 78.0551 86.9005 77.7727 86.3999L76.5533 84.235L75.2441 84.4917L76.6389 86.9518C77.2764 88.077 78.2005 88.3979 79.283 87.8075C79.455 87.7087 79.6145 87.5895 79.7579 87.4524C79.697 87.3114 79.6864 87.1538 79.7276 87.0059C79.7689 86.858 79.8596 86.7287 79.9846 86.6395C80.0685 86.5747 80.1624 86.5241 80.2627 86.4897Z" fill="#A24713"/>
<path d="M74.5725 83.3066L74.8206 83.7345H76.2625L75.6335 82.6221C75.3512 82.1215 75.4624 81.8049 75.8132 81.6081C76.1641 81.4113 76.4935 81.4712 76.7759 81.976L77.2037 82.7248L78.2434 82.1343L77.8583 81.4541C77.2208 80.3331 76.2967 80.008 75.2143 80.6241C74.9658 80.758 74.7451 80.9381 74.5639 81.1546C74.8098 81.2336 75.0674 81.2698 75.3255 81.2615L74.2987 81.6466C74.2234 81.9268 74.2089 82.2199 74.2562 82.5062C74.3034 82.7925 74.4112 83.0654 74.5725 83.3066Z" fill="#A24713"/>
<path d="M82.5688 78.7458C82.706 78.6772 82.8493 78.6214 82.9967 78.579C83.5486 78.3308 83.6727 77.5351 83.6256 76.9746L83.0566 76.2686L81.5249 77.1243L82.4833 78.81C82.5083 78.7843 82.5372 78.7627 82.5688 78.7458Z" fill="#A24713"/>
<path d="M89.0933 82.0958L90.133 81.5054L86.1584 74.4974L85.17 75.0536C85.4866 75.1306 85.7134 75.2804 85.722 75.5114C85.4139 75.5542 85.0374 75.5114 84.7037 75.5713L86.706 80.761L84.1732 77.6035C84.18 77.6734 84.1696 77.744 84.1427 77.8089C84.1158 77.8738 84.0734 77.9311 84.0192 77.9757C83.9036 78.057 83.7368 78.057 83.6469 78.164C83.5571 78.271 83.5699 78.3993 83.4929 78.4934C83.4159 78.5876 83.2961 78.6132 83.202 78.6817C83.1078 78.7501 83.0052 78.9256 82.8982 79.0411C82.8467 79.0954 82.7817 79.1352 82.71 79.1566L85.5252 84.1195L86.4835 83.5719L83.6726 78.6175L87.2836 83.1184L88.3275 82.528L86.2182 77.0816L89.0933 82.0958Z" fill="#A24713"/>
<path d="M91.7251 75.9948C91.8011 76.0328 91.8687 76.0858 91.9239 76.1505C91.979 76.2151 92.0205 76.2903 92.046 76.3713C92.136 75.8427 92.0213 75.2996 91.7251 74.8525L91.2074 73.9369C90.57 72.816 89.6843 72.5122 88.5805 73.1369L86.959 74.0567L90.9379 81.069L91.969 80.4829C91.6353 80.2732 91.2631 80.0935 90.9465 79.8668C90.7978 79.7719 90.6757 79.6409 90.5913 79.486C90.5513 79.4078 90.5349 79.3197 90.544 79.2324C90.5531 79.1451 90.5874 79.0622 90.6427 78.994C90.7152 78.9329 90.8035 78.8936 90.8974 78.8807C90.9913 78.8679 91.087 78.8819 91.1732 78.9213L90.5443 77.8089L91.0662 77.5137C91.3531 77.3581 91.6028 77.1421 91.7979 76.8805C91.5797 76.5339 91.1989 75.798 91.7251 75.9948ZM90.4972 76.5339L89.9753 76.8291L88.6276 74.4546L89.1495 74.1594C89.5004 73.9626 89.7827 74.0139 90.0651 74.5145L90.6641 75.567C90.9465 76.0462 90.848 76.3157 90.4972 76.5339Z" fill="#A24713"/>
<path d="M97.6249 77.2741L97.0602 76.2729L95.2461 77.2998L92.5935 72.6235L92.4737 72.7176C92.3963 72.7894 92.3022 72.8409 92.1999 72.8673C92.1484 72.8789 92.0944 72.8714 92.048 72.8463C92.0016 72.8211 91.9659 72.7799 91.9475 72.7304C91.9327 72.6642 91.9327 72.5956 91.9475 72.5293C91.9482 72.1312 91.8223 71.7432 91.5881 71.4212L90.7324 71.9175L94.7071 78.9255L97.6249 77.2741Z" fill="#A24713"/>
<path d="M97.1282 74.8226C97.248 74.5102 97.6202 74.3947 97.8299 74.1123C97.8486 74.0833 97.8657 74.0533 97.8812 74.0225L97.4534 73.3037L98.5358 72.6919C98.5159 72.6236 98.4808 72.5607 98.4331 72.5079C98.2778 72.432 98.1119 72.3801 97.9411 72.3539C97.9147 72.3007 97.9014 72.242 97.9023 72.1826C97.9032 72.1232 97.9184 72.0649 97.9464 72.0125C97.9745 71.9602 98.0147 71.9153 98.0636 71.8817C98.1125 71.848 98.1688 71.8266 98.2278 71.8191C98.3005 71.8191 98.3861 71.8191 98.4417 71.7849C98.4807 71.7383 98.5006 71.6787 98.4973 71.618L98.3989 71.4469L96.8843 72.3026L95.7805 70.3516L97.6801 69.2692L97.1111 68.268L94.1162 69.9794L97.0598 75.1691C97.0649 75.0508 97.0879 74.9339 97.1282 74.8226Z" fill="#A24713"/>
<path d="M101.111 75.2975L100.542 74.2963L98.6386 75.3745L98.0695 74.3947L97.3679 75.0536L97.124 75.2889L98.1081 77.0217L101.111 75.2975Z" fill="#A24713"/>
<path d="M99.6957 67.1557C99.6957 67.3054 99.5887 67.4723 99.4433 67.4851C99.3693 67.4842 99.2958 67.4727 99.2251 67.4509C99.0928 67.4533 98.9607 67.4404 98.8314 67.4124C98.8035 67.4008 98.7775 67.385 98.7544 67.3653L97.4966 68.0798L98.0656 69.0852L99.2165 68.4306L102.639 74.4204L103.739 73.7957L100.316 67.806L101.471 67.1514L100.902 66.1502L99.7213 66.8177C99.7 66.9289 99.7085 67.0444 99.6957 67.1557Z" fill="#A24713"/>
<path d="M104.5 71.3998L105.356 72.9101L106.511 72.2555C106.538 72.1797 106.573 72.1067 106.614 72.0373C106.868 71.6657 107.21 71.3629 107.61 71.1559L108.141 70.8265L107.79 70.2019L105.886 71.2843L104.723 69.2307L106.237 68.375L105.668 67.3738L104.153 68.2295L103.05 66.2657L104.954 65.1876L104.385 64.1864L101.39 65.8978L103.55 69.7099C104.072 69.4318 104.333 70.4329 104.5 71.3998Z" fill="#A24713"/>
<path d="M82.3423 85.2447C82.522 85.2747 82.6289 85.4544 82.7701 85.5742C82.8214 85.6215 82.8808 85.6592 82.9455 85.6854C83.0274 85.6528 83.1074 85.6157 83.1851 85.5742C84.2633 84.9624 84.49 83.9869 83.8568 82.8617L83.7926 82.7504L82.3123 82.7119L82.7958 83.5676C83.0781 84.0682 82.9669 84.3848 82.6161 84.5816C82.2653 84.7784 81.9358 84.7142 81.6534 84.2136L79.5142 80.4273C79.2276 79.9267 79.3431 79.6144 79.6939 79.4133C80.0448 79.2122 80.3699 79.2806 80.6566 79.7812L82.1069 82.3483C82.5522 82.238 83.0088 82.1805 83.4675 82.1771L81.7946 79.2293C81.1614 78.1084 80.2073 77.8046 79.1249 78.4164C78.0425 79.0282 77.8157 80.008 78.4532 81.1289L80.5197 84.7741C80.6502 85.0551 80.8455 85.3012 81.0894 85.4923C81.3333 85.6834 81.6189 85.8141 81.923 85.8737C81.9207 85.8481 81.9207 85.8223 81.923 85.7967C81.8716 85.5186 82.077 85.1934 82.3423 85.2447Z" fill="#A24713"/>
<path d="M97.1154 65.1234L100.474 63.2195C99.5113 63.4848 98.6642 64.2891 97.6716 64.1779C97.4921 64.1307 97.3034 64.1307 97.1239 64.1779C97.0118 64.2502 96.9309 64.3621 96.8976 64.4914C96.8643 64.6207 96.881 64.7577 96.9443 64.8753C96.9876 64.9666 97.0454 65.0504 97.1154 65.1234Z" fill="#A24713"/>
<path d="M88.6914 69.9024C88.6839 69.8284 88.6988 69.7539 88.7341 69.6885C88.8167 69.7172 88.9035 69.7316 88.9908 69.7312L90.1503 69.0766C90.3318 68.8713 90.5388 68.6902 90.7664 68.5376C90.9861 68.42 91.2187 68.3281 91.4595 68.2637L91.7162 68.1867L93.8554 66.9802C93.8779 66.9365 93.9084 66.8973 93.9452 66.8647C93.9783 66.8427 94.0143 66.8254 94.0522 66.8134L91.8445 66.1459L91.2498 66.4796L91.1857 66.9503L88.64 68.3108C88.388 68.4682 88.1074 68.5743 87.8143 68.6231C87.7048 68.6359 87.5943 68.6359 87.4848 68.6231L83.8568 70.681C83.8856 70.853 83.9344 71.021 84.0022 71.1816C83.7894 71.142 83.5869 71.059 83.4075 70.9377L82.6631 71.3656C83.1936 71.7164 83.7156 72.0758 84.2247 72.4566L88.6914 69.9024Z" fill="#A24713"/>
<path d="M104.222 61.0974L102.468 60.1134L101.638 60.584C102.127 61.087 102.759 61.4275 103.448 61.5595L104.222 61.0974Z" fill="#A24713"/>
<path d="M113.656 71.4555L107.033 59.7797C106.775 59.3282 106.349 58.9969 105.848 58.8583C105.347 58.7196 104.812 58.7847 104.359 59.0395L103.563 59.493L103.867 59.7883C104.183 60.1049 104.508 60.4257 104.804 60.7637L105.206 60.537C105.261 60.5058 105.327 60.4978 105.389 60.5146C105.45 60.5314 105.503 60.5717 105.535 60.6268L112.162 72.3069C112.193 72.3631 112.201 72.4292 112.183 72.4909C112.165 72.5525 112.124 72.6048 112.068 72.6363L103.054 77.7704C103.832 77.8174 104.62 77.7062 105.398 77.796C105.679 77.8314 105.957 77.8814 106.233 77.9458L112.915 74.1551C113.142 74.0276 113.342 73.8562 113.502 73.6511C113.662 73.4459 113.78 73.2109 113.849 72.9598C113.918 72.7087 113.936 72.4465 113.903 72.1882C113.87 71.93 113.786 71.6809 113.656 71.4555Z" fill="#A24713"/>
<path d="M73.0709 86.3143L69.9563 80.8123C69.9402 80.7845 69.9298 80.7538 69.9256 80.722C69.9214 80.6902 69.9235 80.6578 69.9319 80.6268C69.9402 80.5958 69.9546 80.5667 69.9742 80.5413C69.9938 80.5159 70.0182 80.4946 70.0461 80.4786L79.0308 75.3787C79.0008 75.3103 78.9623 75.2418 78.9366 75.1734C79.0636 75.1681 79.1906 75.1825 79.3131 75.2162L82.9455 73.1583C82.8257 73.1198 82.7102 73.0727 82.5947 73.0299L80.8833 72.3496L79.5142 73.1283L81.0031 74.0396C80.4854 73.723 79.4286 73.6802 78.5173 73.6931L69.2204 78.9854C68.768 79.2422 68.436 79.668 68.2972 80.1694C68.1585 80.6707 68.2243 81.2066 68.4802 81.6594L71.1842 86.4256C71.3082 86.3914 71.4366 86.3614 71.5607 86.34C71.9034 86.2907 72.2501 86.2735 72.596 86.2887C72.7547 86.2875 72.9133 86.2961 73.0709 86.3143Z" fill="#A24713"/>
<path d="M84.1687 88.4621C84.3211 88.5987 84.4944 88.7099 84.6821 88.7915C84.8746 88.8771 85.1313 89.0825 84.9816 89.2194C84.2885 89.536 83.4328 89.3007 82.7525 89.6472C82.3803 89.8269 82.0209 90.182 81.623 90.0751C82.1043 90.3673 82.5373 90.7324 82.9066 91.1575L99.8961 81.5225C99.8961 81.4541 99.9175 81.3856 99.9303 81.3129C99.9307 81.1782 99.9618 81.0454 100.021 80.9246C100.081 80.8038 100.167 80.6981 100.273 80.6156C100.38 80.5331 100.504 80.4759 100.635 80.4485C100.767 80.4211 100.904 80.424 101.034 80.4572C101.255 80.4475 101.475 80.4706 101.689 80.5257L103.807 79.3234C103.516 78.8226 103.172 78.3549 102.78 77.9287L84.1687 88.4621Z" fill="#A24713"/>
<path d="M81.4179 91.2901C81.0082 91.1572 80.6307 90.9401 80.3098 90.6526L76.9213 92.5779C76.8939 92.5939 76.8635 92.6043 76.832 92.6084C76.8005 92.6125 76.7685 92.6103 76.7378 92.602C76.7072 92.5936 76.6785 92.5792 76.6534 92.5597C76.6284 92.5401 76.6075 92.5158 76.5919 92.4881L73.597 87.2385C73.3101 87.1392 73.0048 87.1042 72.7028 87.1358C72.3563 87.2042 72.0525 87.6064 72.2408 87.9016C72.4176 87.9062 72.5901 87.9577 72.7405 88.0509C72.8909 88.1442 73.0137 88.2757 73.0965 88.4321C72.9119 88.5789 72.7091 88.7011 72.4932 88.7958L75.0602 93.3352C75.1878 93.5645 75.3599 93.7659 75.5664 93.9277C75.7729 94.0895 76.0097 94.2084 76.2628 94.2773C76.5159 94.3463 76.7803 94.3639 77.0403 94.3293C77.3003 94.2946 77.5508 94.2082 77.777 94.0754L82.218 91.5554L82.1667 91.5254C81.9215 91.4336 81.6716 91.355 81.4179 91.2901Z" fill="#A24713"/>
<g opacity="0.2">
<path opacity="0.2" d="M80.2627 86.4897C80.304 85.998 80.1822 85.5063 79.9162 85.0907L79.3899 84.158L78.346 84.7484L78.915 85.7496C79.1974 86.2502 79.0819 86.5582 78.731 86.755C78.3802 86.9518 78.0551 86.9005 77.7727 86.3999L76.5533 84.235L75.2441 84.4917L76.6389 86.9518C77.2764 88.077 78.2005 88.3979 79.283 87.8075C79.455 87.7087 79.6145 87.5895 79.7579 87.4524C79.697 87.3114 79.6864 87.1538 79.7276 87.0059C79.7689 86.858 79.8596 86.7287 79.9846 86.6395C80.0685 86.5747 80.1624 86.5241 80.2627 86.4897Z" fill="black"/>
<path opacity="0.2" d="M74.5725 83.3066L74.8206 83.7345H76.2625L75.6335 82.6221C75.3512 82.1215 75.4624 81.8049 75.8132 81.6081C76.1641 81.4113 76.4935 81.4712 76.7759 81.976L77.2037 82.7248L78.2434 82.1343L77.8583 81.4541C77.2208 80.3331 76.2967 80.008 75.2143 80.6241C74.9658 80.758 74.7451 80.9381 74.5639 81.1546C74.8098 81.2336 75.0674 81.2698 75.3255 81.2615L74.2987 81.6466C74.2234 81.9268 74.2089 82.2199 74.2562 82.5062C74.3034 82.7925 74.4112 83.0654 74.5725 83.3066Z" fill="black"/>
<path opacity="0.2" d="M82.5688 78.7458C82.706 78.6772 82.8493 78.6214 82.9967 78.579C83.5486 78.3308 83.6727 77.5351 83.6256 76.9746L83.0566 76.2686L81.5249 77.1243L82.4833 78.81C82.5083 78.7843 82.5372 78.7627 82.5688 78.7458Z" fill="black"/>
<path opacity="0.2" d="M89.0933 82.0958L90.133 81.5054L86.1584 74.4974L85.17 75.0536C85.4866 75.1306 85.7134 75.2804 85.722 75.5114C85.4139 75.5542 85.0374 75.5114 84.7037 75.5713L86.706 80.761L84.1732 77.6035C84.18 77.6734 84.1696 77.744 84.1427 77.8089C84.1158 77.8738 84.0734 77.9311 84.0192 77.9757C83.9036 78.057 83.7368 78.057 83.6469 78.164C83.5571 78.271 83.5699 78.3993 83.4929 78.4934C83.4159 78.5876 83.2961 78.6132 83.202 78.6817C83.1078 78.7501 83.0052 78.9256 82.8982 79.0411C82.8467 79.0954 82.7817 79.1352 82.71 79.1566L85.5252 84.1195L86.4835 83.5719L83.6726 78.6175L87.2836 83.1184L88.3275 82.528L86.2182 77.0816L89.0933 82.0958Z" fill="black"/>
<path opacity="0.2" d="M91.7251 75.9948C91.8011 76.0328 91.8687 76.0858 91.9239 76.1505C91.979 76.2151 92.0205 76.2903 92.046 76.3713C92.136 75.8427 92.0213 75.2996 91.7251 74.8525L91.2074 73.9369C90.57 72.816 89.6843 72.5122 88.5805 73.1369L86.959 74.0567L90.9379 81.069L91.969 80.4829C91.6353 80.2732 91.2631 80.0935 90.9465 79.8668C90.7978 79.7719 90.6757 79.6409 90.5913 79.486C90.5513 79.4078 90.5349 79.3197 90.544 79.2324C90.5531 79.1451 90.5874 79.0622 90.6427 78.994C90.7152 78.9329 90.8035 78.8936 90.8974 78.8807C90.9913 78.8679 91.087 78.8819 91.1732 78.9213L90.5443 77.8089L91.0662 77.5137C91.3531 77.3581 91.6028 77.1421 91.7979 76.8805C91.5797 76.5339 91.1989 75.798 91.7251 75.9948ZM90.4972 76.5339L89.9753 76.8291L88.6276 74.4546L89.1495 74.1594C89.5004 73.9626 89.7827 74.0139 90.0651 74.5145L90.6641 75.567C90.9465 76.0462 90.848 76.3157 90.4972 76.5339Z" fill="black"/>
<path opacity="0.2" d="M97.6249 77.2741L97.0602 76.2729L95.2461 77.2998L92.5935 72.6235L92.4737 72.7176C92.3963 72.7894 92.3022 72.8409 92.1999 72.8673C92.1484 72.8789 92.0944 72.8714 92.048 72.8463C92.0016 72.8211 91.9659 72.7799 91.9475 72.7304C91.9327 72.6642 91.9327 72.5956 91.9475 72.5293C91.9482 72.1312 91.8223 71.7432 91.5881 71.4212L90.7324 71.9175L94.7071 78.9255L97.6249 77.2741Z" fill="black"/>
<path opacity="0.2" d="M97.1282 74.8226C97.248 74.5102 97.6202 74.3947 97.8299 74.1123C97.8486 74.0833 97.8657 74.0533 97.8812 74.0225L97.4534 73.3037L98.5358 72.6919C98.5159 72.6236 98.4808 72.5607 98.4331 72.5079C98.2778 72.432 98.1119 72.3801 97.9411 72.3539C97.9147 72.3007 97.9014 72.242 97.9023 72.1826C97.9032 72.1232 97.9184 72.0649 97.9464 72.0125C97.9745 71.9602 98.0147 71.9153 98.0636 71.8817C98.1125 71.848 98.1688 71.8266 98.2278 71.8191C98.3005 71.8191 98.3861 71.8191 98.4417 71.7849C98.4807 71.7383 98.5006 71.6787 98.4973 71.618L98.3989 71.4469L96.8843 72.3026L95.7805 70.3516L97.6801 69.2692L97.1111 68.268L94.1162 69.9794L97.0598 75.1691C97.0649 75.0508 97.0879 74.9339 97.1282 74.8226Z" fill="black"/>
<path opacity="0.2" d="M101.111 75.2975L100.542 74.2963L98.6386 75.3745L98.0695 74.3947L97.3679 75.0536L97.124 75.2889L98.1081 77.0217L101.111 75.2975Z" fill="black"/>
<path opacity="0.2" d="M99.6957 67.1557C99.6957 67.3054 99.5887 67.4723 99.4433 67.4851C99.3693 67.4842 99.2958 67.4727 99.2251 67.4509C99.0928 67.4533 98.9607 67.4404 98.8314 67.4124C98.8035 67.4008 98.7775 67.385 98.7544 67.3653L97.4966 68.0798L98.0656 69.0852L99.2165 68.4306L102.639 74.4204L103.739 73.7957L100.316 67.806L101.471 67.1514L100.902 66.1502L99.7213 66.8177C99.7 66.9289 99.7085 67.0444 99.6957 67.1557Z" fill="black"/>
<path opacity="0.2" d="M104.5 71.3998L105.356 72.9101L106.511 72.2555C106.538 72.1797 106.573 72.1067 106.614 72.0373C106.868 71.6657 107.21 71.3629 107.61 71.1559L108.141 70.8265L107.79 70.2019L105.886 71.2843L104.723 69.2307L106.237 68.375L105.668 67.3738L104.153 68.2295L103.05 66.2657L104.954 65.1876L104.385 64.1864L101.39 65.8978L103.55 69.7099C104.072 69.4318 104.333 70.4329 104.5 71.3998Z" fill="black"/>
<path opacity="0.2" d="M82.3423 85.2447C82.522 85.2747 82.6289 85.4544 82.7701 85.5742C82.8214 85.6215 82.8808 85.6592 82.9455 85.6854C83.0274 85.6528 83.1074 85.6157 83.1851 85.5742C84.2633 84.9624 84.49 83.9869 83.8568 82.8617L83.7926 82.7504L82.3123 82.7119L82.7958 83.5676C83.0781 84.0682 82.9669 84.3848 82.6161 84.5816C82.2653 84.7784 81.9358 84.7142 81.6534 84.2136L79.5142 80.4273C79.2276 79.9267 79.3431 79.6144 79.6939 79.4133C80.0448 79.2122 80.3699 79.2806 80.6566 79.7812L82.1069 82.3483C82.5522 82.238 83.0088 82.1805 83.4675 82.1771L81.7946 79.2293C81.1614 78.1084 80.2073 77.8046 79.1249 78.4164C78.0425 79.0282 77.8157 80.008 78.4532 81.1289L80.5197 84.7741C80.6502 85.0551 80.8455 85.3012 81.0894 85.4923C81.3333 85.6834 81.6189 85.8141 81.923 85.8737C81.9207 85.8481 81.9207 85.8223 81.923 85.7967C81.8716 85.5186 82.077 85.1934 82.3423 85.2447Z" fill="black"/>
<path opacity="0.2" d="M97.1154 65.1234L100.474 63.2195C99.5113 63.4848 98.6642 64.2891 97.6716 64.1779C97.4921 64.1307 97.3034 64.1307 97.1239 64.1779C97.0118 64.2502 96.9309 64.3621 96.8976 64.4914C96.8643 64.6207 96.881 64.7577 96.9443 64.8753C96.9876 64.9666 97.0454 65.0504 97.1154 65.1234Z" fill="black"/>
<path opacity="0.2" d="M88.6914 69.9024C88.6839 69.8284 88.6988 69.7539 88.7341 69.6885C88.8167 69.7172 88.9035 69.7316 88.9908 69.7312L90.1503 69.0766C90.3318 68.8713 90.5388 68.6902 90.7664 68.5376C90.9861 68.42 91.2187 68.3281 91.4595 68.2637L91.7162 68.1867L93.8554 66.9802C93.8779 66.9365 93.9084 66.8973 93.9452 66.8647C93.9783 66.8427 94.0143 66.8254 94.0522 66.8134L91.8445 66.1459L91.2498 66.4796L91.1857 66.9503L88.64 68.3108C88.388 68.4682 88.1074 68.5743 87.8143 68.6231C87.7048 68.6359 87.5943 68.6359 87.4848 68.6231L83.8568 70.681C83.8856 70.853 83.9344 71.021 84.0022 71.1816C83.7894 71.142 83.5869 71.059 83.4075 70.9377L82.6631 71.3656C83.1936 71.7164 83.7156 72.0758 84.2247 72.4566L88.6914 69.9024Z" fill="black"/>
<path opacity="0.2" d="M104.222 61.0974L102.468 60.1134L101.638 60.584C102.127 61.087 102.759 61.4275 103.448 61.5595L104.222 61.0974Z" fill="black"/>
<path opacity="0.2" d="M113.656 71.4555L107.033 59.7797C106.775 59.3282 106.349 58.9969 105.848 58.8583C105.347 58.7196 104.812 58.7847 104.359 59.0395L103.563 59.493L103.867 59.7883C104.183 60.1049 104.508 60.4257 104.804 60.7637L105.206 60.537C105.261 60.5058 105.327 60.4978 105.389 60.5146C105.45 60.5314 105.503 60.5717 105.535 60.6268L112.162 72.3069C112.193 72.3631 112.201 72.4292 112.183 72.4909C112.165 72.5525 112.124 72.6048 112.068 72.6363L103.054 77.7704C103.832 77.8174 104.62 77.7062 105.398 77.796C105.679 77.8314 105.957 77.8814 106.233 77.9458L112.915 74.1551C113.142 74.0276 113.342 73.8562 113.502 73.6511C113.662 73.4459 113.78 73.2109 113.849 72.9598C113.918 72.7087 113.936 72.4465 113.903 72.1882C113.87 71.93 113.786 71.6809 113.656 71.4555Z" fill="black"/>
<path opacity="0.2" d="M73.0709 86.3143L69.9563 80.8123C69.9402 80.7845 69.9298 80.7538 69.9256 80.722C69.9214 80.6902 69.9235 80.6578 69.9319 80.6268C69.9402 80.5958 69.9546 80.5667 69.9742 80.5413C69.9938 80.5159 70.0182 80.4946 70.0461 80.4786L79.0308 75.3787C79.0008 75.3103 78.9623 75.2418 78.9366 75.1734C79.0636 75.1681 79.1906 75.1825 79.3131 75.2162L82.9455 73.1583C82.8257 73.1198 82.7102 73.0727 82.5947 73.0299L80.8833 72.3496L79.5142 73.1283L81.0031 74.0396C80.4854 73.723 79.4286 73.6802 78.5173 73.6931L69.2204 78.9854C68.768 79.2422 68.436 79.668 68.2972 80.1694C68.1585 80.6707 68.2243 81.2066 68.4802 81.6594L71.1842 86.4256C71.3082 86.3914 71.4366 86.3614 71.5607 86.34C71.9034 86.2907 72.2501 86.2735 72.596 86.2887C72.7547 86.2875 72.9133 86.2961 73.0709 86.3143Z" fill="black"/>
<path opacity="0.2" d="M84.1687 88.4621C84.3211 88.5987 84.4944 88.7099 84.6821 88.7915C84.8746 88.8771 85.1313 89.0825 84.9816 89.2194C84.2885 89.536 83.4328 89.3007 82.7525 89.6472C82.3803 89.8269 82.0209 90.182 81.623 90.0751C82.1043 90.3673 82.5373 90.7324 82.9066 91.1575L99.8961 81.5225C99.8961 81.4541 99.9175 81.3856 99.9303 81.3129C99.9307 81.1782 99.9618 81.0454 100.021 80.9246C100.081 80.8038 100.167 80.6981 100.273 80.6156C100.38 80.5331 100.504 80.4759 100.635 80.4485C100.767 80.4211 100.904 80.424 101.034 80.4572C101.255 80.4475 101.475 80.4706 101.689 80.5257L103.807 79.3234C103.516 78.8226 103.172 78.3549 102.78 77.9287L84.1687 88.4621Z" fill="black"/>
<path opacity="0.2" d="M81.4179 91.2901C81.0082 91.1572 80.6307 90.9401 80.3098 90.6526L76.9213 92.5779C76.8939 92.5939 76.8635 92.6043 76.832 92.6084C76.8005 92.6125 76.7685 92.6103 76.7378 92.602C76.7072 92.5936 76.6785 92.5792 76.6534 92.5597C76.6284 92.5401 76.6075 92.5158 76.5919 92.4881L73.597 87.2385C73.3101 87.1392 73.0048 87.1042 72.7028 87.1358C72.3563 87.2042 72.0525 87.6064 72.2408 87.9016C72.4176 87.9062 72.5901 87.9577 72.7405 88.0509C72.8909 88.1442 73.0137 88.2757 73.0965 88.4321C72.9119 88.5789 72.7091 88.7011 72.4932 88.7958L75.0602 93.3352C75.1878 93.5645 75.3599 93.7659 75.5664 93.9277C75.7729 94.0895 76.0097 94.2084 76.2628 94.2773C76.5159 94.3463 76.7803 94.3639 77.0403 94.3293C77.3003 94.2946 77.5508 94.2082 77.777 94.0754L82.218 91.5554L82.1667 91.5254C81.9215 91.4336 81.6716 91.355 81.4179 91.2901Z" fill="black"/>
</g>
<path opacity="0.3" d="M62.1524 76.012C64.7622 77.9287 66.9442 87.1358 67.141 95.5771C67.3378 104.018 71.4194 118.253 71.9071 120.584C72.3948 122.916 72.2152 126.279 75.2443 121.598C78.2734 116.918 87.1339 108.793 90.8262 111.493C94.5185 114.192 88.3019 123.267 84.9348 128.153C81.5677 133.039 81.2255 141.643 77.1909 147.029C73.1564 152.416 69.5112 160.549 65.558 160.425C61.6047 160.301 35.4209 179.725 35.4209 179.725L35.9343 153.139L59.4655 114.633L62.1524 76.012Z" fill="black" fill-opacity="0.7"/>
<path d="M92.974 112.798C92.8413 113.632 88.2335 119.737 85.5253 124.307C82.817 128.876 80.2799 136.829 79.5997 137.997C78.9194 139.165 70.615 146.46 68.3389 149.511C66.0628 152.561 61.9983 153.909 57.9381 156.784C55.3283 158.632 47.1951 168.169 41.7144 174.753C38.6682 178.411 36.4392 181.171 36.4392 181.171L1.40332 172.036C1.40332 172.036 4.30408 169.645 8.12041 166.419H8.14608L8.18459 166.389C14.4567 161.062 23.1975 153.545 25.6105 150.709C29.4996 146.139 34.916 140.71 34.916 140.71C34.5866 134.365 35.2583 128.354 34.6636 126.069C34.3556 124.876 33.8079 118.086 33.3801 115.998C32.3405 110.663 27.8182 105.135 27.309 102.957C26.7999 100.78 20.8315 91.5083 23.7451 89.797C24.2748 89.4635 24.9044 89.3258 25.525 89.4076C29.4611 89.951 32.7041 99.4576 34.9374 101.879C35.8944 103.026 36.7612 104.244 37.5302 105.524C39.2929 108.318 41.0213 111.459 41.0213 111.459C41.6973 108.75 36.79 99.1025 35.4337 89.9638C34.0775 80.8252 30.1884 75.9178 35.4337 75.3531C35.8647 75.3048 36.301 75.3426 36.7173 75.4643C40.4095 76.5425 42.0096 84.2137 44.2173 91.6581C44.4227 92.3426 46.1041 97.2585 47.4133 101.049C48.2689 103.531 48.9535 105.529 48.9535 105.529C49.1203 100.874 47.67 96.544 47.4304 92.3255C47.3277 90.6356 47.8582 83.8628 47.1908 77.0944C46.6175 71.3827 46.8785 69.0681 49.1118 68.6189C49.5902 68.5328 50.0778 68.5098 50.5622 68.5504C54.4341 68.7943 55.8075 79.0839 55.8075 83.097C55.8075 85.4287 56.2054 89.981 56.5391 93.3951C56.783 95.8638 56.9926 97.7377 56.9926 97.7377C56.9926 97.7377 57.6686 92.0688 57.1637 79.8411C57.0482 77.1629 57.2236 75.2461 58.2761 74.4717C58.8537 74.0439 59.688 73.9712 60.886 74.2963C64.2702 75.2119 65.3697 87.7519 65.3697 92.4924C65.3697 97.2328 68.0779 105.353 68.5871 111.745C69.0962 118.137 71.3124 125.992 71.3124 125.992C71.3124 125.992 72.566 126.501 73.4088 126.335C74.2517 126.168 80.096 117.534 80.096 117.534C82.817 111.625 88.1137 109.833 90.9973 110.496C92.3236 110.8 93.1793 111.617 92.974 112.798Z" fill="white"/>
<path opacity="0.4" d="M92.9734 112.798C92.8408 113.632 88.2329 119.737 85.5247 124.307C82.8165 128.876 80.2794 136.829 79.5991 137.997C78.9188 139.165 70.6145 146.46 68.3384 149.511C66.0623 152.561 61.9978 153.909 57.9376 156.784C55.3277 158.632 47.1945 168.169 41.7139 174.753C42.3171 172.366 43.6691 169.315 47.2031 166.385C53.3383 161.289 53.7062 157.293 57.0049 153.909C60.3035 150.525 66.1136 151.539 68.2015 147.491C70.2893 143.444 77.5712 139.705 79.0943 136.149C80.6174 132.594 77.5712 131.841 80.2794 127.562C82.9876 123.284 85.6146 122.244 85.2295 120.567C84.8444 118.89 83.7064 116.349 86.0552 114.231C87.5227 112.913 89.2469 111.257 91.0096 110.496C92.3231 110.8 93.1788 111.617 92.9734 112.798Z" fill="#A24713"/>
<path opacity="0.4" d="M49.0775 132.88C47.9523 132.316 48.8551 131.191 48.0636 130.254C47.2721 129.317 45.4666 135.366 45.0687 135.388C44.6708 135.409 43.46 132.311 42.9808 132.003C42.5016 131.695 42.2193 132.992 41.539 135.388C40.8587 137.784 38.3601 138.999 36.9098 140.71C35.4594 142.421 26.7357 151.727 24.5922 155.222C22.4488 158.718 9.21139 165.636 8.18457 166.38C14.4567 161.062 23.1975 153.545 25.6105 150.709C29.4996 146.139 34.916 140.71 34.916 140.71C34.5866 134.365 35.2583 128.354 34.6636 126.069C34.3556 124.876 33.8079 118.086 33.3801 115.998C32.3404 110.663 27.8182 105.135 27.309 102.957C26.7999 100.78 20.8315 91.5083 23.7451 89.797C24.2748 89.4635 24.9044 89.3258 25.5249 89.4076C24.8618 89.8783 24.2157 90.5542 24.819 91.5468C25.8929 93.2839 27.0737 95.1107 27.0737 97.0317C27.0737 98.9528 30.3467 101.657 31.6174 103.449C32.8881 105.242 31.7029 104.609 32.5501 107.065C33.3972 109.52 34.4112 109.007 34.916 111.488C35.4209 113.97 38.2446 115.553 37.7954 118.646C37.3462 121.74 39.1474 126.044 39.1474 126.044C39.1474 126.044 40.6149 121.872 40.0801 119.626C39.5453 117.38 40.1656 114.548 39.6522 113.786C39.2244 113.101 38.0521 108.455 37.513 105.567C39.2757 108.361 41.0042 111.501 41.0042 111.501C41.6802 108.793 36.7729 99.1453 35.4166 90.0066C34.0603 80.8679 30.1713 75.9606 35.4166 75.3959C35.8476 75.3475 36.2839 75.3854 36.7001 75.5071C38.9377 79.6871 37.3804 82.7804 36.8841 84.5944C36.3407 86.5711 39.5752 91.6452 40.0544 95.1407C40.4822 98.4051 41.3636 98.0671 41.4791 98.0072C41.3807 98.0971 40.5464 98.9485 41.0513 101.37C41.5775 103.937 45.3297 110.034 45.3297 111.737C45.3297 113.439 45.0216 116.242 45.0216 117.072C45.0216 117.902 48.0165 123.455 48.3759 124.91C48.7353 126.364 48.2347 122.107 49.0519 120.631C49.869 119.155 50.3012 114.004 50.4081 114.282C51.8157 117.859 50.207 133.437 49.0775 132.88Z" fill="#A24713"/>
<path opacity="0.4" d="M51.5031 94.6487C50.5447 96.0991 50.5704 107.42 48.936 107.458C48.1445 107.458 47.7595 104.613 47.4386 101.041C48.2943 103.522 48.9788 105.52 48.9788 105.52C49.1457 100.865 47.6953 96.5355 47.4557 92.317C47.353 90.627 47.8836 83.8543 47.2161 77.0859C46.6428 71.3742 46.9038 69.0596 49.1371 68.6104C49.6077 70.1335 50.7629 71.9304 51.0581 73.599C51.4603 75.9008 50.6731 77.8046 49.9971 78.0913C49.3211 78.3779 49.2056 79.8625 50.0527 80.0807C50.8998 80.2989 50.0527 91.1019 50.4463 92.4881C50.8399 93.8743 52.4657 93.2197 51.5031 94.6487Z" fill="#A24713"/>
<path opacity="0.4" d="M60.2953 81.9761C58.5369 82.7505 58.4428 84.1367 57.9165 86.1261C57.3903 88.1156 58.6695 91.0206 57.9165 95.5857C57.1635 100.151 59.9103 103.094 57.9165 108.203C55.9228 113.311 56.8598 103.924 56.5261 99.6459C56.4111 97.5622 56.4196 95.4735 56.5517 93.3908C56.7956 95.8595 57.0052 97.7334 57.0052 97.7334C57.0052 97.7334 57.6812 92.0645 57.1764 79.8369C57.0609 77.1586 57.2363 75.2419 58.2888 74.4675C60.0942 76.1061 61.7928 81.3172 60.2953 81.9761Z" fill="#A24713"/>
<path d="M36.4389 181.174C36.4389 181.174 53.8734 159.68 57.9379 156.787C62.0024 153.895 66.0668 152.556 68.3387 149.514C70.6105 146.472 78.9234 139.186 79.5994 138.001C80.2754 136.816 82.8168 128.862 85.525 124.31C88.2332 119.758 92.8411 113.614 92.9737 112.801C93.5641 109.075 84.0875 108.908 80.1085 117.542C80.1085 117.542 74.2685 126.171 73.4214 126.342C72.5743 126.513 71.325 126 71.325 126C71.325 126 69.1088 118.149 68.5997 111.753C68.0905 105.357 65.3823 97.2277 65.3823 92.5C65.3823 87.7724 64.2827 75.2196 60.8985 74.304C57.5143 73.3884 57.0009 75.7073 57.1763 79.8659C57.6812 92.0936 57.0052 97.7625 57.0052 97.7625C57.0052 97.7625 55.8201 87.1392 55.8201 83.1218C55.8201 79.1044 54.4467 68.8148 50.5747 68.5752C47.0194 68.3485 46.5231 70.3465 47.2034 77.132C47.8836 83.9176 47.3403 90.6732 47.4429 92.3631C47.6954 96.5945 49.1543 100.92 48.9661 105.566C48.9661 105.566 44.5636 92.8209 44.2256 91.6871C41.7741 83.3785 40.0755 74.8217 35.4206 75.3351C30.1753 75.8998 34.0687 80.8072 35.4206 89.9458C36.7726 99.0845 41.6842 108.732 41.0082 111.441C41.0082 111.441 36.948 104.069 34.9243 101.861C32.3573 99.0845 28.4811 86.9852 23.7406 89.779C20.827 91.4903 26.8125 100.792 27.3173 102.969C27.8222 105.147 32.3487 110.67 33.3884 116.01C33.8162 118.098 34.351 124.888 34.6719 126.081C35.2666 128.366 34.5949 134.377 34.9243 140.722C34.9243 140.722 29.5079 146.138 25.6188 150.708C21.7297 155.277 1.41162 172.036 1.41162 172.036" stroke="#263238" stroke-linecap="round" stroke-linejoin="round"/>
<path d="M71.3252 125.997C72.1061 127.924 72.1061 130.08 71.3252 132.008" stroke="#263238" stroke-linecap="round" stroke-linejoin="round"/>
<path d="M72.7495 126.356C73.2352 126.713 73.5951 127.214 73.7773 127.789C73.9595 128.363 73.9547 128.98 73.7635 129.552" stroke="#263238" stroke-linecap="round" stroke-linejoin="round"/>
<path d="M57.0054 97.7334C57.0054 97.7334 58.3616 107.296 57.7669 109.071" stroke="#263238" stroke-linecap="round" stroke-linejoin="round"/>
<path d="M48.9663 105.52C49.1115 106.444 49.1115 107.385 48.9663 108.31" stroke="#263238" stroke-linecap="round" stroke-linejoin="round"/>
<path d="M41.0127 111.441C41.0127 111.441 41.2651 112.883 41.0127 113.221" stroke="#263238" stroke-linecap="round" stroke-linejoin="round"/>
<path d="M83.9165 119.566C83.9165 119.566 85.4482 120.396 85.9487 121.598" stroke="#263238" stroke-linecap="round" stroke-linejoin="round"/>
<path d="M49.022 79.8369C49.5184 79.9561 50.0369 79.9484 50.5297 79.8146C51.0224 79.6807 51.4735 79.425 51.8414 79.071" stroke="#263238" stroke-linecap="round" stroke-linejoin="round"/>
<path d="M49.5396 93.5876C49.5396 93.5876 52.5858 94.6016 53.6896 93.5876" stroke="#263238" stroke-linecap="round" stroke-linejoin="round"/>
<path d="M59.4614 96.5483C59.4614 96.5483 61.4894 95.7867 62.8456 96.2103" stroke="#263238" stroke-linecap="round" stroke-linejoin="round"/>
<path d="M40.0801 99.2565C40.0801 99.2565 41.6888 97.1387 42.9594 97.7334" stroke="#263238" stroke-linecap="round" stroke-linejoin="round"/>
<path d="M33.4788 105.52C33.4788 105.52 32.0412 106.196 31.6177 106.915" stroke="#263238" stroke-linecap="round" stroke-linejoin="round"/>
<path d="M34.916 140.71C35.2687 140.314 35.5811 139.884 35.8487 139.426C36.1011 138.917 35.7631 133.501 35.8487 130.014" stroke="#263238" stroke-linecap="round" stroke-linejoin="round"/>
<path d="M52.6714 162.034C50.6777 164.267 44.5638 168.314 42.1123 170.766" stroke="#263238" stroke-linecap="round" stroke-linejoin="round"/>
<path d="M60.7276 111.441C59.7137 114.321 60.8132 117.957 60.7276 119.57C60.6421 121.183 60.2998 128.555 60.2998 128.555" stroke="#263238" stroke-linecap="round" stroke-linejoin="round"/>
<path d="M51.5031 111.441C50.1511 113.726 50.5747 116.772 50.9982 118.287C51.4218 119.801 51.0453 125.988 51.0453 125.988" stroke="#263238" stroke-linecap="round" stroke-linejoin="round"/>
<path d="M36.948 118.719C36.8359 120.209 37.1317 121.701 37.8037 123.036" stroke="#263238" stroke-linecap="round" stroke-linejoin="round"/>
<path d="M45.3254 114.235C44.5639 117.029 45.5821 118.295 45.6677 118.719" stroke="#263238" stroke-linecap="round" stroke-linejoin="round"/>
<path opacity="0.3" d="M114.067 95.7867L112.625 87.4182C112.561 87.0464 112.574 86.6656 112.661 86.2986C112.748 85.9317 112.909 85.5862 113.133 85.2828C113.357 84.9795 113.64 84.7246 113.966 84.5336C114.291 84.3425 114.651 84.2191 115.025 84.1709L118.255 83.743C118.255 83.743 117.177 81.5568 120.647 75.1862C124.117 68.8157 140.798 51.8946 153.445 80.3203C166.092 108.746 177.648 166.671 177.648 166.671C177.648 166.671 143.511 126.916 142.424 124.88C141.337 122.843 130.945 124.063 128.545 118.599C126.145 113.136 121.105 97.5452 121.105 97.5452L117.203 98.08C116.485 98.1771 115.758 97.9925 115.173 97.565C114.588 97.1375 114.192 96.5002 114.067 95.7867Z" fill="black" fill-opacity="0.7"/>
<path d="M144.153 76.5853L137.602 77.7746L128.498 79.4304L116.574 81.5995C116.345 81.6415 116.111 81.6379 115.883 81.589C115.656 81.5401 115.441 81.4467 115.249 81.3144C115.058 81.182 114.895 81.0132 114.769 80.8177C114.643 80.6221 114.557 80.4037 114.516 80.1748L111.898 65.778C111.815 65.3164 111.919 64.8409 112.186 64.4553C112.453 64.0698 112.861 63.8055 113.322 63.7201L120.258 62.4366L130.346 60.6054L140.901 58.6844C141.13 58.6424 141.365 58.646 141.592 58.695C141.819 58.7439 142.035 58.8372 142.226 58.9696C142.417 59.1019 142.58 59.2707 142.706 59.4663C142.832 59.6618 142.918 59.8803 142.959 60.1091L145.577 74.5059C145.622 74.7362 145.621 74.9731 145.574 75.2029C145.526 75.4327 145.434 75.6508 145.301 75.8443C145.168 76.0379 144.998 76.2031 144.801 76.3303C144.604 76.4575 144.384 76.5442 144.153 76.5853Z" fill="#A24713"/>
<path opacity="0.3" d="M139.519 67.0273L137.603 77.7746L128.498 79.4304C125.863 78.2709 121.516 76.2515 120.647 75.152C119.612 73.8685 119.757 66.3042 120.258 62.4366L130.347 60.6054C133.902 63.0569 139.519 67.0273 139.519 67.0273Z" fill="black" fill-opacity="0.7"/>
<path opacity="0.3" d="M118.384 81.2701L116.574 81.5995C116.345 81.6415 116.111 81.6379 115.883 81.589C115.656 81.5401 115.441 81.4467 115.249 81.3144C115.058 81.182 114.895 81.0132 114.769 80.8177C114.643 80.6221 114.557 80.4037 114.516 80.1748L111.898 65.778C111.815 65.3164 111.919 64.8409 112.186 64.4553C112.453 64.0698 112.861 63.8055 113.322 63.7201L115.128 63.3907C114.667 63.476 114.259 63.7404 113.993 64.1262C113.726 64.5119 113.624 64.9874 113.708 65.4486L116.326 79.8454C116.367 80.0742 116.453 80.2927 116.579 80.4882C116.705 80.6838 116.868 80.8526 117.059 80.9849C117.25 81.1173 117.466 81.2106 117.693 81.2595C117.92 81.3085 118.155 81.3121 118.384 81.2701Z" fill="black" fill-opacity="0.7"/>
<path d="M144.153 76.5853L137.602 77.7746L128.498 79.4304L116.574 81.5995C116.345 81.6415 116.111 81.6379 115.883 81.589C115.656 81.5401 115.441 81.4467 115.249 81.3144C115.058 81.182 114.895 81.0132 114.769 80.8177C114.643 80.6221 114.557 80.4037 114.516 80.1748L111.898 65.778C111.815 65.3164 111.919 64.8409 112.186 64.4553C112.453 64.0698 112.861 63.8055 113.322 63.7201L120.258 62.4366L130.346 60.6054L140.901 58.6844C141.13 58.6424 141.365 58.646 141.592 58.695C141.819 58.7439 142.035 58.8372 142.226 58.9696C142.417 59.1019 142.58 59.2707 142.706 59.4663C142.832 59.6618 142.918 59.8803 142.959 60.1091L145.577 74.5059C145.622 74.7362 145.621 74.9731 145.574 75.2029C145.526 75.4327 145.434 75.6508 145.301 75.8443C145.168 76.0379 144.998 76.2031 144.801 76.3303C144.604 76.4575 144.384 76.5442 144.153 76.5853V76.5853Z" stroke="#263238" stroke-linecap="round" stroke-linejoin="round"/>
<path d="M142.207 57.9238L114.74 62.9688C113.781 63.1449 113.147 64.0648 113.323 65.0235L115.956 79.3588C116.132 80.3175 117.052 80.9519 118.01 80.7758L145.478 75.7308C146.436 75.5547 147.071 74.6348 146.895 73.6761L144.262 59.3408C144.086 58.3822 143.166 57.7477 142.207 57.9238Z" stroke="#263238" stroke-width="0.996394" stroke-linecap="round" stroke-linejoin="round"/>
<path d="M141.439 59.6551L115.555 64.359C115.09 64.4435 114.781 64.8889 114.866 65.3539L117.444 79.5398C117.528 80.0047 117.974 80.3131 118.439 80.2286L144.323 75.5247C144.788 75.4402 145.096 74.9948 145.012 74.5298L142.434 60.344C142.349 59.879 141.904 59.5706 141.439 59.6551Z" stroke="#263238" stroke-linecap="round" stroke-linejoin="round"/>
<path d="M145.963 76.2558L144.166 76.581C144.625 76.4947 145.031 76.2303 145.295 75.8455C145.56 75.4606 145.661 74.9867 145.578 74.5273L142.959 60.1305C142.918 59.9017 142.832 59.6832 142.706 59.4877C142.58 59.2921 142.417 59.1233 142.226 58.991C142.035 58.8586 141.819 58.7653 141.592 58.7164C141.365 58.6674 141.13 58.6638 140.901 58.7058L142.711 58.3764C143.173 58.294 143.648 58.3975 144.034 58.6644C144.419 58.9314 144.684 59.34 144.769 59.8011L147.387 74.1979C147.47 74.6595 147.366 75.135 147.099 75.5206C146.832 75.9061 146.424 76.1705 145.963 76.2558V76.2558Z" stroke="#263238" stroke-linecap="round" stroke-linejoin="round"/>
<path d="M198.001 122.373L180.284 169.897C180.284 169.897 172.874 155.779 166.028 142.712C160.56 132.264 155.452 122.467 154.763 121.025C153.219 117.778 147.943 110.975 147.943 110.975C147.943 110.975 142.531 107.878 140.054 102.482C137.577 97.0874 134.851 77.7875 134.851 77.7875C134.851 77.7875 127.736 75.1092 126.038 73.9369C124.339 72.7647 122.791 61.9317 122.791 60.6953C122.791 59.4588 124.502 56.9816 124.502 56.9816C124.502 56.9816 124.121 55.1676 126.295 53.3364C127.005 52.7532 127.792 52.2709 128.635 51.9032H128.678C128.678 51.9032 128.395 47.8087 130.526 46.6151C130.628 46.5575 130.733 46.5074 130.842 46.4653C132.742 45.7337 138.971 44.7882 138.971 44.7882C139.852 44.0144 140.877 43.4226 141.988 43.0469C143.092 42.7431 149.15 44.1507 152.534 44.985C153.895 45.3187 154.823 45.5583 154.823 45.5583C154.823 45.5583 160.547 45.8193 161.63 46.4653C162.385 46.9603 163.075 47.5482 163.684 48.2152L163.79 48.3393C163.79 48.3393 168.895 49.4003 169.977 51.27C171.059 53.1396 171.522 62.4152 170.751 68.4435C169.981 74.4717 171.363 84.7014 171.363 84.7014C171.363 84.7014 172.959 92.6036 174.196 95.6028C175.432 98.6019 198.001 122.373 198.001 122.373Z" fill="white"/>
<path opacity="0.4" d="M166.028 142.712C160.56 132.264 155.452 122.467 154.763 121.025C153.219 117.778 147.943 110.975 147.943 110.975C147.943 110.975 142.531 107.877 140.054 102.482C137.577 97.0874 134.851 77.7875 134.851 77.7875C134.851 77.7875 127.736 75.1092 126.038 73.9369C124.339 72.7646 122.791 61.9317 122.791 60.6953C122.791 59.4588 124.502 56.9816 124.502 56.9816C124.502 56.9816 124.121 55.1676 126.295 53.3364C126.295 53.8242 126.295 54.6456 126.295 55.9377C126.243 58.3892 129.131 73.1711 129.846 72.7219C130.56 72.2726 131.664 71.1902 131.373 70.2361C131.373 70.2361 129.974 64.4988 128.652 51.9032H128.695C128.695 51.9032 128.412 47.8087 130.543 46.6151C130.176 47.5017 129.941 48.4371 129.846 49.3917C129.799 51.3855 132.169 68.4691 133.097 68.9013C134.026 69.3334 136.379 67.0573 136.379 67.0573C136.379 67.0573 135.574 62.2098 135.861 60.1434C135.861 60.1434 143.019 64.5073 143.233 69.4617C143.254 70.0051 144.627 77.7704 144.627 77.7704C144.627 77.7704 138.471 89.4932 144.756 100.189C144.756 100.189 141.56 98.2725 140.798 95.2263C140.798 95.2263 139.87 104.185 146.471 108.917C146.471 108.917 151.208 104.267 155.884 103.676C155.884 103.676 155.97 103.984 152.838 106.453C149.706 108.921 149.282 110.021 149.282 110.021C149.282 110.021 152.671 106.598 155.379 106.453C155.379 106.453 152.585 109.683 152.671 110.359C152.756 111.035 160.659 124.546 163.534 133.971C164.706 137.908 165.506 140.748 166.028 142.712Z" fill="#A24713"/>
<path opacity="0.4" d="M143.841 53.0455C143.841 53.0455 146.121 54.7568 146.797 53.0455C147.185 52.1297 147.432 51.1603 147.529 50.1704C147.529 50.1704 148.406 49.7682 149.24 51.8818C150.074 53.9953 158.439 54.5344 160.398 55.6168C162.358 56.6992 163.136 55.6168 163.136 55.6168C163.593 55.9919 163.906 56.5129 164.023 57.092C164.14 57.6711 164.053 58.2729 163.778 58.7956C162.828 60.7594 165.519 60.9349 166.563 59.4888C167.607 58.0427 166.799 63.626 164.219 64.195C164.219 64.195 164.292 66.6337 162.632 68.3065H164.039C164.039 68.3065 160.291 71.28 159.294 71.4426C158.298 71.6052 163.004 73.2695 162.131 73.6203C161.258 73.9711 158.785 73.9412 158.785 73.9412C158.785 73.9412 160.385 75.0493 160.398 75.7809C160.411 76.5125 159.641 77.0644 159.294 76.4526C158.948 75.8408 156.184 67.0786 154.806 63.8399C153.429 60.6011 147.738 58.0384 143.841 53.0455Z" fill="#A24713"/>
<path opacity="0.4" d="M163.68 48.1852C158.879 46.8717 152.44 45.0021 152.44 45.0021L152.53 44.955C153.891 45.2887 154.819 45.5283 154.819 45.5283C154.819 45.5283 160.544 45.7893 161.626 46.4353C162.381 46.9304 163.071 47.5183 163.68 48.1852Z" fill="#A24713"/>
<path d="M156.928 55.7366C152.753 54.8809 149.771 58.4491 149.771 58.4491C149.771 58.4491 153.921 62.2056 154.84 63.8185C155.76 65.4315 157.288 70.8693 157.288 70.8693C159.038 71.1517 162.263 69.3462 163.038 64.5544C163.812 59.7626 161.083 56.588 156.928 55.7366Z" fill="#A24713"/>
<path d="M180.284 169.897C180.284 169.897 156.325 124.272 154.763 121.025C153.201 117.778 147.943 110.975 147.943 110.975C147.943 110.975 142.531 107.877 140.054 102.482C137.577 97.0874 134.851 77.7875 134.851 77.7875C134.851 77.7875 127.736 75.1092 126.038 73.9369C124.339 72.7646 122.791 61.9317 122.791 60.6953C122.791 59.4588 124.502 56.9816 124.502 56.9816C124.502 56.9816 123.886 54.0509 128.678 51.8818C128.678 51.8818 128.37 47.3937 130.842 46.4439C132.742 45.7123 138.971 44.7668 138.971 44.7668C139.852 43.993 140.877 43.4012 141.988 43.0255C143.532 42.5976 154.823 45.5369 154.823 45.5369C154.823 45.5369 160.547 45.7979 161.63 46.4439C162.421 46.9661 163.142 47.5888 163.773 48.2965C163.773 48.2965 168.877 49.3575 169.96 51.2272C171.042 53.0968 171.504 62.3724 170.734 68.4007C169.964 74.4289 171.346 84.6586 171.346 84.6586C171.346 84.6586 172.942 92.5608 174.178 95.56C175.415 98.5591 198.001 122.373 198.001 122.373" stroke="#263238" stroke-linecap="round" stroke-linejoin="round"/>
<path d="M160 77.1586C160 77.1586 158.918 76.9275 157.527 71.8234C156.137 66.7193 155.769 64.3319 152.885 61.3071C150.84 59.1679 146.16 55.6724 143.841 53.0455C141.522 50.4185 138.959 48.2965 136.957 49.9222C135.357 51.2058 134.313 54.5386 135.72 59.6813C137.53 66.2871 143.237 69.4318 143.237 69.4318L144.632 77.7404C144.632 77.7404 138.578 89.8654 145.402 101.31" stroke="#263238" stroke-linecap="round" stroke-linejoin="round"/>
<path d="M149.749 58.4491C149.749 58.4491 152.744 54.8852 156.907 55.7366C161.07 56.588 163.774 59.7583 163.016 64.5544C162.259 69.3505 159.016 71.1517 157.266 70.8693" stroke="#263238" stroke-linecap="round" stroke-linejoin="round"/>
<path d="M138.959 44.7582C138.333 46.33 137.852 47.9554 137.521 49.6142" stroke="#263238" stroke-linecap="round" stroke-linejoin="round"/>
<path d="M136.426 61.5125C136.426 61.5125 136.786 66.7963 137.53 68.4178C138.275 70.0393 139.511 71.3571 140.05 73.4449C140.589 75.5328 140.67 78.7801 140.824 79.2464C140.978 79.7128 141.873 79.8326 141.873 79.8326C143.156 79.8625 143.674 79.1951 144.414 78.1768" stroke="#263238" stroke-linecap="round" stroke-linejoin="round"/>
<path d="M128.69 51.8732C128.69 51.8732 129.85 63.1596 130.778 67.9557C131.707 72.7518 133.345 73.4449 136.036 74.9937C138.728 76.5425 140.212 79.6999 140.447 80.1748C140.683 80.6497 141.564 80.7011 141.564 80.7011C142.082 80.658 142.581 80.4863 143.016 80.2017C143.451 79.9171 143.808 79.5284 144.054 79.071" stroke="#263238" stroke-linecap="round" stroke-linejoin="round"/>
<path d="M124.506 56.9731C124.215 57.4223 126.697 68.8841 127.989 72.2084C129.281 75.5328 129.427 76.059 132.845 77.0003C136.263 77.9415 138.86 79.5074 139.785 78.9555" stroke="#263238" stroke-linecap="round" stroke-linejoin="round"/>
<path d="M148.247 50.6325C148.247 50.6325 150.023 54.8852 148.85 57.6833" stroke="#263238" stroke-linecap="round" stroke-linejoin="round"/>
<path d="M154.819 45.5283C157.729 46.6786 160.722 47.6041 163.774 48.2964" stroke="#263238" stroke-linecap="round" stroke-linejoin="round"/>
<path d="M166.576 60.2246C166.576 60.2246 165.216 62.7104 163.153 63.2452" stroke="#263238" stroke-linecap="round" stroke-linejoin="round"/>
<path d="M163.149 57.5164C163.149 57.5164 162.661 58.7999 162.144 59.155" stroke="#263238" stroke-linecap="round" stroke-linejoin="round"/>
<path d="M164.86 67.7247C164.86 67.7247 161.767 70.065 158.798 70.6725" stroke="#263238" stroke-linecap="round" stroke-linejoin="round"/>
<path d="M157.527 71.8277C157.527 71.8277 158.81 73.4492 162.143 73.6032" stroke="#263238" stroke-linecap="round" stroke-linejoin="round"/>
<path d="M147.516 64.7298C147.516 64.7298 150.545 61.8205 152.273 62.2227" stroke="#263238" stroke-linecap="round" stroke-linejoin="round"/>
<path d="M153.445 65.3202C153.445 65.3202 151.152 67.0316 150.733 67.0316" stroke="#263238" stroke-linecap="round" stroke-linejoin="round"/>
<path d="M129.833 74.3947C129.833 74.3947 130.595 74.5359 131.189 73.616" stroke="#263238" stroke-linecap="round" stroke-linejoin="round"/>
<path d="M132.542 70.2275C132.542 70.2275 134.381 69.0895 135.583 68.8713" stroke="#263238" stroke-linecap="round" stroke-linejoin="round"/>
<path d="M148.748 108.819C149.128 108.481 152.684 105.606 154.883 104.587" stroke="#263238" stroke-linecap="round" stroke-linejoin="round"/>
<path d="M153.36 107.458C153.108 107.381 151.088 109.495 150.023 110.342" stroke="#263238" stroke-linecap="round" stroke-linejoin="round"/>
<path d="M154.361 113.726C154.361 113.726 161.134 126.561 162.657 131.695" stroke="#263238" stroke-linecap="round" stroke-linejoin="round"/>
<path d="M174.196 95.5771C174.769 98.7303 176.63 101.053 177.648 102.311" stroke="#263238" stroke-linecap="round" stroke-linejoin="round"/>
<path opacity="0.4" d="M152.846 56.9731C151.862 57.5806 152.897 59.5658 153.445 60.5798C153.993 61.5937 156.44 63.2067 156.949 64.7298C157.458 66.2529 160.676 66.2101 161.655 64.7298C162.635 63.2495 162.511 60.2931 159.841 58.0427C157.172 55.7922 154.245 56.1174 152.846 56.9731Z" fill="white"/>
<path d="M134.059 142.237C129.702 141.497 125.223 142.254 121.351 144.386C117.48 146.518 114.445 149.899 112.741 153.978C111.038 158.056 110.767 162.591 111.972 166.843C113.176 171.096 115.786 174.814 119.376 177.393" stroke="#263238" stroke-linecap="round" stroke-linejoin="round"/>
<path d="M142.21 145.647C140.396 144.337 138.37 143.35 136.22 142.729" stroke="#263238" stroke-linecap="round" stroke-linejoin="round"/>
<path d="M140.242 178.608C142.879 177.148 145.142 175.098 146.855 172.618C148.568 170.138 149.684 167.295 150.116 164.312C150.547 161.329 150.283 158.287 149.344 155.423C148.404 152.559 146.815 149.951 144.7 147.804" stroke="#263238" stroke-linecap="round" stroke-linejoin="round"/>
<path d="M141.187 184.777L142.351 185.804L140.537 179.588" stroke="#263238" stroke-linecap="round" stroke-linejoin="round"/>
<path d="M127.496 180.781C130.373 181.275 133.323 181.116 136.13 180.315L139.814 183.567" stroke="#263238" stroke-linecap="round" stroke-linejoin="round"/>
<path d="M123.013 179.455C123.743 179.77 124.492 180.04 125.255 180.264" stroke="#263238" stroke-linecap="round" stroke-linejoin="round"/>
<path d="M132.323 152.001C134.746 152.415 136.926 153.721 138.435 155.663C139.943 157.604 140.67 160.04 140.473 162.49C140.276 164.941 139.168 167.229 137.369 168.904C135.569 170.578 133.208 171.519 130.749 171.54C128.291 171.561 125.914 170.662 124.085 169.018C122.257 167.374 121.11 165.105 120.871 162.659C120.632 160.212 121.317 157.764 122.792 155.797C124.266 153.83 126.424 152.486 128.84 152.031" stroke="#263238" stroke-linecap="round" stroke-linejoin="round"/>
<path d="M128.84 172.447C125.99 171.962 123.45 170.364 121.778 168.006C120.106 165.648 119.439 162.723 119.923 159.873" stroke="#263238" stroke-linecap="round" stroke-linejoin="round"/>
<path d="M140.922 165.405C140.251 167.26 139.089 168.899 137.561 170.147C136.032 171.395 134.194 172.204 132.241 172.49" stroke="#263238" stroke-linecap="round" stroke-linejoin="round"/>
<path d="M120.762 157.152C121.867 154.75 123.807 152.831 126.22 151.753C128.634 150.675 131.358 150.511 133.884 151.291C136.41 152.071 138.566 153.743 139.951 155.994C141.337 158.246 141.856 160.925 141.414 163.531" stroke="#263238" stroke-linecap="round" stroke-linejoin="round"/>
<path d="M137.213 157.772L137.337 157.64" stroke="#263238" stroke-width="2" stroke-linecap="round" stroke-linejoin="round"/>
<path d="M135.467 159.655L136.335 158.718" stroke="#263238" stroke-width="2" stroke-linecap="round" stroke-linejoin="round"/>
<path d="M124.81 161.037L129.007 166.616L134.706 160.476" stroke="#263238" stroke-width="2" stroke-linecap="round" stroke-linejoin="round"/>
</svg>
